UniversElse-Bold.sfdir

StartChar: uni0023
Encoding: 35 35 4
Width: 507
GlyphClass: 2
Flags: W
LayerCount: 2
Fore
SplineSet
309 397 m 0
 306 399 302 399.999 292 399.999 c 1
 285 398.999 274 397.999 268 396.999 c 0
 262 395.999 253 393.999 247 393.999 c 2
 239 391.999 236 391.999 232 393.999 c 1
 228 394.999 224 394.999 222 394.999 c 1
 220 393.999 217 390.999 214 387.999 c 1
 211 382.999 210 379.999 209 368.999 c 0
 209 361.999 207 352.999 206 349.999 c 0
 204 345.999 202 335.999 200 326.999 c 0
 199 317.999 196 307.999 195 302.999 c 1
 193 298.999 192 293.999 192 290.999 c 0
 192 288.999 194 282.999 196 277.999 c 0
 200 269.999 202 267.999 206 265.999 c 1
 209.535 265.292 214.57 264.585 228.53 264.585 c 0
 234.312 264.585 241.626 264.706 250.999 264.999 c 0
 287.999 264.999 289.999 264.999 293.999 268.999 c 0
 296.999 270.999 299.999 274.999 301.999 279.999 c 0
 303.999 283.999 304.999 290.999 304.999 293.999 c 0
 304.999 296.999 305.999 303.999 307.999 307.999 c 1
 308.999 312.999 310.999 321.999 310.999 328.999 c 1
 311.999 334.999 312.999 341.999 313.999 344.999 c 1
 315.999 347.999 316.999 354.999 317.999 359.999 c 0
 318.999 365.999 319.999 373.999 321.999 377.999 c 0
 322.898 380.696 323.394 382.181 323.394 383.361 c 0
 323.394 384.808 322.651 385.798 321 388 c 0
 320 390 317 392 316 393 c 1
 314 394 311 396 309 397 c 0
178 654.999 m 0
 183 656.999 188 657.999 189 657.999 c 0
 191 657.999 203 656.999 216 654.999 c 0
 229 653.999 242 650.999 244 649.999 c 0
 247 648.999 251 645.999 254 642.999 c 0
 258 637.999 259 636.999 258 630.999 c 0
 258 626.999 257 620.999 255 617.999 c 0
 253 613.999 251 606.999 250 600.999 c 0
 249 594.999 248 585.999 247 580.999 c 0
 246 574.999 244 562.999 244 552.999 c 0
 243 534.999 243 533.999 238 523.999 c 0
 233 512.999 233 512.999 234 501.999 c 0
 235 495.999 237 488.999 238 486.999 c 1
 240 484.999 242 482.999 247 482.999 c 2
 251 481.999 259 481.999 265 481.999 c 2
 294 481.999 l 2
 304 481.999 314 481.999 317 482.999 c 2
 320 482.999 327 486.999 333 490.999 c 0
 339 494.999 345 498.999 345 500.999 c 2
 346 501.999 347 514.999 348 528.999 c 0
 348 546.999 349 557.999 351 563.999 c 0
 353 569.999 356 579.999 359 586.999 c 0
 363 597.999 364 601.999 365 616.999 c 0
 365 625.999 366 635.999 367 638.999 c 0
 368 640.999 372 644.999 376 647.999 c 1
 380 651.999 385 653.999 393 655.999 c 0
 402 657.999 404 657.999 409 655.999 c 0
 412 654.999 417 653.999 420 653.999 c 0
 423 653.999 428 654.999 431 655.999 c 0
 435 656.999 440 657.999 443 657.999 c 0
 446 657.999 451 656.999 456 653.999 c 0
 460 651.999 465 647.999 466 645.999 c 0
 467 643.999 468 639.999 469 635.999 c 0
 470 630.999 469 627.999 466 620.999 c 0
 464 615.999 462 607.999 461 602.999 c 0
 460 597.999 459 587.999 458 579.999 c 0
 457 571.999 455 558.999 453 551.999 c 0
 451 544.999 448 531.999 447 523.999 c 2
 445 516.999 444 506.999 445 503.999 c 2
 445 499.999 447 493.999 449 489.999 c 0
 451 485.999 453 482.999 456 481.999 c 0
 458 480.999 463 479.999 467 478.999 c 0
 473 477.999 474 477.999 479 479.999 c 0
 483 481.999 488 482.999 496 482.999 c 0
 506 482.999 506 481.999 511 477.999 c 0
 514 474.999 517 469.999 519 466.999 c 1
 520 462.999 521 452.999 521 439.999 c 0
 521.366 433.776 521.599 429.43 521.599 426.174 c 0
 521.599 420.535 520.902 418.169 519 414.999 c 2
 518 411.999 515 406.999 513 404.999 c 0
 511 402.999 506 399.999 503 397.999 c 0
 499 395.999 492 394.999 488 394.999 c 0
 483 394.999 471 394.999 461 395.999 c 0
 448 396.999 440 396.999 436 395.999 c 1
 432 393.999 429 391.999 425 385.999 c 0
 422 381.999 418 374.999 417 371.999 c 0
 416 367.999 414 362.999 413 360.999 c 0
 411 357.999 411 355.999 412 349.999 c 0
 413 344.999 413 340.999 411 334.999 c 0
 410 330.999 409 322.999 409 316.999 c 0
 409 311.999 409 306.999 408 305.999 c 1
 407 305.999 406 302.999 405 298.999 c 0
 404 295.999 404 290.999 404 287.999 c 1
 405 285.999 408 279.999 413 275.999 c 2
 417 270.999 422 266.999 424 265.999 c 0
 427 264.999 436 263.999 445 263.999 c 0
 458 263.999 463 263.999 466 261.999 c 0
 468 260.999 471 257.999 472 254.999 c 2
 474 252.999 475 246.999 476 242.999 c 1
 476 237.999 478 231.999 480 227.999 c 0
 482 224.999 484 217.999 485 212.999 c 0
 486 205.999 486 203.999 484 198.999 c 1
 482 196.999 481 193.999 481 192.999 c 0
 481 191.999 479 189.999 477 186.999 c 0
 475 184.999 470 181.999 467 179.999 c 1
 463 178.999 457 176.999 453 175.999 c 0
 449 174.999 444 174.999 441 174.999 c 1
 437 175.999 432 177.999 429 178.999 c 0
 424 180.999 420 181.999 417 181.999 c 1
 415 180.999 409 179.999 403 178.999 c 0
 395 177.999 393 176.999 388 171.999 c 0
 385 168.999 383 163.999 382 160.999 c 1
 382 158.999 381 154.999 380 152.999 c 1
 379 151.999 376 145.999 374 139.999 c 2
 371 134.999 369 127.999 370 125.999 c 1
 370 113.999 l 2
 370 109.999 369 97.999 368 87.999 c 0
 367 72.999 366 66.999 362 56.999 c 0
 360 49.999 358 41.999 358 39.999 c 0
 358 36.999 356 30.999 354 26.999 c 0
 352 22.999 349 17.999 347 16.999 c 0
 345 15.999 340 13.999 337 12.999 c 0
 333 11.999 329 10.999 329 9.99902 c 0
 329 8.99902 323 8.99902 317 8.99902 c 0
 310 8.99902 305 8.99902 302 10.999 c 0
 298 12.999 293 13.999 283 13.999 c 0
 273 13.999 269 13.999 266 16.999 c 1
 264 17.999 260 22.999 258 27.999 c 0
 256 31.999 254 37.999 254 40.999 c 2
 253 42.999 254 45.999 255 46.999 c 1
 255 47.999 256 50.999 257 52.999 c 0
 258 54.999 259 61.999 259 68.999 c 0
 260 77.999 262 82.999 265 89.999 c 1
 268 93.999 270 98.999 270 99.999 c 0
 270 100.999 271 103.999 272 107.999 c 1
 274 110.999 276 116.999 277 121.999 c 0
 278 125.999 278 133.999 278 139.999 c 0
 278 144.999 279 150.999 280 154.999 c 1
 282 158.999 282 161.999 281 164.999 c 0
 280 166.999 277 170.999 274 172.999 c 0
 271 175.999 267 177.999 260 177.999 c 1
 255 178.999 239 178.999 224 178.999 c 0
 202 178.999 196 178.999 191 175.999 c 1
 188 174.999 183 172.999 181 172.999 c 1
 178 171.999 176 169.999 174 165.999 c 1
 173 161.999 171 155.999 170 150.999 c 0
 170 146.999 168 139.999 166 135.999 c 1
 165 131.999 163 124.999 162 120.999 c 1
 162 116.999 160 109.999 159 105.999 c 0
 157 100.999 156 94.999 156 90.999 c 0
 156 86.999 155 80.999 154 77.999 c 0
 153 74.999 151 64.999 151 55.999 c 0
 150 45.999 149 35.999 148 32.999 c 0
 147 30.999 145 25.999 143 22.999 c 0
 140 19.999 136 16.999 134 14.999 c 1
 131 13.999 126 12.999 122 11.999 c 1
 119 11.999 106 11.999 94 13.999 c 0
 81 14.999 68 15.999 65 14.999 c 0
 59 13.999 58 14.999 52 19.999 c 0
 47 24.999 46 27.999 45 31.999 c 1
 45 34.999 45 40.999 46 45.999 c 0
 47 49.999 49 53.999 49 54.999 c 1
 50 55.999 52 60.999 53 66.999 c 0
 55 73.999 57 80.999 58 83.999 c 0
 59 87.999 59 96.999 59 106.999 c 0
 58 122.999 58 123.999 62 131.999 c 0
 64 135.999 66 141.999 67 143.999 c 0
 68 145.999 69 152.999 69 158.999 c 0
 69 169.999 68 170.999 65 174.999 c 1
 61 177.999 61 177.999 36 177.999 c 0
 15 177.999 11 178.999 6 180.999 c 1
 4 182.999 -1 185.999 -3 187.999 c 1
 -8 190.999 -8 190.999 -8 206.999 c 0
 -8 215.999 -8 222.999 -6 224.999 c 1
 -6 226.999 -5 233.999 -5 239.999 c 1
 -4 246.999 -4 253.999 -2 255.999 c 1
 -1 257.999 1 260.999 4 261.999 c 1
 7 263.999 12 263.999 37 263.999 c 0
 54 263.999 70 264.999 73 265.999 c 0
 77 266.999 82 269.999 86 273.999 c 0
 90 278.999 92 281.999 95 290.999 c 1
 96 296.999 99 306.999 101 312.999 c 1
 102 318.999 104 326.999 104 330.999 c 0
 104 334.999 105 342.999 107 348.999 c 2
 108 354.999 110 361.999 111 364.999 c 0
 112 369.999 112 372.999 110 376.999 c 0
 109 378.999 107 383.999 105 387.999 c 0
 103 390.999 100 393.999 97 394.999 c 0
 95 395.999 89 396.999 85 396.999 c 0
 80 396.999 72 395.999 66 394.999 c 0
 57 393.999 55 393.999 49 396.999 c 0
 46 398.999 41 401.999 39 403.999 c 0
 35 406.999 35 406.999 35 436.999 c 0
 35 458.999 35 467.999 37 470.999 c 1
 38 473.999 41 476.999 43 478.999 c 0
 47 482.999 48 482.999 64 483.999 c 0
 73 483.999 87 482.999 94 482.999 c 0
 104 481.999 110 481.999 115 483.999 c 0
 118 484.999 124 487.999 127 490.999 c 0
 131 493.999 133 497.999 134 502.999 c 0
 135 505.999 136 512.999 136 517.999 c 0
 136 522.999 137 529.999 139 534.999 c 0
 140 538.999 142 544.999 142 547.999 c 0
 142 549.999 143 553.999 143 555.999 c 1
 144 557.999 145 565.999 146 574.999 c 0
 146 584.999 147 593.999 148 597.999 c 0
 149 601.999 152 610.999 154 617.999 c 0
 156 624.999 158 632.999 158 634.999 c 0
 158 636.999 159 640.999 160 643.999 c 0
 161 645.999 164 648.999 166 649.999 c 2
 167 650.999 173 652.999 178 654.999 c 0
EndSplineSet
Validated: 33
EndChar

StartChar: uni0024
Encoding: 36 36 5
Width: 500
GlyphClass: 2
Flags: W
LayerCount: 2
Fore
SplineSet
292 254 m 2
 290 255 286 256.001 282 256.001 c 0
 278 256.001 275 255.001 273 253.001 c 1
 271 252.001 269 246.001 267 241.001 c 0
 265 236.001 264 227.001 263 221.001 c 1
 263 215.001 263 207.001 264 201.001 c 0
 266 194.001 266 191.001 265 188.001 c 0
 264 186.001 264 177.001 264 168.001 c 2
 264 145.001 l 2
 264 142.001 264 133.001 263 127.001 c 0
 262.732 124.321 262.608 122.072 262.608 120.062 c 0
 262.608 114.569 263.536 110.856 265 105 c 0
 267 99 268 93 269 90 c 0
 270 87 271 85 272 84 c 1
 274 83 278 82 281 82 c 0
 282.072 81.7324 283.216 81.6084 284.45 81.6084 c 0
 287.823 81.6084 291.876 82.5361 297 84 c 0
 303 86 310 89 314 90 c 0
 319 91 323 94 332 103 c 0
 339 111 345 118 348 124 c 0
 352 132 352 134 353 157 c 0
 353 180 353 182 350 196 c 0
 347 208 345 212 339 220 c 0
 335 225 330 230 327 233 c 0
 325 235 320 237 316 237 c 1
 312 238 309 240 303 246 c 0
 299 250 294 254 292 254 c 2
226 546.001 m 0
 223 547.001 218 548 210 548 c 0
 200 548 197 548 191 544 c 0
 187 542 181 538 179 536 c 2
 166 523 l 2
 162 519 158 515 157 513 c 1
 155 512 153 508 152 505 c 2
 148 493 l 2
 146 489 146 480 146 468 c 0
 146 451 146 448 150 435 c 0
 153 427 156 418 158 415 c 2
 159 412 164 406 167 403 c 0
 172 398 177 396 186 392 c 1
 195 390 202 388 207 388 c 0
 212 388 218 389 222 390 c 2
 225 390 230 393 231 394 c 0
 234 397 234 400 235 420 c 0
 235.366 427.32 235.599 432.363 235.599 436.208 c 0
 235.599 442.866 234.902 445.929 233 451.001 c 0
 230 460.001 229 463.001 231 474.001 c 2
 231 481.001 232 492.001 232 497.001 c 0
 232 503.001 233 510.001 234 514.001 c 0
 236 520.001 236 525.001 236 531.001 c 1
 235 536.001 234 540.001 233 541.001 c 2
 232 543.001 229 545.001 226 546.001 c 0
241 704 m 0
 245 707 247.999 708 251.999 708 c 0
 256.999 708 258.999 707 261.999 704 c 0
 263.999 702 267.999 695 268.999 690 c 2
 271.999 682 272.999 676 272.999 665 c 0
 272.999 657 273.999 647 274.999 643 c 0
 275.999 638 277.999 635 280.999 633 c 0
 283.999 630 285.999 630 296.999 630 c 0
 306.999 630 309.999 630 314.999 628 c 1
 317.999 626 324.999 624 329.999 624 c 1
 334.999 623 339.999 622 340.999 622 c 1
 341.999 621 348.999 619 355.999 617 c 0
 362.999 615 370.999 613 371.999 613 c 0
 372.999 613 375.999 611 378.999 610 c 1
 393.999 600 l 2
 398.999 597 405.999 592 408.999 590 c 0
 412.999 587 420.999 579 427.999 571 c 0
 434.999 564 440.999 556 440.999 554 c 1
 441.999 551 443.999 546 445.999 542 c 0
 447.999 539 451.999 531 453.999 524 c 0
 455.999 518 457.999 512 457.999 511 c 0
 457.999 510 459.999 506 462.999 502 c 0
 465.999 498 467.999 494 467.999 492 c 0
 467.999 490 466.999 487 464.999 484 c 2
 463.999 481 460.999 477 458.999 474 c 0
 456.999 472 452.999 470 449.999 469 c 0
 447.999 468 441.999 467 436.999 467 c 1
 432.999 466 425.999 465 422.999 464 c 0
 418.999 462 412.999 461 407.999 461 c 0
 402.999 461 398.999 462 397.999 463 c 1
 397.999 463 393.999 465 389.999 466 c 0
 385.999 467 380.999 469 378.999 470 c 0
 376.999 471 372.999 472 369.999 473 c 1
 367.999 473 363.999 475 361.999 477 c 0
 359.999 480 356.999 486 354.999 492 c 0
 352.999 498 350.999 504 348.999 506 c 1
 347.999 508 344.999 514 342.999 519 c 0
 339.999 525 335.999 531 331.999 535 c 0
 325.999 541 323.999 542 316.999 543 c 0
 312.999 543 307.999 544 303.999 545 c 0
 300.999 546 295.999 547 292.999 548 c 0
 289.999 549 285.999 549 282.999 548 c 0
 280.999 547 276.999 544 274.999 541 c 0
 272.999 538 269.999 532 268.999 527 c 0
 267.999 522 265.999 515 264.999 511 c 1
 264.999 507 263.999 500 263.999 496 c 0
 263.999 492 264.999 485 265.999 482 c 0
 267.999 477 267.999 472 267.999 464 c 1
 266.999 458 265.999 446 264.999 438 c 0
 262.999 427 262.999 417 262.999 406 c 0
 263.999 396 263.999 387 264.999 384 c 2
 264.999 382 266.999 377 268.999 374 c 1
 270.999 369 273.999 367 279.999 364 c 0
 284.999 362 292.999 360 297.999 359 c 1
 304.999 359 311.999 357 317.999 354 c 0
 323.999 351 333.999 346 341.999 343 c 0
 351.999 338 357.999 336 363.999 335 c 0
 367.999 335 373.999 334 376.999 333 c 1
 378.999 331 381.999 330 381.999 329 c 1
 382.999 329 387.999 326 392.999 324 c 0
 398.999 322 403.999 319 405.999 317 c 1
 406.999 315 412.999 311 418.999 308 c 1
 426.999 302 428.999 300 431.999 292 c 0
 433.999 287 436.999 281 439.999 278 c 0
 442.999 275 446.999 271 447.999 268 c 2
 449.999 266 452.999 258 455.999 251 c 1
 457.999 243 460.999 236 462.999 234 c 1
 463.999 232 464.999 227 465.999 224 c 0
 466.999 221 466.999 216 467.999 213 c 1
 467.999 210 468.999 199 469.999 188 c 0
 470.499 181 470.749 175.5 470.749 170.625 c 0
 470.749 165.75 470.499 161.5 469.999 157 c 0
 468.999 151 466.999 145 466.999 143 c 1
 465.999 142 462.999 134 458.999 126 c 0
 454.999 119 451.999 110 450.999 106 c 0
 449.999 103 447.999 98 445.999 96 c 0
 443.999 94 439.999 88 437.999 84 c 0
 434.999 80 423.999 68 412.999 57 c 0
 401.999 46 390.999 37 389.999 37 c 0
 388.999 37 382.999 35 377.999 34 c 0
 371.999 32 366.999 29 362.999 25 c 1
 358.999 22 354.999 19 352.999 19 c 1
 350.999 18 344.999 17 338.999 15 c 0
 332.999 13 324.999 11 320.999 9 c 0
 315.999 6 311.999 6 299.999 6 c 0
 292.999 6 283.999 5 281.999 5 c 1
 278.999 4 274.999 2 271.999 -1 c 0
 268.999 -3 264.999 -10 261.999 -16 c 0
 257.999 -25 257.999 -26 258.999 -36 c 0
 259.999 -41 259.999 -47 258.999 -48 c 1
 258.999 -50 257.999 -56 257.999 -63 c 0
 257.999 -70 256.999 -77 255.999 -81 c 1
 253.999 -85 251.999 -88 248.999 -89 c 0
 246.999 -90 242.999 -91 240.999 -91 c 0
 238.999 -91 234.999 -90 232.999 -88 c 0
 231.999 -87 228.999 -83 226.999 -79 c 0
 224.999 -75 223.999 -69 223.999 -64 c 0
 223.999 -59 224.999 -53 225.999 -50 c 0
 226.999 -47 226.999 -37 227.999 -27 c 0
 227.999 -9 227.999 -9 223.999 -5 c 0
 220.999 -2 216.999 0 214.999 1 c 0
 212.999 2 208.999 2 204.999 1 c 0
 201.999 0 198.999 -1 197.999 -2 c 1
 197.999 -3 195.999 -3 193.999 -3 c 0
 191.999 -3 188.999 -2 187.999 -2 c 1
 185.999 -1 180.999 1 174.999 3 c 1
 169.999 6 160.999 8 154.999 8 c 1
 149.999 9 143.999 9 141.999 10 c 2
 139.999 10 135.999 13 131.999 17 c 1
 127.999 20 120.999 25 116.999 26 c 0
 111.999 28 106.999 31 105.999 32 c 0
 103.999 34 98.999 36 94.999 37 c 0
 88.999 38 84.999 40 80.999 44 c 1
 77.999 48 75.999 51 75.999 52 c 0
 75.999 53 69.999 59 63.999 65 c 0
 53.999 74 49.999 79 45.999 88 c 0
 42.999 94 39.999 102 38.999 106 c 0
 37.999 110 36.999 114 35.999 115 c 0
 34.999 116 31.999 123 27.999 130 c 0
 21.1064 142.062 20.999 144 21.999 151 c 1
 21.999 156 22.999 163 23.999 167 c 0
 24.999 172 25.999 177 26.999 179 c 0
 27.999 181 30.999 184 31.999 185 c 0
 33.9014 186.902 35.8037 187.599 43.8213 187.599 c 0
 48.4502 187.599 55.1172 187.366 65 187 c 0
 75.667 187 87.2227 186.556 95.5186 186.556 c 0
 99.667 186.556 103 186.667 105 187 c 0
 112 187 118 186 120 185 c 0
 122 184 124 182 125 181 c 0
 126 180 129 176 130 172 c 2
 132 169 133 162 134 158 c 0
 135 153 138 143 141 135 c 0
 144 127 146 120 146 119 c 0
 146 118 153 112 161 104 c 0
 169 97 178 89 182 87 c 0
 187 84 190 84 200 84 c 0
 208 84 214 84 217 86 c 0
 219 87 221 90 222 92 c 0
 223 94 224 97 224 100 c 0
 224 102 225 107 227 111 c 0
 229 117 229 123 229 159 c 0
 229 195 229 200 227 205 c 1
 224 209 224 212 225 221 c 0
 225 228 226 236 227 241 c 0
 228 246 228 251 227 254 c 0
 226 257 224 261 223 262 c 2
 222 264 219 267 215 268 c 2
 212 270 202 273 194 275 c 0
 186 277 178 279 176 280 c 1
 175 281 168 284 161 286 c 0
 154 289 146 292 143 294 c 2
 133 299 l 1
 132 300 129 302 128 303 c 2
 126 304 122 307 117 309 c 0
 113 310 109 313 107 315 c 0
 106 316 101 319 96 321 c 0
 92 323 86 327 83 330 c 0
 80 333 75 339 72 343 c 0
 69 347 65 352 62 355 c 0
 60 357 56 364 53 369 c 1
 51 374 47 382 46 386 c 0
 45 390 44 394 43 395 c 1
 43 395 42 398 42 400 c 0
 42 403 41 410 39 417 c 0
 37 426 36 435 36 449 c 0
 36 460 37 470 38 473 c 2
 38 475 40 482 41 489 c 0
 42 501 43 503 49 512 c 0
 52 517 56 524 57 527 c 2
 59 530 60 534 61 536 c 0
 62 538 66 543 69 548 c 0
 72 552 76 559 79 565 c 0
 81 570 86 576 88 579 c 1
 91 581 96 585 101 587 c 1
 105 590 110 592 111 593 c 0
 112 594 118 597 123 600 c 0
 128 603 134 607 137 608 c 1
 139 610 144 612 146 612 c 1
 149 613 153 614 156 616 c 0
 158 617 163 619 166 621 c 1
 170 622 175 623 179 624 c 1
 182 624 187 626 190 627 c 0
 193 628 199 629 203 629 c 0
 207 629 213 630 215 631 c 2
 217 631 221 634 223 635 c 1
 224 637 227 641 228 643 c 0
 230 647 231 651 230 667 c 0
 230 684 231 688 233 693 c 0
 234 697 238 702 241 704 c 0
EndSplineSet
Validated: 33
EndChar

StartChar: uni0027
Encoding: 39 39 8
Width: 291
GlyphClass: 2
Flags: W
LayerCount: 2
Fore
SplineSet
149 718 m 0
 156.778 718.707 168.058 719.414 177.532 719.414 c 0
 181.457 719.414 185.072 719.293 188.001 719 c 0
 199.001 719 210.001 718 213.001 717 c 0
 216.001 716 220.001 714 222.001 711 c 0
 224.001 709 226.001 705 226.001 703 c 0
 226.001 701 223.001 695 221.001 689 c 1
 218.001 684 214.001 676 213.001 672 c 2
 211.001 668 209.001 663 209.001 660 c 1
 208.001 658 207.001 653 205.001 650 c 0
 203.001 647 202.001 644 201.001 643 c 1
 200.001 643 199.001 639 198.001 635 c 0
 197.001 630 194.001 624 191.001 620 c 0
 188.001 617 186.001 613 186.001 612 c 0
 186.001 611 184.001 607 181.001 604 c 0
 178.001 600 174.001 594 172.001 590 c 0
 170.001 586 168.001 582 168.001 581 c 0
 168.001 580 167.001 579 166.001 578 c 0
 165.001 577 164.001 572 162.001 568 c 1
 161.001 563 159.001 556 158.001 552 c 0
 157.001 548 153.001 541 151.001 536 c 1
 148.001 531 141.001 521 135.001 515 c 0
 125.001 504 123.001 502 117.001 501 c 0
 115.829 500.707 114.229 500.586 112.324 500.586 c 0
 107.729 500.586 101.364 501.293 95 502 c 0
 85 503 77 505 73 507 c 0
 70 508 66 511 65 513 c 2
 63.5361 514.464 62.6084 515.928 62.6084 519.746 c 0
 62.6084 521.144 62.7324 522.856 63 525 c 0
 63 531 64 536 65 537 c 0
 66 538 67 542 68 545 c 0
 69 549 72 557 75 562 c 0
 78 568 80 576 81 579 c 1
 81 583 83 589 85 594 c 1
 86 599 87 605 88 608 c 1
 88 611 89 617 90 622 c 1
 92 626 93 633 93 636 c 0
 93 641 95 646 98 653 c 0
 100 658 104 669 107 678 c 0
 109 686 112 695 113 697 c 0
 114 700 115 702 115 703 c 0
 115 704 117 706 119 709 c 0
 121 711 124 713 126 714 c 1
 128 716 138 717 149 718 c 0
EndSplineSet
Validated: 1
EndChar

StartChar: uni0028
Encoding: 40 40 9
Width: 278
GlyphClass: 2
Flags: W
LayerCount: 2
Fore
SplineSet
165 782 m 0
 168.66 783.464 172.32 784.392 178.727 784.392 c 0
 181.071 784.392 183.784 784.268 187 784 c 0
 198 783 204 782 209 780 c 1
 212 778 217 775 220 772 c 0
 222 769 224 766 224 764 c 0
 224 762 222 754 219 746 c 0
 217 737 214 728 212 724 c 0
 210 721 209 715 208 711 c 1
 208 707 206 698 204 692 c 0
 202 686 199 676 199 669 c 1
 198 663 195 652 193 645 c 0
 190 638 188 630 187 629 c 2
 186 627 184 624 182 622 c 1
 181 620 180 614 179 610 c 1
 179 605 177 598 176 594 c 0
 175 589 172 581 171 576 c 0
 169 570 168 562 168 552 c 0
 168 545 167 536 167 532 c 1
 166 528 164 522 163 517 c 1
 160 509 160 507 162 498 c 0
 164 490 164 486 162 480 c 0
 161 476 159 471 158 468 c 1
 156 465 155 459 155 447 c 2
 155 408 l 2
 155 396 156 382 156 378 c 0
 157 373 157 367 156 361 c 1
 156 356 155 335 155 314 c 0
 156 286 156 274 158 272 c 1
 159 270 161 264 162 259 c 0
 163 253 164 244 164 237 c 1
 165 231 166 225 166 224 c 1
 167 223 169 219 170 214 c 0
 171 210 173 203 173 199 c 0
 173 194 176 188 179 182 c 0
 184 173 184 171 184 161 c 0
 184 154 185 145 186 141 c 1
 188 137 189 126 190 118 c 0
 191 109 192 102 193 99 c 1
 195 97 197 92 199 88 c 0
 200 85 203 77 205 71 c 1
 206 65 208 56 209 51 c 0
 210 47 212 42 213 41 c 0
 214 40 216 35 218 31 c 0
 220 26 222 20 223 18 c 0
 224 15 226 9 227 4 c 0
 228 0 228 -6 228 -9 c 0
 228 -14 227 -16 223 -20 c 0
 218 -26 218 -26 202 -27 c 0
 192 -28 179 -28 172 -28 c 0
 162 -27 157 -26 154 -24 c 0
 152 -23 148 -19 146 -15 c 0
 144 -11 141 -6 139 -3 c 0
 137 -1 135 4 135 7 c 1
 134 10 133 15 132 18 c 1
 132 20 130 24 130 26 c 1
 129 27 127 31 126 34 c 0
 125 38 122 45 121 50 c 2
 119 55 115 68 112 79 c 0
 108 90 102 106 99 115 c 0
 96 124 94 136 93 142 c 0
 92 150 91 155 89 157 c 0
 87 159 84 164 82 169 c 0
 79 175 78 179 78 190 c 0
 78 200 78 205 75 212 c 0
 73 217 71 224 70 228 c 0
 69 232 69 242 69 250 c 0
 69 259 68 267 66 273 c 0
 64 279 62 286 61 291 c 0
 60 295 57 304 55 309 c 0
 53 315 52 322 52 324 c 0
 52 327 53 332 54 337 c 0
 55 341 56 352 56 361 c 0
 57 374 56 378 54 382 c 0
 53 385 52 388 52 389 c 0
 52 391 53 395 55 399 c 0
 57 405 58 411 58 424 c 0
 58 436 58 443 60 446 c 1
 61 449 63 458 63 466 c 0
 64 474 65 482 66 485 c 1
 68 488 69 497 70 508 c 0
 70 519 72 530 73 535 c 0
 74 539 75 546 75 550 c 0
 75 553 76 559 78 561 c 1
 79 563 80 570 80 576 c 0
 81 585 82 589 85 596 c 0
 88 601 91 608 92 612 c 0
 93 616 96 621 98 624 c 0
 101 628 103 632 103 638 c 1
 104 642 106 648 107 651 c 1
 109 654 110 659 110 664 c 1
 109 669 110 675 112 678 c 0
 114 682 115 687 116 690 c 1
 116 692 117 695 118 696 c 0
 119 697 120 700 121 703 c 0
 122 706 124 712 127 716 c 1
 129 722 131 727 131 736 c 1
 132 742 134 751 136 756 c 0
 138 763 141 766 148 772 c 0
 154 777 161 781 165 782 c 0
EndSplineSet
Validated: 33
EndChar

StartChar: uni002A
Encoding: 42 42 11
Width: 509
GlyphClass: 2
Flags: W
LayerCount: 2
Fore
SplineSet
317 724 m 1
 324 724 l 1
 327 723 333 721 339 718 c 0
 344 715 350 712 352 710 c 1
 353 708 355 707 356 707 c 0
 357 707 361 704 364 701 c 0
 369 697 370 695 370 691 c 0
 370 688 368 682 366 677 c 0
 362 670 357 663 344 651 c 0
 334 641 324 630 320 625 c 0
 316 620 311 613 308 609 c 0
 305 606 301 600 300 597 c 0
 298 593 297 589 297 587 c 0
 297 585 298 582 300 580 c 0
 304 577 306 577 321 576 c 0
 331 576 342 577 346 577 c 1
 350 578 356 579 361 580 c 0
 365 581 373 584 380 586 c 0
 386 588 395 590 399 590 c 2
 403 591 411 590 416 589 c 0
 421 588 428 587 431 585 c 2
 434 584 437 581 439 579 c 1
 440 577 441 573 441 571 c 0
 441 569 439 564 438 561 c 0
 436 556 435 551 435 542 c 0
 435 532 434 529 432 525 c 0
 429 520 429 520 420 521 c 0
 415 521 399 522 385 524 c 0
 371 525 354 526 349 526 c 0
 342 526 336 527 333 529 c 1
 330 530 325 531 321 531 c 0
 315 531 313 530 310 527 c 0
 308 524 307 521 307 517 c 0
 307 513 308 507 311 502 c 2
 313 497 317 490 320 487 c 0
 323 483 326 480 326 479 c 0
 326 478 330 473 336 467 c 0
 341 461 348 453 351 450 c 0
 354 447 359 441 361 438 c 0
 363 434 366 430 367 428 c 1
 369 426 370 422 370 419 c 0
 370 416 369 412 366 409 c 0
 364 406 359 402 355 398 c 1
 351 395 343 391 338 389 c 0
 332 387 325 385 322 385 c 0
 319 385 314 386 312 387 c 0
 309 388 306 391 305 393 c 0
 304 395 303 400 302 404 c 0
 301 408 300 414 298 416 c 2
 297 418 295 421 293 423 c 1
 292 425 289 430 288 433 c 2
 286 436 284 441 284 445 c 1
 283 448 281 454 279 458 c 0
 276 462 274 469 272 473 c 2
 271 477 268 482 266 484 c 0
 263 487 259 489 252 490 c 2
 246 492 242 492 240 491 c 0
 238 490 236 487 235 485 c 2
 233 483 232 478 231 474 c 0
 230 470 226 459 222 451 c 0
 218 443 214 434 214 432 c 1
 213 430 212 427 211 425 c 1
 210 424 208 419 206 415 c 1
 205 411 203 406 202 403 c 0
 201 401 198 397 195 394 c 0
 193 392 189 389 186 388 c 0
 182 387 178 387 171 389 c 0
 166 390 160 392 158 393 c 0
 156 394 152 397 149 399 c 0
 146 402 142 406 141 408 c 2
 139 410 138 414 138 417 c 0
 138 420 139 425 141 430 c 1
 144 435 148 441 153 445 c 0
 157 449 163 457 167 462 c 0
 170 467 174 473 177 476 c 0
 179 479 183 484 185 488 c 2
 195 502 l 1
 199 506 201 510 202 514 c 1
 202 525 l 1
 201 527 199 530 198 531 c 0
 195 533 190 533 171 532 c 0
 157 531 146 530 144 529 c 0
 142 528 134 527 127 526 c 0
 120 525 112 524 110 523 c 0
 107 521 101 520 96 519 c 0
 91 518 85 518 82 518 c 1
 74 522 l 1
 72 524 68 529 66 534 c 0
 62 542 61 545 61 556 c 0
 61 565 62 570 64 575 c 0
 66 579 69 584 72 586 c 2
 75 590 77 591 82 591 c 0
 85 591 91 592 95 593 c 0
 100 594 103 594 106 593 c 0
 108 592 111 590 114 589 c 1
 117 589 122 588 125 588 c 0
 128 588 137 586 144 583 c 0
 156 578 158 577 164 578 c 0
 168 579 175 579 181 579 c 0
 187 579 193 580 195 581 c 0
 198 582 200 584 201 586 c 0
 202 588 202 592 202 595 c 0
 202 598 202 603 201 605 c 0
 200 607 197 611 195 614 c 0
 192 617 186 622 181 626 c 0
 173 631 172 633 168 643 c 0
 165 652 163 655 158 659 c 0
 155 661 150 665 148 667 c 0
 146 670 143 676 141 682 c 0
 138 692 137 693 140 696 c 1
 141 699 143 701 145 702 c 2
 146 703 149 705 152 706 c 1
 154 708 157 710 158 711 c 2
 158 711 162 714 165 716 c 0
 168 718 173 721 175 722 c 1
 177 722 181 723 183 723 c 0
 186 723 190 722 193 721 c 0
 197 720 201 717 202 715 c 2
 204 713 207 708 208 705 c 2
 210 702 211 695 212 690 c 0
 213 682 214 678 219 669 c 0
 223 663 227 653 229 648 c 0
 231 643 235 635 237 631 c 0
 240 627 244 622 247 620 c 0
 249 618 254 617 256 617 c 0
 259 617 263 618 265 620 c 0
 268 622 271 626 273 634 c 2
 276 640 278 651 279 658 c 0
 280 668 281 672 286 680 c 0
 289 685 294 694 296 699 c 1
 299 704 302 709 304 711 c 1
 306 712 307 714 307 715 c 0
 307 716 308 718 310 720 c 1
 312 721 315 723 317 724 c 1
EndSplineSet
Validated: 33
EndChar

StartChar: uni002B
Encoding: 43 43 12
Width: 533
GlyphClass: 2
Flags: W
LayerCount: 2
Fore
SplineSet
247.996 498 m 0
 249.996 499 261 499 275 499 c 0
 298 499 298 499 305 493 c 0
 309 490 314 486 315 483 c 0
 317 479 317 473 317 459 c 0
 317 446 318 437 320 430 c 0
 322 419 322 419 319 409 c 0
 316 400 316 397 316 364 c 0
 316 344 317 326 317 323 c 1
 318 320 321 315 325 312 c 1
 331 306 331 306 352 306 c 0
 368 306 374 307 380 309 c 0
 386 311 391 312 404 311 c 0
 417 311 421 310 433 306 c 0
 446 301 447 301 453 302 c 0
 456 303 463 305 469 307 c 0
 476 309 479 309 487 307 c 0
 492 306 498 304 501 303 c 0
 503 302 506 299 507 296 c 2
 509 294 510 291 510 289 c 0
 510 288 509 282 507 277 c 0
 505 272 504 267 505 265 c 1
 505 263 506 253 506 241 c 0
 506 220 506 220 501 213 c 0
 498 210 494 206 492 205 c 0
 490 204 483 203 474 203 c 0
 464 203 457 202 452 200 c 0
 446 198 444 198 437 200 c 0
 433 201 415 202 396 203 c 0
 376 203 361 204 358 205 c 0
 356 206 351 207 347 207 c 0
 343 207 338 206 336 205 c 0
 333 203 330 201 328 200 c 0
 325 199 322 197 320 195 c 0
 316 192 316 192 316 137 c 0
 316 89 316 80 318 73 c 0
 320 66 321 63 319 59 c 0
 318 56 317 48 316 42 c 0
 315 33 314 28 312 25 c 2
 305 18 l 1
 300 15 296.998 15.0557 267 14 c 0
 259.092 13.7217 252.9 13.5859 247.996 13.5859 c 0
 236.157 13.5859 231.829 14.293 229.001 15 c 0
 226.001 16 222.001 19 220.001 21 c 0
 218.001 24 216.001 27 215.001 29 c 0
 214.001 31 212.001 36 211.001 40 c 1
 211.001 43 209.001 47 208.001 48 c 1
 208.001 49 207.001 53 207.001 57 c 0
 207.001 62 208.001 70 210.001 75 c 1
 211.001 80 213.001 88 214.001 92 c 0
 216.001 98 216.001 101 214.001 108 c 0
 213.001 113 212.001 118 212.001 120 c 0
 212.001 122 213.001 127 215.001 132 c 0
 217.001 139 217.001 143 217.001 150 c 1
 216.001 155 215.001 163 215.001 168 c 0
 215.001 173 214.001 179 213.001 181 c 0
 212.001 183 212.001 187 212.001 189 c 0
 212.001 192 210.001 195 208.001 197 c 0
 205.001 200 202.001 200 188.001 201 c 0
 180.001 202 162.001 203 148.001 203 c 0
 135.001 203 105.001 203 83.001 202 c 0
 42.001 202 41.001 202 36.001 205 c 1
 33.001 206 29.001 210 27.001 212 c 1
 24.001 217 24.001 217 24.001 254 c 0
 24.001 289 24.001 292 27.001 296 c 1
 28.001 299 33.001 303 37.001 306 c 1
 43.001 309 47.001 311 53.001 311 c 1
 59.001 312 62.001 311 67.001 309 c 0
 73.001 306 76.001 305 83.001 306 c 1
 88.001 306 94.001 308 97.001 309 c 0
 99.001 310 104.001 312 106.001 312 c 0
 108.001 312 112.001 310 115.001 309 c 0
 119.001 307 126.004 307.08 155.001 306 c 0
 162.324 305.728 168.616 305.586 173.955 305.586 c 0
 186.844 305.586 194.172 306.293 197 307 c 0
 201 308 205 310 208 312 c 0
 212 316 212 316 212 328 c 0
 212 335 211 342 210 345 c 0
 209 348 209 351 209 353 c 0
 209 355 211 360 212 365 c 0
 214 372 214 378 213 391 c 0
 213 400 212 411 211 415 c 0
 209 420 209 425 210 440 c 0
 211 451 212 466 212 473 c 0
 212 484 213 488 215 491 c 0
 216 493 219 496 222 496 c 2
 224 497 230 498 235 497 c 1
 240 497 245.996 497 247.996 498 c 0
EndSplineSet
Validated: 33
EndChar

StartChar: uni002C
Encoding: 44 44 13
Width: 202
GlyphClass: 2
Flags: W
LayerCount: 2
Fore
SplineSet
121 115 m 1
 126 116 131 117 137 117 c 0
 142 117 150 115 154 114 c 0
 159 113 165 111 168 111 c 1
 171 110 175 108 178 106 c 0
 181 103 182 100 182 97 c 0
 182 94 181 89 179 85 c 0
 177 82 175 76 173 73 c 2
 168 63 l 1
 167 62 165 59 164 57 c 2
 163 56 159 49 157 42 c 0
 155 36 153 29 153 28 c 0
 153 27 149 21 145 16 c 0
 141 11 137 3 136 -1 c 0
 134 -6 132 -11 131 -14 c 1
 129 -16 126 -21 125 -25 c 2
 123 -28 121 -33 120 -37 c 0
 119 -40 116 -46 112 -49 c 1
 108 -53 105 -59 103 -61 c 1
 102 -64 101 -69 100 -72 c 1
 100 -75 98 -79 97 -82 c 0
 96 -84 93 -88 91 -89 c 1
 89 -91 86 -93 85 -94 c 1
 83 -95 77 -97 71 -98 c 0
 65 -99 53 -99 43 -99 c 0
 27 -99 26 -99 23 -96 c 0
 21 -93 20 -89 20 -78 c 0
 20 -65 21 -62 24 -55 c 0
 26 -50 29 -43 31 -40 c 1
 32 -36 35 -28 38 -22 c 1
 40 -15 43 -7 44 -3 c 0
 45 2 46 9 48 15 c 0
 49 20 52 29 54 34 c 0
 56 40 58 47 59 50 c 0
 60 53 61 58 62 61 c 1
 62 64 63 70 64 75 c 1
 66 79 67 84 67 86 c 0
 67 88 69 93 70 96 c 0
 72 100 75 105 78 107 c 2
 80 110 84 112 86 113 c 1
 102 113 l 2
 111 112 115 112 121 115 c 1
EndSplineSet
Validated: 33
EndChar

StartChar: uni002F
Encoding: 47 47 16
Width: 363
GlyphClass: 2
Flags: W
LayerCount: 2
Fore
SplineSet
287 664 m 2
 290 665 297.001 666 301.001 666 c 0
 307.001 666 311.001 665 321.001 660 c 0
 327.001 657 334.001 652 336.001 650 c 0
 338.001 648 339.001 644 339.001 642 c 0
 339.001 640 338.001 634 335.001 629 c 1
 333.001 624 331.001 619 331.001 617 c 0
 331.001 616 329.001 612 327.001 609 c 0
 325.001 605 323.001 599 322.001 592 c 0
 321.001 583 319.001 578 314.001 568 c 0
 310.001 562 306.001 553 305.001 549 c 0
 304.001 545 302.001 539 301.001 536 c 1
 299.001 533 298.001 530 297.001 530 c 1
 296.001 529 295.001 526 294.001 521 c 0
 293.001 517 292.001 513 291.001 512 c 0
 290.001 511 289.001 506 288.001 501 c 2
 286.001 497 283.001 489 281.001 484 c 1
 278.001 479 276.001 473 275.001 469 c 1
 275.001 464 272.001 456 270.001 450 c 1
 267.001 444 263.001 438 262.001 436 c 1
 260.001 434 258.001 429 258.001 426 c 1
 257.001 423 255.001 414 252.001 406 c 0
 249.001 398 247.001 390 247.001 387 c 0
 247.001 385 244.001 377 240.001 370 c 0
 237.001 363 233.001 356 232.001 353 c 1
 230.001 351 229.001 348 229.001 346 c 0
 229.001 344 227.001 339 224.001 335 c 0
 221.001 331 218.001 322 215.001 315 c 1
 213.001 307 212.001 300 212.001 299 c 0
 212.001 297 211.001 295 210.001 293 c 1
 208.001 291 207.001 289 206.001 287 c 1
 206.001 284 204.001 280 203.001 277 c 0
 201.001 273 199.001 267 199.001 263 c 1
 198.001 259 196.001 251 193.001 246 c 0
 190.001 240 188.001 235 188.001 234 c 0
 188.001 232 186.001 227 183.001 222 c 1
 181.001 217 177.001 208 175.001 203 c 1
 174.001 198 170.001 191 168.001 188 c 0
 166.001 185 164.001 179 163.001 175 c 1
 163.001 170 161.001 164 160.001 161 c 1
 158.001 158 157.001 153 157.001 151 c 0
 157.001 149 156.001 144 154.001 140 c 2
 153.001 136 149.001 130 146.001 126 c 0
 142.001 120 140.001 115 140.001 108 c 1
 138.001 98 l 2
 138.001 97 136.001 93 134.001 89 c 0
 132.001 86 129.001 79 128.001 75 c 0
 127.001 71 124.001 65 122.001 62 c 0
 120.001 59 118.001 53 117.001 48 c 0
 117.001 44 115.001 37 114.001 33 c 1
 112.001 29 110.001 24 109.001 22 c 1
 107.001 20 106.001 18 106.001 17 c 0
 106.001 16 104.001 13 102.001 11 c 0
 99.001 8 94.001 5 89.001 4 c 0
 84.6084 2.53613 80.2158 1.6084 70.3311 1.6084 c 0
 66.7129 1.6084 62.3594 1.74512 57 2.00098 c 0
 35.002 3.05078 31 4.00098 28 6.00098 c 0
 26 8.00098 25 11.001 24 21.001 c 0
 23.707 23.9297 23.5859 26.2578 23.5859 28.1865 c 0
 23.5859 32.8438 24.293 35.1719 25 38 c 1
 27 40 30 48 32 56 c 2
 35 63 37 71 37 73 c 0
 37 75 39 82 42 88 c 0
 45 94 48 100 49 101 c 1
 50 103 52 108 54 114 c 0
 55 119 57 125 58 127 c 1
 59 128 62 133 64 137 c 0
 67 141 70 147 70 150 c 1
 71 154 73 159 74 161 c 0
 75 164 77 169 77 173 c 1
 78 177 81 186 84 193 c 0
 87 200 90 207 91 208 c 1
 96 218 l 1
 97 222 100 230 102 235 c 1
 103 240 105 249 106 253 c 0
 107 258 109 265 110 267 c 0
 112 270 115 277 118 283 c 0
 121 289 123 294 123 295 c 0
 123 296 125 300 127 304 c 0
 129 308 132 316 134 323 c 0
 135 329 137 335 137 337 c 0
 137 338 139 342 142 346 c 0
 145 350 147 355 148 360 c 0
 149 364 152 373 155 378 c 0
 158 384 161 389 162 390 c 1
 162 391 164 396 165 401 c 2
 167 406 168 414 169 417 c 0
 170 421 174 428 177 434 c 0
 180 439 183 447 183 451 c 1
 184 455 186 462 189 467 c 1
 191 473 194 480 195 484 c 0
 196 488 198 495 200 500 c 0
 201 504 204 512 207 517 c 0
 209 521 214 533 218 543 c 0
 222 555 225 564 225 568 c 0
 225 572 226 576 227 579 c 0
 228 581 230 585 232 587 c 0
 234 589 235 592 235 593 c 0
 235 595 237 600 240 606 c 0
 243 612 247 621 249 627 c 0
 251 632 255 641 257 645 c 0
 259 650 262 655 265 657 c 1
 268 658 271 660 272 660 c 0
 274 660 276 661 278 661 c 1
 280 662 284 664 287 664 c 2
EndSplineSet
Validated: 1
EndChar

StartChar: uni0035
Encoding: 53 53 22
Width: 572
GlyphClass: 2
Flags: W
LayerCount: 2
Fore
SplineSet
97 742 m 1
 104 742 112 743.001 116 743.001 c 1
 120 742.001 126 741.001 128 739.001 c 1
 133 736.001 137 736.001 159 735.001 c 0
 178 735.001 189 735.001 202 737.001 c 0
 212 739.001 224 740.001 230 740.001 c 2
 237 741.001 241 740.001 245 738.001 c 0
 250 736.001 256 736.001 302 736.001 c 0
 311.914 735.733 320.464 735.609 327.881 735.609 c 0
 348.144 735.609 359.947 736.537 368 738.001 c 0
 376 739.001 390 740.001 398 740.001 c 0
 408 741.001 415 740.001 417 739.001 c 0
 419 738.001 425 737.001 431 736.001 c 0
 441 735.001 444 735.001 451 738.001 c 2
 456 739.001 461 741.001 461 741.001 c 2
 462 741.001 468 738.001 474 736.001 c 1
 480 733.001 486 728.001 489 725.001 c 0
 494 720.001 494 720.001 494 703.001 c 0
 494 691.001 493 684.001 492 680.001 c 1
 490 676.001 490 672.001 490 666.001 c 1
 491 660.001 491 656.001 489 653.001 c 1
 488 650.001 487 648.001 486 648.001 c 1
 484 646.001 l 1
 484 644.001 481 641.001 477 640.001 c 2
 471 636.001 470 636.001 455 637.001 c 0
 446 637.001 436 638.001 432 639.001 c 0
 426 641.001 426 641.001 418 637.001 c 0
 413 634.001 410 633.001 406 634.001 c 1
 403 634.001 396 636.001 392 639.001 c 1
 383 642.001 382 643.001 352 643.001 c 0
 341.386 643.367 334.12 643.6 328.684 643.6 c 0
 319.268 643.6 315.34 642.903 309 641.001 c 0
 302 639.001 293 638.001 286 638.001 c 0
 279 638.001 272 639.001 267 640.001 c 1
 260 643.001 255 643.001 230 643.001 c 0
 202 643.001 200 643.001 194 639.001 c 0
 191 637.001 186 633.001 183 630.001 c 0
 181 627.001 177 621.001 176 618.001 c 2
 174 615.001 172 606.001 172 598.001 c 0
 171 590.001 171 574.001 171 563.001 c 0
 171 551.001 173 540.001 174 536.001 c 0
 176 529.001 176 528.001 173 520.001 c 0
 171 515.001 168 508.001 168 506.001 c 2
 167 503.001 166 496.001 165 490.001 c 1
 165 484.001 164 478.001 163 477.001 c 0
 162 476.001 161 473.001 160 469.001 c 0
 159 464.001 158 462.001 160 457.001 c 0
 161 453.001 163 449.001 164 447.001 c 1
 166 445.001 170 442.001 174 440.001 c 0
 178 438.001 183 436.001 185 436.001 c 0
 187 436.001 194 439.001 201 443.001 c 0
 208 446.001 217 452.001 222 456.001 c 0
 226 460.001 233 466.001 238 469.001 c 0
 244 473.001 247 474.001 259 475.001 c 0
 266 476.001 275 476.001 277 476.001 c 1
 280 475.001 287 477.001 300 481.001 c 0
 310 485.001 320 488.001 323 488.001 c 0
 325 488.001 330 487.001 334 486.001 c 0
 338 485.001 345 483.001 350 483.001 c 1
 354 482.001 362 480.001 367 478.001 c 0
 371 476.001 378 473.001 381 473.001 c 1
 383 472.001 390 469.001 396 466.001 c 1
 402 464.001 410 461.001 414 460.001 c 1
 418 460.001 423 458.001 426 456.001 c 0
 428 454.001 432 449.001 434 446.001 c 0
 437 442.001 441 437.001 444 436.001 c 2
 447 434.001 451 432.001 455 431.001 c 0
 459 430.001 463 428.001 471 420.001 c 0
 480 412.001 484 406.001 491 393.001 c 0
 496 384.001 501 373.001 503 369.001 c 1
 504 365.001 506 359.001 506 355.001 c 1
 507 352.001 508 347.001 510 346.001 c 1
 511 344.001 513 341.001 514 339.001 c 1
 516 337.001 517 331.001 518 323.001 c 0
 518 316.001 519 309.001 521 306.001 c 1
 522 303.001 524 297.001 524 291.001 c 0
 524 286.001 526 279.001 527 276.001 c 0
 528 273.001 529 268.001 529 265.001 c 0
 529 262.001 528 257.001 527 253.001 c 0
 526 250.001 524 239.001 524 229.001 c 0
 523 219.001 522 209.001 521 207.001 c 0
 520 205.001 519 198.001 519 192.001 c 1
 518 186.001 517 180.001 516 178.001 c 1
 515 177.001 513 172.001 511 167.001 c 0
 509 162.001 507 155.001 506 152.001 c 1
 506 149.001 504 143.001 502 139.001 c 0
 500 135.001 499 131.001 498 131.001 c 1
 498 130.001 496 127.001 493 124.001 c 0
 491 121.001 489 116.001 489 113.001 c 1
 488 111.001 486 105.001 484 101.001 c 0
 482 97.001 478 91.001 475 89.001 c 2
 473 86.001 470 84.001 470 84.001 c 1
 469 84.001 466 82.001 462 79.001 c 0
 459 76.001 455 73.001 454 71.001 c 0
 453 68.001 451 65.001 448 63.001 c 0
 446 62.001 441 57.001 436 53.001 c 0
 431 50.001 425 44.001 422 42.001 c 1
 420 39.001 417 37.001 416 37.001 c 1
 416 37.001 413 35.001 411 33.001 c 0
 408 31.001 403 28.001 399 26.001 c 1
 395 25.001 391 23.001 389 22.001 c 1
 388 21.001 379 17.001 370 12.001 c 0
 353 3.00098 353 3.00098 331 3.00098 c 0
 314 2.00098 308 2.00098 304 0.000976562 c 0
 301 -1.99902 297 -2.99902 295 -2.99902 c 0
 292 -2.99902 287 -3.99902 283 -5.99902 c 1
 279.404 -6.89844 277.223 -7.39355 275.184 -7.39355 c 0
 272.687 -7.39355 270.404 -6.65137 266 -5 c 2
 250 -1 l 2
 245 1 236 2 216 2 c 0
 190 2 190 2 177 8 c 0
 170 12 159 16 154 19 c 0
 149 22 142 25 140 27 c 0
 137 29 133 31 130 31 c 1
 127 32 122 34 119 36 c 0
 116 38 111 43 107 47 c 1
 104 51 100 54 99 54 c 0
 98 54 89 62 79 72 c 0
 70 81 60 92 58 95 c 0
 56 98 52 105 50 111 c 0
 49 116 45 123 43 125 c 0
 41 128 37 134 35 138 c 0
 33 143 32 149 32 152 c 0
 32 156 33 160 34 163 c 0
 35 165 39 169 43 173 c 0
 46 176 51 179 52 180 c 1
 54 181 60 182 66 182 c 0
 71 182 78 181 83 180 c 1
 89 177 90 177 97 180 c 0
 101 181 107 182 110 182 c 0
 114 182 120 181 123 180 c 0
 129 178 130 178 136 180 c 0
 140 181 144 182 145 182 c 0
 146 182 151 180 156 178 c 0
 161 176 167 172 168 170 c 2
 170 168 173 164 175 161 c 1
 176 158 178 154 178 152 c 0
 178 150 179 147 181 144 c 0
 183 141 186 137 189 134 c 0
 192 132 196 127 199 123 c 0
 202 119 205 115 206 114 c 1
 206 113 209 109 212 106 c 0
 216 102 221 98 224 97 c 2
 227 95 232 94 235 94 c 0
 238 94 244 95 248 96 c 0
 254 97 259 97 268 96 c 0
 278 94 281 94 288 96 c 0
 292 97 301 99 307 100 c 0
 313 101 320 103 325 105 c 0
 330 107 336 111 339 114 c 0
 342 117 347 121 349 123 c 0
 350 124 354 128 356 131 c 0
 358 135 360 139 361 140 c 2
 375 167 l 2
 387 192 387 192 387 205 c 0
 387 212 388 221 389 225 c 0
 390 228 390 233 390 235 c 1
 389 237 391 243 393 248 c 0
 397 257 397 258 395 264 c 0
 394 267 393 270 392 271 c 1
 392 272 388 280 385 289 c 0
 380 302 379 307 379 315 c 0
 379 320 378 326 377 329 c 1
 377 331 373 335 370 339 c 0
 367 342 363 347 361 351 c 0
 359 354 354 359 351 361 c 0
 347 363 342 367 339 370 c 0
 337 372 332 376 329 377 c 2
 326 379 320 382 316 384 c 0
 311 387 303 389 295 390 c 0
 288 390 278 391 272 391 c 1
 267 390 260 389 257 388 c 1
 254 386 249 385 245 384 c 1
 240 384 235 382 230 379 c 0
 226 376 220 373 217 372 c 0
 214 371 210 368 207 365 c 0
 204 362 201 358 201 357 c 1
 200 356 199 353 197 351 c 2
 196 349 193 344 190 341 c 1
 188 337 184 331 182 327 c 0
 179 322 176 318 173 316 c 0
 169 314 162 314 112 314 c 0
 59 315 55 315 51 317 c 1
 49 319 46 322 45 324 c 0
 43 327 42 332 42 345 c 0
 41 355 42 364 43 369 c 0
 45 375 45 379 44 392 c 0
 43 401 42 410 42 412 c 1
 41 415 42 420 43 424 c 2
 43 428 45 436 46 441 c 0
 48 449 49 463 49 516 c 0
 50 576 50 582 53 589 c 0
 55 596 55 600 55 611 c 0
 55 618 54 626 53 628 c 1
 52 632 53 636 55 648 c 0
 59 662 59 663 57 673 c 0
 56 679 55 687 54 691 c 0
 53 695 53 703 54 712 c 0
 54 725 55 727 59 731 c 0
 61 733 65 735 68 736 c 1
 71 736 76 738 79 739 c 0
 82 740 90 741 97 742 c 1
EndSplineSet
Validated: 33
EndChar

StartChar: uni0036
Encoding: 54 54 23
Width: 574
GlyphClass: 2
Flags: W
LayerCount: 2
Fore
SplineSet
316 376 m 1
 314 377 311 378 309 378 c 1
 307 377 304 377 301 375 c 0
 299 374 293 373 288 373 c 0
 283 373 276 372 271 371 c 0
 267 370 260 368 257 367 c 1
 253 367 246 364 242 361 c 0
 238 358 230 352 225 347 c 0
 220 343 215 337 214 335 c 0
 213 333 211 329 209 327 c 1
 208 325 205 320 204 316 c 1
 202 312 199 305 196 300 c 0
 194 296 190 287 188 282 c 0
 186 277 185 271 185 268 c 0
 185 266 186 261 187 257 c 0
 189 251 189 249 188 244 c 1
 186 240 186 235 187 228 c 2
 187 222 188 205 189 191 c 0
 190 165 190 165 195 156 c 0
 198 150 201 144 201 142 c 1
 202 139 206 134 212 128 c 0
 218 123 227 115 232 111 c 0
 238 107 247 102 254 100 c 0
 260 98 268 95 272 95 c 1
 275 94 282 92 286 91 c 0
 290.393 89.5361 294.249 88.6084 297.177 88.6084 c 0
 298.249 88.6084 299.196 88.7324 300 89 c 2
 303 89 308 91 310 92 c 0
 312 93 318 94 323 94 c 0
 328 94 334 95 336 96 c 0
 339 97 344 100 347 103 c 0
 349 106 353 109 355 110 c 0
 357 111 364 117 370 123 c 0
 377 129 385 138 388 143 c 2
 392 147 395 154 396 157 c 0
 397 161 399 166 400 169 c 1
 402 172 403 181 404 192 c 0
 405 201 406 214 407 219 c 0
 408.464 224.124 409.392 229.784 409.392 239.119 c 0
 409.392 242.536 409.268 246.445 409 251 c 0
 409 272 408 273 403 285 c 0
 400 292 397 301 397 305 c 1
 396 309 395 313 393 315 c 1
 392 317 389 321 387 325 c 0
 384 330 375 340 366 349 c 0
 352 362 348 366 343 367 c 0
 341 367 337 368 337 369 c 1
 336 370 331 371 327 372 c 0
 322 374 317 375 316 376 c 1
272 736 m 0
 282 741 282 741 321 741 c 0
 355 741 359 740 366 738 c 0
 372 736 378 735 386 735 c 0
 397 735 398 735 412 728 c 0
 419 724 428 719 430 717 c 0
 432 715 437 713 441 712 c 1
 445 712 452 709 456 707 c 0
 461 704 466 701 468 700 c 1
 469 698 472 696 474 695 c 2
 480 692 l 1
 481 691 484 688 486 685 c 1
 489 683 492 680 493 678 c 2
 494 677 497 671 500 665 c 0
 503 660 508 651 510 646 c 0
 512 641 515 633 518 628 c 2
 520 623 525 615 528 610 c 0
 532 604 534 599 534 596 c 0
 534 593 534 589 533 587 c 0
 532 585 530 581 527 578 c 0
 525 575 521 572 519 570 c 1
 515 568 511 567 464 567 c 0
 414 567 414 567 405 572 c 0
 400 575 395 579 394 580 c 1
 389 590 l 2
 388 593 386 600 385 604 c 1
 385 609 383 613 382 615 c 1
 380 617 377 619 374 621 c 1
 371 622 367 624 365 625 c 0
 363 626 360 627 359 628 c 2
 357 629 354 631 351 633 c 0
 347 636 344 637 331 637 c 0
 323 638 314 639 311 640 c 0
 308 641 299 642 291 643 c 0
 277 643 277 643 267 636 c 0
 261 632 253 628 248 626 c 0
 242 624 236 621 233 619 c 0
 231 618 225 613 221 609 c 0
 216 604 214 601 212 595 c 0
 211 591 208 582 206 575 c 0
 205 568 202 556 201 549 c 0
 200 542 198 531 197 526 c 0
 196 521 194 515 193 512 c 0
 192 510 189 504 187 499 c 0
 184 491 184 488 184 462 c 0
 184 436 184 433 187 430 c 1
 189 426 192 425 199 424 c 0
 207 422 207 422 219 428 c 0
 225 431 232 434 234 435 c 1
 235 436 240 440 244 443 c 0
 248 446 253 450 255 451 c 0
 257 452 260 453 262 453 c 1
 264 454 273 458 282 462 c 0
 297 470 297 470 316 471 c 0
 327 472 340 472 345 472 c 0
 350 472 362 472 372 471 c 0
 389 470 390 470 395 465 c 1
 399 463 408 459 417 455 c 0
 427 452 437 447 444 443 c 1
 449 439 457 434 459 431 c 1
 471 423 l 2
 475 421 483 414 488 408 c 0
 494 402 500 395 502 391 c 0
 503 388 506 383 509 379 c 0
 511 376 514 371 515 369 c 1
 517 367 519 360 520 354 c 1
 522 348 525 338 528 332 c 0
 531 326 534 320 534 319 c 2
 535 317 536 310 536 303 c 0
 536 294 537 287 539 280 c 0
 540 275 542 269 542 267 c 0
 542 264 543 257 545 252 c 1
 546 246 548 238 548 234 c 0
 548 229 547 224 546 222 c 1
 544 220 543 215 542 212 c 1
 542 208 540 202 538 198 c 0
 536 194 534 185 532 179 c 1
 531 173 530 164 530 160 c 0
 530 153 529 149 526 143 c 0
 523 138 521 133 520 131 c 1
 520 129 517 124 515 121 c 0
 512 118 508 111 505 107 c 0
 502 102 497 94 495 89 c 1
 492 84 489 79 486 78 c 1
 484 76 477 70 470 64 c 1
 464 57 454 49 449 46 c 0
 444 42 439 39 439 38 c 1
 438 38 436 36 433 34 c 0
 431 32 428 31 428 31 c 1
 427 31 421 28 413 24 c 0
 406 20 398 16 396 13 c 1
 393 11 388 8 384 6 c 1
 380 5 373 3 368 2 c 1
 363 2 357 0 354 -1 c 0
 351 -2 344 -3 337 -3 c 0
 328 -3 322 -4 315 -6 c 0
 310.562 -7.90234 307.732 -8.59863 304.217 -8.59863 c 0
 302.187 -8.59863 299.928 -8.36621 297 -8 c 0
 292 -8 280 -7 269 -7 c 0
 259 -7 244 -6 237 -5 c 2
 229 -5 221 -3 214 0 c 0
 208 3 196 7 188 10 c 0
 181 12 171 16 168 19 c 1
 164 21 158 25 154 26 c 1
 150 28 142 32 136 36 c 0
 130 39 122 45 119 49 c 0
 116 52 110 59 106 65 c 0
 103 70 98 76 96 79 c 0
 94 82 89 90 86 97 c 0
 82 104 77 115 75 122 c 0
 73 129 70 135 69 137 c 1
 68 138 67 140 66 142 c 1
 66 144 64 147 63 149 c 1
 62 150 61 153 60 156 c 1
 60 159 59 168 57 177 c 0
 56 185 55 194 54 195 c 1
 53 197 51 202 50 207 c 0
 49 212 46 218 44 221 c 0
 42 224 40 228 40 230 c 2
 39 232 40 237 41 240 c 0
 42 243 43 248 43 250 c 0
 43 251 42 255 41 257 c 0
 39 261 39 270 38 306 c 0
 38 330 38 357 39 365 c 0
 40 373 42 384 43 388 c 0
 44 393 45 399 45 401 c 0
 45 403 43 408 42 413 c 1
 39 421 39 421 42 428 c 0
 44 433 45 439 45 450 c 0
 45 463 45 465 49 472 c 0
 51 477 52 481 52 484 c 1
 51 487 52 491 53 493 c 1
 53 495 55 500 55 503 c 2
 56 507 58 518 59 528 c 0
 61 538 63 548 64 549 c 0
 65 550 66 555 68 561 c 0
 69 566 71 573 72 575 c 0
 74 578 78 584 82 589 c 0
 85 593 90 601 92 605 c 0
 95 610 96 614 96 616 c 0
 96 617 99 624 103 632 c 0
 107 640 111 648 112 651 c 1
 114 654 119 659 126 664 c 0
 134 670 139 675 143 680 c 0
 146 685 150 690 153 693 c 0
 155 695 167 701 178 707 c 0
 194 715 201 717 207 718 c 1
 212 718 218 720 219 721 c 2
 221 722 225 724 228 726 c 0
 232 728 238 730 248 730 c 0
 258 731 265 733 272 736 c 0
EndSplineSet
Validated: 33
EndChar

StartChar: uni0037
Encoding: 55 55 24
Width: 577
GlyphClass: 2
Flags: W
LayerCount: 2
Fore
SplineSet
58 724 m 1
 73.001 724 l 2
 82.001 724 86.001 724 91.001 721 c 1
 95.001 720 102.001 718 107.001 718 c 2
 114.001 717 118.001 718 125.001 720 c 0
 134.001 723 136.001 723 163.001 723 c 0
 179.001 723 196.001 722 202.001 721 c 0
 207.001 720 215.001 718 220.001 717 c 0
 227.001 716 232.001 716 239.001 717 c 0
 244.001 718 250.001 720 253.001 721 c 0
 256.001 722 262.001 723 266.001 723 c 0
 271.001 723 278.001 722 282.001 721 c 0
 287.001 720 289.001 720 294.001 722 c 0
 297.001 723 304.001 723 311.001 723 c 0
 318.001 723 328.001 722 334.001 721 c 0
 341.001 719 352.001 718 380.001 718 c 0
 410.001 718 418.001 719 423.001 721 c 0
 427.001 722 433.001 723 436.001 723 c 0
 440.001 723 447.001 722 452.001 720 c 0
 459.001 718 463.001 717 469.001 718 c 0
 473.001 718 479.001 720 482.001 721 c 0
 486.001 722 494.001 723 501.001 723 c 0
 512.001 723 513.001 723 519.001 718 c 0
 522.001 715 525.001 711 527.001 706 c 0
 529.001 700 530.001 693 530.001 660 c 0
 530.001 633 530.001 620 529.001 619 c 1
 528.001 617 525.001 612 523.001 607 c 0
 521.001 601 519.001 595 519.001 593 c 0
 519.001 591 518.001 587 516.001 584 c 1
 515.001 581 513.001 573 512.001 568 c 0
 511.001 562 509.001 555 508.001 553 c 0
 506.001 550 504.001 547 504.001 545 c 1
 503.001 544 501.001 541 500.001 540 c 0
 498.001 538 496.001 533 494.001 529 c 0
 491.001 524 490.001 519 490.001 516 c 0
 490.001 514 489.001 511 487.001 509 c 1
 486.001 507 484.001 501 483.001 495 c 0
 482.001 489 479.001 481 476.001 476 c 0
 474.001 472 469.001 460 465.001 451 c 0
 462.001 441 459.001 433 459.001 433 c 1
 459.001 432 457.001 428 454.001 424 c 0
 451.001 420 449.001 416 449.001 415 c 1
 449.001 415 446.001 409 443.001 402 c 0
 439.001 395 437.001 389 437.001 387 c 0
 437.001 386 436.001 382 435.001 379 c 1
 433.001 376 431.001 373 430.001 371 c 1
 428.001 369 425.001 363 423.001 356 c 0
 421.001 350 416.001 341 414.001 337 c 0
 411.001 333 409.001 328 409.001 327 c 1
 409.001 327 407.001 322 405.001 318 c 0
 403.001 314 400.001 306 399.001 301 c 0
 397.001 295 394.001 288 393.001 284 c 1
 391.001 281 390.001 276 389.001 273 c 1
 389.001 270 388.001 267 387.001 265 c 1
 386.001 264 384.001 257 382.001 251 c 2
 373.001 229 l 1
 370.001 224 366.001 216 364.001 211 c 0
 362.001 206 360.001 200 360.001 196 c 1
 359.001 192 358.001 189 357.001 189 c 1
 357.001 188 355.001 185 354.001 180 c 0
 353.001 176 351.001 171 350.001 168 c 0
 349.001 166 347.001 162 346.001 161 c 1
 345.001 159 343.001 154 340.001 149 c 0
 338.001 145 336.001 141 335.001 141 c 1
 335.001 141 332.001 137 330.001 131 c 1
 327.001 126 323.001 118 320.001 113 c 0
 317.001 109 314.001 103 313.001 99 c 1
 313.001 96 312.001 90 312.001 86 c 0
 312.001 81 311.001 78 311.001 77 c 1
 310.001 77 308.001 73 307.001 68 c 0
 306.001 63 302.001 55 299.001 50 c 0
 296.001 45 292.001 38 289.001 35 c 1
 287.001 31 285.001 24 284.001 19 c 0
 283.001 14 281.001 8 280.001 6 c 1
 278.001 4 273.001 1 268.001 -1 c 0
 261.334 -3.66699 259.111 -4.55566 251.853 -4.55566 c 0
 248.223 -4.55566 243.334 -4.33301 236.001 -4 c 0
 229.044 -3.68359 224.102 -3.40137 220.186 -3.40137 c 0
 213.402 -3.40137 209.706 -4.09766 204 -6 c 0
 195 -8 189 -9 170 -9 c 0
 149 -9 147 -9 139 -5 c 0
 135 -3 130 0 129 2 c 0
 128 4 126 8 126 11 c 2
 125 14 126 17 128 22 c 0
 130 26 132 30 133 31 c 0
 134 32 136 36 137 40 c 0
 138 44 140 50 141 54 c 1
 143 57 148 63 152 68 c 0
 158 75 160 79 161 83 c 0
 162 86 163 92 164 95 c 0
 166 99 168 106 170 110 c 0
 172 114 176 121 179 125 c 1
 181 130 184 136 185 140 c 0
 186 144 189 151 192 157 c 0
 195 162 197 167 197 168 c 0
 197 169 200 175 203 181 c 0
 206 187 209 193 211 195 c 1
 212 197 214 203 214 208 c 1
 215 213 216 219 217 221 c 0
 218 224 219 228 220 231 c 0
 221 235 223 239 228 244 c 0
 232 249 238 258 242 265 c 0
 247 274 249 280 250 286 c 1
 250 291 252 298 254 303 c 0
 256 307 258 313 259 315 c 0
 260 317 262 319 262 319 c 1
 262 319 265 322 267 326 c 0
 270 330 274 338 276 344 c 0
 278 350 280 356 280 358 c 0
 280 359 282 365 285 371 c 2
 287 377 291 384 293 386 c 1
 294 388 296 392 296 395 c 1
 297 399 298 401 299 402 c 1
 299 402 301 406 302 410 c 0
 303 415 305 421 308 423 c 1
 310 426 313 432 315 437 c 0
 317 441 319 448 319 452 c 1
 320 456 322 461 323 463 c 1
 325 465 327 468 328 470 c 2
 329 471 332 476 334 481 c 0
 336 486 340 495 343 502 c 0
 346 508 349 517 350 520 c 0
 351 524 353 530 354 535 c 1
 356 540 359 545 363 549 c 0
 367 553 372 561 375 566 c 0
 378 572 382 580 385 584 c 0
 388 588 390 593 390 595 c 0
 390 597 388 600 384 604 c 0
 381 607 373 612 368 615 c 0
 361 618 355 619 349 620 c 1
 341 620 337 620 330 617 c 1
 322 615 317 614 292 614 c 0
 266 614 261 615 254 617 c 0
 247 620 245 620 239 619 c 0
 236 618 233 616 232 616 c 1
 231 615 220 614 208 614 c 0
 191 614 185 615 182 616 c 1
 179 618 176 619 175 619 c 0
 174 619 171 618 169 617 c 0
 167 616 160 614 154 613 c 0
 149.333 613 140.222 612.556 129.926 612.556 c 0
 124.777 612.556 119.333 612.667 114 613 c 0
 91 613 85 613 81 611 c 1
 77 610 72 608 69 608 c 0
 65 608 60 610 58 611 c 0
 56 612 52 616 49 619 c 1
 47 623 43 630 41 636 c 0
 39 645 38 649 39 659 c 0
 39 666 40 673 41 674 c 1
 42 676 42 679 41 684 c 1
 39 688 38 694 38 697 c 0
 38 700 39 704 41 707 c 2
 42 710 46 715 49 718 c 0
 52 721 56 723 58 724 c 1
EndSplineSet
Validated: 33
EndChar

StartChar: uni0039
Encoding: 57 57 26
Width: 573
GlyphClass: 2
Flags: W
LayerCount: 2
Fore
SplineSet
314 640 m 0
 312 641 306 642 301 643 c 1
 295 643 287 643 281 641 c 1
 275 640 262 639 251 638 c 0
 235 637 231 636 223 633 c 0
 218 631 212 628 211 627 c 0
 210 626 207 622 203 617 c 0
 200 613 195 606 193 603 c 0
 191 599 187 594 185 592 c 0
 183 589 179 584 177 581 c 0
 175 578 172 572 171 568 c 0
 170 564 168 556 166 551 c 0
 163 542 163 539 164 524 c 0
 164 509 164 505 162 502 c 0
 160 499 160 493 160 488 c 0
 160 482 161 475 163 469 c 0
 165 463 169 456 172 452 c 0
 174 449 179 442 181 437 c 0
 183 432 186 426 187 424 c 0
 188 422 191 418 192 416 c 1
 194 414 196 413 197 413 c 0
 198 413 200 411 201 410 c 2
 209 402 l 2
 212 400 218 396 224 394 c 2
 229 391 237 389 241 388 c 0
 246 387 252 386 255 385 c 0
 258 384 266 384 272 384 c 0
 279 384 286 384 288 385 c 0
 291 386 297 387 302 388 c 0
 307 389 313 390 315 391 c 0
 318 393 322 394 325 395 c 1
 327 395 334 399 340 402 c 1
 345 406 351 410 353 412 c 1
 354 414 357 417 359 420 c 1
 360 423 364 430 367 435 c 0
 370 440 374 447 375 450 c 2
 377 453 379 459 380 465 c 0
 381 471 382 476 383 477 c 1
 385 491 l 1
 385 499 387 511 388 518 c 0
 388.707 523.657 389.414 529.314 389.414 532.85 c 0
 389.414 537.196 384.82 544.573 383 547 c 0
 380 552 379 557 379 560 c 0
 379 562 377 571 376 579 c 0
 374 588 372 597 370 599 c 1
 369 602 366 607 363 610 c 0
 360 613 355 618 351 619 c 1
 348 621 342 624 337 626 c 0
 333 628 326 631 323 634 c 0
 320 636 316 639 314 640 c 0
226 739 m 1
 228 740 234 741 241 741 c 0
 248 741 256 740 261 738 c 1
 267 737 274 736 287 736 c 2
 312 736 l 1
 317 737 324 737 328 736 c 2
 332 736 340 735 346 733 c 0
 352 731 359 729 362 729 c 0
 364 729 370 728 375 727 c 0
 380 726 386 725 388 725 c 0
 391 725 394 723 398 720 c 0
 401 717 406 713 410 711 c 0
 414 709 419 706 421 702 c 0
 423 699 431 692 438 687 c 0
 445 682 451 676 453 674 c 1
 454 671 461 664 467 658 c 0
 473 651 481 642 485 637 c 0
 492 628 492 626 493 616 c 0
 494 609 496 601 498 595 c 1
 501 590 503 585 504 584 c 1
 504 584 505 580 505 578 c 0
 505 575 506 570 507 567 c 0
 508 564 512 557 515 551 c 1
 522 542 523 540 523 532 c 0
 523 528 523 518 524 511 c 0
 525 503 526 496 527 494 c 0
 528 492 529 478 529 463 c 0
 529 442 530 434 532 429 c 0
 533 426 534 419 534 415 c 0
 534 410 533 405 532 402 c 1
 530 399 529 392 529 378 c 0
 528 362 529 356 531 349 c 0
 533 341 533 339 531 331 c 0
 530 326 529 316 528 308 c 0
 528 297 528 291 526 285 c 0
 524 280 523 273 523 265 c 0
 523 257 522 249 520 243 c 0
 518 237 515 231 514 228 c 0
 513 225 512 220 511 216 c 1
 511 212 510 207 508 204 c 1
 507 201 506 194 505 187 c 1
 505 178 504 172 502 168 c 0
 500 164 498 157 497 152 c 1
 497 147 495 141 493 138 c 2
 492 135 488 128 486 123 c 2
 476 102 l 2
 473 96 467 87 463 82 c 0
 459 77 453 69 450 64 c 0
 447 59 442 54 439 52 c 0
 436 50 432 48 432 48 c 1
 431 48 427 46 423 42 c 1
 419 39 412 35 406 33 c 0
 401 31 396 28 394 27 c 1
 393 25 391 23 390 22 c 0
 389 21 383 18 377 15 c 2
 359 6 l 2
 352 2 350 1 340 1 c 0
 333 1 324 0 320 -1 c 0
 316 -2 308 -3 301 -3 c 0
 293 -3 287 -4 281 -6 c 0
 277 -8 272 -9 270 -9 c 0
 269 -9 264 -8 261 -6 c 1
 255 -4 250 -3 214 -3 c 0
 177 -3 173 -3 169 -1 c 1
 167 1 164 3 162 5 c 0
 161 6 157 7 154 8 c 1
 151 8 145 11 140 13 c 1
 135 14 126 19 121 22 c 0
 116 25 108 29 104 31 c 0
 100 34 93 39 88 44 c 0
 83 49 75 57 71 62 c 0
 66 67 60 75 58 80 c 0
 56 85 54 90 54 91 c 0
 54 92 51 97 49 102 c 0
 46 109 44 115 43 121 c 0
 43 125 41 131 40 134 c 1
 38 137 38 143 38 151 c 0
 38 163 38 164 42 168 c 0
 44 170 48 172 52 173 c 0
 55 174 62 175 67 175 c 2
 88 175 l 2
 98 175 101 174 108 170 c 0
 112 168 117 166 118 166 c 0
 120 166 123 167 126 169 c 0
 129 171 132 173 134 174 c 0
 136 175 142 176 148 176 c 0
 157 176 158 176 167 170 c 0
 172 167 178 162 180 160 c 0
 183 158 185 152 187 148 c 1
 188 144 189 140 189 139 c 0
 189 138 191 134 194 131 c 0
 197 127 199 122 200 120 c 1
 200 118 201 116 202 115 c 1
 202 114 206 111 210 108 c 0
 214 105 222 100 226 98 c 0
 235 95 237 95 261 95 c 0
 284 95 287 95 293 98 c 0
 297 100 304 103 309 105 c 0
 314 107 318 109 319 109 c 1
 319 109 324 111 330 113 c 1
 335 116 342 119 346 121 c 0
 351 123 352 125 354 131 c 0
 355 135 357 140 359 142 c 2
 360 145 364 150 367 153 c 0
 370 157 374 161 375 164 c 2
 377 167 378 173 378 181 c 2
 379 188 380 195 380 197 c 1
 381 199 383 202 385 204 c 1
 386 206 388 210 389 214 c 0
 390 218 390 221 387 227 c 1
 385 234 384 238 385 252 c 0
 385 261 387 272 388 276 c 0
 390 282 390 290 390 304 c 0
 390 314 390 325 389 327 c 0
 388 329 386 331 383 332 c 0
 380 333 376 334 374 334 c 0
 372 334 367 332 364 329 c 0
 361 327 358 325 357 325 c 1
 357 325 352 322 348 319 c 1
 344 315 339 312 338 310 c 1
 336 309 334 307 332 305 c 1
 330 304 322 301 315 298 c 0
 305 293 301 292 288 291 c 0
 279 290 271 289 268 287 c 1
 263 285 262 285 257 286 c 1
 253 288 249 288 247 287 c 1
 244 287 233 286 221 285 c 0
 209 285 197 285 196 286 c 1
 194 286 190 288 187 290 c 0
 183 293 177 295 173 296 c 0
 168 297 159 300 152 302 c 1
 146 305 139 308 138 309 c 0
 137 310 134 312 131 313 c 2
 128 315 121 318 116 321 c 2
 111 323 103 329 98 334 c 0
 93 339 89 344 89 344 c 1
 89 345 87 348 85 351 c 0
 83 354 80 358 79 359 c 0
 77 361 76 363 74 364 c 1
 73 366 70 370 67 373 c 0
 64 377 60 382 58 385 c 1
 57 388 53 394 51 400 c 1
 48 405 46 410 45 412 c 1
 44 413 43 417 43 421 c 2
 42 425 41 432 40 437 c 1
 38 442 36 450 35 456 c 2
 33 461 31 469 29 475 c 0
 26 483 26 488 26 509 c 0
 26 530 26 535 29 543 c 0
 31 549 34 559 37 565 c 0
 40 573 42 581 43 588 c 1
 43 595 45 601 47 606 c 1
 49 609 54 617 57 622 c 2
 64 633 l 1
 64 634 71 642 79 650 c 0
 88 659 95 667 95 668 c 0
 95 669 101 677 109 685 c 0
 117 692 127 701 131 703 c 0
 135 705 140 708 142 708 c 1
 145 709 150 711 154 712 c 0
 157 713 162 716 163 717 c 0
 165 719 168 720 171 721 c 0
 173 722 178 723 181 724 c 1
 185 724 192 727 198 730 c 2
 204 732 212 735 215 736 c 1
 219 736 224 737 226 739 c 1
EndSplineSet
Validated: 33
EndChar

StartChar: uni003A
Encoding: 58 58 27
Width: 243
GlyphClass: 2
Flags: W
LayerCount: 2
Fore
SplineSet
91 125 m 0
 92.5 125.5 97.25 125.751 103.625 125.751 c 0
 110 125.751 118 125.501 126 125.001 c 0
 153 125.001 156 124.001 162 121.001 c 0
 166 119.001 170 116.001 172 114.001 c 0
 174 111.001 175 108.001 175 100.001 c 0
 175 95.001 174 88.001 174 86.001 c 2
 173 82.001 173 78.001 175 70.001 c 0
 176.464 64.1445 177.392 58.8242 177.392 53.2549 c 0
 177.392 51.2168 177.268 49.1445 177 47.001 c 0
 177 41.001 175 34.001 174 31.001 c 0
 173 28.001 169 24.001 165 20.001 c 0
 158 14.001 158 14.001 145 15.001 c 0
 138 16.001 129 16.001 126 16.001 c 0
 123 16.001 113 16.001 105 15.001 c 0
 97.9707 13.8291 93.6865 13.3438 90.3379 13.3438 c 0
 87.9707 13.3438 86.0713 13.5859 84 14 c 0
 81 15 76 18 74 21 c 0
 71 25 69 28 68 38 c 0
 67 43 66.5 46.25 66.5 48.875 c 0
 66.5 51.5 67 53.5 68 56 c 0
 70 60 71 69 72 85 c 0
 72 101 73 111 75 114 c 1
 76 117 78 120 81 121 c 2
 83 123 87 124 91 125 c 0
80 468.001 m 0
 84 472.001 88 475.001 90 475.001 c 0
 92 475.001 97 474.001 100 473.001 c 0
 104.393 471.537 109.856 470.609 120.315 470.609 c 0
 124.144 470.609 128.641 470.733 134 471.001 c 0
 158 471.001 160 471.001 166 468.001 c 0
 169 466.001 173 463.001 174 460.001 c 1
 177 456.001 177 453.001 176 437.001 c 0
 175 426.001 174 415.001 173 412.001 c 0
 171 408.001 171 404.001 171 401.001 c 1
 172 398.001 173 393.001 174 390.001 c 0
 175 384.001 175 383.001 173 378.001 c 0
 172 376.001 167 370.001 164 366.001 c 1
 157 359.001 157 359.001 148 360.001 c 2
 108 360.001 l 2
 77 360.001 77 360.001 74 364.001 c 0
 72 367.001 72 372.001 71 388.001 c 0
 71 399.001 70 412.001 69 417.001 c 1
 69 429.001 l 1
 70 431.001 71 439.001 72 447.001 c 0
 73 460.001 73 460.001 80 468.001 c 0
EndSplineSet
Validated: 41
EndChar

StartChar: uni003C
Encoding: 60 60 29
Width: 539
GlyphClass: 2
Flags: W
LayerCount: 2
Fore
SplineSet
489 565 m 1
 492 566 498 567.001 501 567.001 c 0
 506 567.001 508 566.001 511 564.001 c 1
 513 561.001 515 557.001 515 553.001 c 2
 515.5 551.501 515.75 546.501 515.75 539.626 c 0
 515.75 532.751 515.5 524.001 515 515.001 c 0
 514 492.001 513 483.001 512 479.001 c 1
 510 476.001 508 472.001 506 470.001 c 2
 505 468.001 499 464.001 493 461.001 c 0
 487 458.001 482 455.001 481 454.001 c 1
 481 454.001 476 451.001 470 449.001 c 0
 465 447.001 458 445.001 454 444.001 c 0
 450 443.001 443 441.001 439 439.001 c 0
 435 437.001 426 434.001 420 432.001 c 1
 414 431.001 405 428.001 401 426.001 c 0
 396 424.001 389 421.001 386 420.001 c 1
 383 418.001 377 415.001 373 414.001 c 0
 369 413.001 362 410.001 358 407.001 c 0
 351 403.001 348 402.001 343 402.001 c 0
 339 402.001 333 402.001 330 401.001 c 0
 327 400.001 321 397.001 316 395.001 c 1
 312 392.001 304 389.001 298 387.001 c 0
 293 386.001 286 384.001 282 383.001 c 1
 279 381.001 268 378.001 258 375.001 c 0
 248 373.001 237 369.001 233 368.001 c 0
 229 367.001 222 364.001 217 361.001 c 1
 212 359.001 203 356.001 198 355.001 c 1
 193 353.001 186 350.001 182 348.001 c 0
 179 346.001 176 342.001 175 339.001 c 0
 174 336.001 174 331.001 174 328.001 c 1
 175 325.001 177 322.001 185 316.001 c 0
 193 309.001 196 307.001 206 305.001 c 0
 212 304.001 221 303.001 226 302.001 c 1
 235 302.001 237 301.001 244 296.001 c 0
 249 293.001 256 289.001 264 287.001 c 0
 270 285.001 278 283.001 282 283.001 c 1
 285 282.001 289 281.001 291 280.001 c 0
 293 279.001 298 278.001 301 277.001 c 0
 304 276.001 314 273.001 322 269.001 c 0
 329 265.001 338 261.001 340 261.001 c 1
 343 260.001 347 259.001 351 257.001 c 0
 354 256.001 359 253.001 363 252.001 c 2
 367 250.001 372 248.001 375 248.001 c 1
 378 247.001 384 245.001 388 244.001 c 0
 393 242.001 397 240.001 398 239.001 c 1
 399 239.001 403 237.001 407 236.001 c 1
 411 236.001 419 233.001 425 230.001 c 0
 430 227.001 437 225.001 440 224.001 c 0
 444 223.001 453 221.001 461 218.001 c 0
 469 215.001 476 213.001 478 213.001 c 0
 480 213.001 484 212.001 487 210.001 c 2
 491 209.001 497 203.001 501 199.001 c 0
 506 194.001 510 187.001 512 184.001 c 0
 515 178.001 515 177.001 512 170.001 c 1
 511 165.001 510 159.001 511 152.001 c 2
 511 146.001 512 140.001 513 138.001 c 1
 514 137.001 515 131.001 515 126.001 c 0
 515 119.001 514 114.001 511 109.001 c 2
 510 106.001 507 101.001 505 100.001 c 2
 503 98.001 500 97.001 498 97.001 c 0
 496 97.001 491 98.001 487 100.001 c 0
 482 102.001 476 104.001 473 105.001 c 1
 471 107.001 465 108.001 461 108.001 c 1
 457 109.001 452 110.001 449 111.001 c 0
 447 112.001 442 113.001 439 114.001 c 1
 436 114.001 430 118.001 424 123.001 c 0
 417 129.001 413 131.001 408 131.001 c 1
 404 132.001 399 133.001 397 133.001 c 0
 395 133.001 390 136.001 386 138.001 c 0
 383 140.001 378 143.001 375 143.001 c 1
 372 144.001 368 145.001 366 146.001 c 0
 364 147.001 362 148.001 360 148.001 c 0
 359 148.001 353 150.001 347 152.001 c 0
 340 154.001 332 158.001 328 161.001 c 0
 325 164.001 319 166.001 316 167.001 c 1
 312 167.001 307 169.001 304 170.001 c 0
 301 171.001 298 173.001 297 174.001 c 0
 296 175.001 289 178.001 283 180.001 c 0
 277 182.001 271 184.001 270 184.001 c 2
 270 184.001 266 185.001 263 186.001 c 0
 259 188.001 252 191.001 246 193.001 c 0
 239 195.001 231 199.001 227 202.001 c 0
 223 205.001 218 207.001 215 208.001 c 1
 213 208.001 208 211.001 205 214.001 c 0
 201 217.001 196 219.001 193 220.001 c 1
 190 220.001 186 221.001 184 222.001 c 2
 183 222.001 177 223.001 171 224.001 c 0
 166 225.001 159 226.001 157 227.001 c 0
 155 228.001 152 230.001 150 231.001 c 1
 148 231.001 145 233.001 143 234.001 c 1
 142 235.001 139 237.001 137 239.001 c 0
 134 241.001 129 242.001 125 243.001 c 0
 122 244.001 116 245.001 112 246.001 c 0
 109 247.001 104 248.001 102 248.001 c 0
 99 248.001 93 250.001 89 252.001 c 2
 85 253.001 80 256.001 78 257.001 c 1
 76 259.001 72 260.001 69 261.001 c 1
 65 261.001 60 263.001 57 265.001 c 0
 55 266.001 50 269.001 46 271.001 c 1
 37 280.001 l 1
 36 283.001 33 289.001 32 295.001 c 2
 30 300.001 28 310.001 26 315.001 c 1
 24.8281 320.273 24.3428 323.486 24.3428 325.847 c 0
 24.3428 327.516 24.585 328.758 24.999 330 c 0
 25.999 332 26.999 339 26.999 345 c 0
 26.999 351 25.999 359 24.999 363 c 0
 24.2354 365.292 23.9092 366.854 23.9092 368.244 c 0
 23.9092 370.493 24.7637 372.292 26 376 c 1
 28 379 31 383 33 385 c 0
 35 388 41 391 53 396 c 0
 62 399 73 404 78 406 c 1
 82 409 90 411 94 412 c 1
 99 412 106 414 110 416 c 0
 114 418 122 422 127 423 c 0
 133 425 138 427 139 428 c 1
 140 428 144 429 148 430 c 0
 154 431 159 434 164 438 c 0
 168 441 173 444 175 445 c 0
 177 446 182 448 187 450 c 0
 191 451 198 453 201 454 c 1
 207 454 209 456 215 462 c 0
 220 467 224 469 228 470 c 1
 231 470 239 472 246 474 c 0
 254 476 261 479 264 481 c 0
 266 482 275 485 282 487 c 1
 290 488 301 492 306 494 c 1
 311 497 316 499 316 499 c 1
 316 500 318 501 320 503 c 1
 322 504 326 506 329 507 c 2
 332 509 335 510 336 511 c 0
 337 512 341 514 345 515 c 0
 350 516 356 518 360 518 c 1
 364 519 369 520 372 521 c 0
 374 522 378 523 379 523 c 1
 380 522 383 523 386 523 c 1
 389 524 393 526 395 528 c 0
 397 530 400 532 402 533 c 0
 404 534 408 537 413 539 c 0
 418 541 423 542 428 542 c 0
 432 542 438 543 440 544 c 1
 442 546 445 547 447 548 c 0
 449 549 454 552 458 555 c 0
 463 559 467 560 474 561 c 1
 479 561 486 563 489 565 c 1
EndSplineSet
Validated: 33
EndChar

StartChar: uni003D
Encoding: 61 61 30
Width: 538
GlyphClass: 2
Flags: W
LayerCount: 2
Fore
SplineSet
105 289 m 0
 108 291 111 291.999 111 291.999 c 1
 111 291.999 117 290.999 125 289.999 c 1
 132 287.999 140 285.999 142 284.999 c 0
 144 283.999 152 282.999 158 282.999 c 0
 164 282.999 173 283.999 178 285.999 c 1
 183 286.999 198 287.999 224 287.999 c 0
 234.5 288.499 246.5 288.749 257.25 288.749 c 0
 268 288.749 277.5 288.499 283 287.999 c 0
 290 287.499 296.75 287.249 303.375 287.249 c 0
 310 287.249 316.497 287.534 323 287.999 c 0
 337 288.999 345 288.999 350 287.999 c 0
 352.5 287.499 359 287.249 369.125 287.249 c 0
 379.25 287.249 393 287.499 410 287.999 c 0
 429.333 287.999 449.556 288.443 463.556 288.443 c 0
 470.556 288.443 476 288.332 479 287.999 c 0
 495 286.999 495 286.999 502 280.999 c 0
 506 276.999 510 272.999 510 271.999 c 2
 510.5 271.499 510.75 267.249 510.75 260.874 c 0
 510.75 254.499 510.5 245.999 510 236.999 c 0
 509 206.999 509 202.999 506 196.999 c 0
 504 193.999 501 189.999 500 187.999 c 1
 498 185.999 494 182.999 491 181.999 c 0
 488.929 181.585 487.372 181.343 485.69 181.343 c 0
 483.312 181.343 480.686 181.828 475.999 183 c 0
 467.999 185 452.999 185 306.999 185 c 2
 94.999 185 l 2
 57.999 185 40.999 185 37.999 187 c 0
 35.999 188 32.999 190 30.999 193 c 0
 28.999 196 25.999 200 24.999 203 c 0
 24.2354 204.91 23.9092 206.236 23.9092 207.48 c 0
 23.9092 209.493 24.7637 211.292 26 215 c 0
 28 221 28 226 28 245 c 0
 28 261 28 269 29 271 c 0
 30 273 34 277 37 279 c 0
 40 282 44 284 46 284 c 0
 47 284 53 285 58 286 c 0
 66 288 69 288 75 287 c 0
 79 286 86 285 90 285 c 0
 95 285 100 286 105 289 c 0
166 509.999 m 1
 167 510.999 171.001 510.999 174.001 510.999 c 0
 177.001 510.999 183.001 509.999 188.001 507.999 c 0
 196.001 505.999 199.001 504.999 243.001 504.999 c 0
 268.001 504.999 297.001 505.999 307.001 505.999 c 2
 392.001 505.999 l 2
 429.001 506.999 462.001 506.999 464.001 506.999 c 1
 466.001 507.999 471.001 508.999 474.001 509.999 c 0
 478.001 510.999 481.001 510.999 485.001 508.999 c 2
 488.001 508.999 493.001 505.999 495.001 503.999 c 2
 504.001 494.999 l 1
 507.001 490.999 509.001 485.999 510.001 480.999 c 0
 511.001 475.999 512.001 470.999 513.001 467.999 c 0
 514.001 465.999 515.001 461.999 515.001 458.999 c 0
 515.001 454.999 514.001 450.999 513.001 448.999 c 0
 512.001 445.999 511.001 437.999 511.001 429.999 c 0
 511.001 414.999 511.001 413.999 506.001 409.999 c 0
 504.001 407.999 500.001 404.999 497.001 404.999 c 0
 495.001 404.999 489.001 403.999 484.001 402.999 c 0
 479.001 401.999 472.001 399.999 469.001 398.999 c 0
 466.001 397.999 461.001 396.999 459.001 396.999 c 0
 457.001 396.999 452.001 397.999 447.001 399.999 c 0
 440.001 401.999 434.001 401.999 390.001 401.999 c 0
 363.001 401.999 317.001 401.999 288.001 402.999 c 0
 260.001 402.999 233.001 402.999 230.001 401.999 c 1
 226.001 401.999 219.001 400.999 214.001 400.999 c 0
 208.001 400.999 204.001 401.999 201.001 402.999 c 1
 199.001 404.999 196.001 404.999 191.001 404.999 c 1
 188.001 403.999 169.001 402.999 151.001 402.999 c 0
 132.001 401.999 114.001 400.999 110.001 400.999 c 0
 107.001 400.999 91.001 401.999 74.001 401.999 c 0
 52.001 402.999 44.001 403.999 40.001 405.999 c 0
 37.001 406.999 33.001 409.999 32.001 411.999 c 2
 30.001 413.999 28.001 416.999 27.001 419.999 c 0
 26.001 423.999 26.001 426.999 27.001 434.999 c 1
 29.001 439.999 30.001 448.999 30.001 455.999 c 0
 30.001 462.999 29.001 471.999 27.001 475.999 c 1
 26.001 479.999 25.001 484.999 26.001 486.999 c 2
 26.001 488.999 29.001 492.999 31.001 495.999 c 0
 34.001 498.999 38.001 501.999 42.001 502.999 c 0
 47.001 504.999 54.001 505.999 83.001 505.999 c 0
 90.9092 506.292 97.2734 506.413 102.47 506.413 c 0
 115.016 506.413 120.758 505.706 125 504.999 c 1
 130 502.999 136 502.999 138 502.999 c 1
 140 503.999 147 504.999 152 505.999 c 0
 158 506.999 164 508.999 166 509.999 c 1
EndSplineSet
Validated: 33
EndChar

StartChar: uni003E
Encoding: 62 62 31
Width: 534
GlyphClass: 2
Flags: W
LayerCount: 2
Fore
SplineSet
36 595 m 0
 38 597 43 598 45 598 c 0
 48 598 52 596 55 594 c 0
 58 592 65 589 70 588 c 1
 75 586 81 584 83 582 c 1
 85 581 90 578 94 577 c 0
 97 576 102 575 104 573 c 1
 106 572 109 570 111 569 c 2
 112 568 116 566 120 564 c 0
 124 562 131 560 136 559 c 0
 141 558 148 556 151 555 c 0
 155 553 163 550 168 547 c 1
 174 545 181 542 185 542 c 1
 188 541 196 539 203 536 c 0
 210 534 218 530 221 528 c 0
 223 526 230 523 235 522 c 2
 240 520 246 519 248 519 c 0
 250 519 253 518 256 516 c 0
 259 514 263 513 266 512 c 1
 269 512 273 510 276 508 c 0
 278 507 282 505 283 504 c 1
 285 503 290 501 296 499 c 0
 301 497 306 494 307 493 c 0
 308 492 312 490 315 490 c 1
 319 489 326 487 332 486 c 1
 338 484 346 482 348 480 c 2
 351 479 354 476 355 475 c 1
 356 475 360 472 365 470 c 2
 370 467 378 465 383 464 c 1
 388 464 394 462 397 461 c 0
 400 460 403 458 404 457 c 1
 404 456 410 454 417 452 c 0
 423 450 431 448 433 448 c 0
 435 448 440 447 444 445 c 0
 447 443 452 441 453 440 c 0
 454 439 460 437 465 435 c 0
 471 433 479 430 484 428 c 0
 488 427 493 424 496 421 c 0
 499 418 502 413 505 409 c 0
 509 402 509 402 508 388 c 0
 507 380 507 372 507 370 c 0
 507 368 508 364 509 361 c 1
 511 359 512 354 512 350 c 0
 512 347 511 341 509 338 c 1
 508 334 507 328 506 323 c 1
 506 318 505 313 503 311 c 1
 502 309 499 306 497 305 c 2
 495 303 492 301 490 300 c 0
 488 299 483 296 479 294 c 0
 476 293 471 291 468 290 c 0
 465 289 461 288 459 286 c 1
 457 285 452 283 448 282 c 2
 444 280 438 279 435 279 c 0
 432 279 425 277 418 275 c 0
 411 273 403 269 400 266 c 0
 397 264 389 259 382 256 c 2
 376 252 366 248 361 247 c 1
 356 245 350 243 347 242 c 1
 344 242 338 240 332 239 c 1
 327 237 319 235 315 233 c 2
 310 232 304 229 300 227 c 0
 297 226 294 225 293 225 c 0
 292 225 288 222 283 219 c 0
 278 216 272 213 270 211 c 1
 267 210 261 208 257 207 c 0
 252 206 248 205 247 204 c 0
 246 203 242 201 237 199 c 1
 232 198 225 196 221 195 c 1
 217 195 213 193 212 192 c 0
 211 191 207 189 204 188 c 1
 202 186 196 185 192 184 c 0
 188 183 182 180 178 177 c 0
 172 173 170 172 159 172 c 0
 147 171 146 171 135 164 c 2
 119 153 l 2
 116 151 110 150 106 149 c 0
 101 148 95 147 92 145 c 2
 88 144 83 141 80 138 c 0
 77 136 69 132 63 130 c 0
 57 128 50 126 49 126 c 0
 47 126 43 128 39 129 c 1
 36 131 31 134 29 137 c 0
 27 139 25 143 24 145 c 1
 24 157 l 1
 25 161 26 174 26 184 c 0
 26 203 26 203 32 216 c 0
 35 223 40 231 42 233 c 0
 44 235 48 238 52 239 c 2
 55 241 60 242 62 242 c 0
 65 242 72 245 79 248 c 0
 85 251 94 255 99 257 c 0
 104 259 113 263 119 265 c 2
 125 268 131 270 133 270 c 0
 135 270 139 271 143 273 c 1
 147 274 154 276 159 276 c 1
 164 277 177 281 188 285 c 0
 199 289 211 294 215 295 c 0
 219 296 226 298 230 299 c 1
 234 301 240 304 243 305 c 0
 247 307 253 310 258 313 c 1
 263 315 272 318 277 320 c 0
 283 322 292 324 296 324 c 0
 301 325 307 326 309 327 c 0
 311 328 314 331 317 332 c 1
 319 334 324 336 328 338 c 0
 331 340 337 341 341 341 c 0
 345 341 350 342 352 342 c 1
 354 343 360 347 364 350 c 0
 368 353 372 357 373 359 c 0
 375 362 375 364 372 369 c 0
 370 372 367 376 365 377 c 2
 363 379 356 381 350 383 c 1
 344 384 339 385 338 386 c 0
 337 387 332 388 328 389 c 1
 324 389 314 393 305 396 c 0
 296 400 287 403 286 403 c 0
 285 403 282 404 280 405 c 0
 277 406 272 407 267 408 c 0
 261 409 253 411 243 417 c 0
 234 421 224 425 221 425 c 1
 217 426 213 427 212 428 c 1
 212 428 207 430 202 431 c 0
 197 432 188 436 181 440 c 2
 165 448 l 2
 162 449 158 450 155 450 c 0
 152 450 146 452 142 454 c 0
 137 456 124 462 113 465 c 0
 102 469 90 474 86 476 c 0
 82 478 78 479 76 479 c 0
 75 479 71 480 68 481 c 0
 65 482 59 484 54 485 c 1
 40 492 l 1
 37 495 33 499 31 502 c 0
 29 505 27 512 26 520 c 0
 25 527 25 536 25 539 c 2
 25 561 l 2
 25 572 26 578 28 584 c 0
 30 590 33 593 36 595 c 0
EndSplineSet
Validated: 33
EndChar

StartChar: uni0040
Encoding: 64 64 33
Width: 1020
GlyphClass: 2
Flags: W
LayerCount: 2
Fore
SplineSet
567 365 m 0
 563 367 559 367 546 367 c 0
 536 367 528 366 524 365 c 0
 521 364 514 362 510 361 c 0
 505 360 499 357 495 355 c 0
 492 353 488 351 487 350 c 1
 485 349 483 348 480 347 c 0
 478 346 472 341 468 336 c 2
 463 332 458 325 456 322 c 0
 454 318 451 313 449 310 c 0
 446 305 445 302 445 296 c 0
 445 289 446 285 449 278 c 0
 451 272 454 267 456 266 c 1
 457 264 459 262 460 261 c 1
 460 260 462 258 463 256 c 0
 464 254 468 250 473 247 c 0
 478 244 483 241 484 239 c 1
 485 238 489 236 493 236 c 2
 497 235 504 235 508 235 c 1
 512 236 517 237 519 238 c 2
 527 242 l 2
 530 244 535 247 539 251 c 1
 544 254 547 257 547 257 c 1
 547 258 550 262 555 267 c 0
 559 271 563 277 564 279 c 1
 564 281 567 285 569 288 c 0
 572 292 574 296 575 299 c 0
 576 302 578 307 579 310 c 0
 581 314 581 319 581 333 c 0
 581 351 581 351 577 357 c 0
 574 360 570 363 567 365 c 0
452 750 m 0
 456 752 463 752 507 752 c 0
 547 752 559 752 564 750 c 0
 567 749 577 748 586 747 c 0
 595 747 605 745 608 744 c 0
 611 743 618 741 623 741 c 1
 629 740 637 738 643 737 c 1
 649 735 656 733 659 731 c 2
 663 730 667 728 668 727 c 1
 670 727 677 724 684 722 c 1
 690 719 698 716 701 715 c 0
 704 714 709 711 712 708 c 0
 715 706 720 703 722 701 c 0
 724 699 728 695 732 693 c 0
 736 691 745 683 752 676 c 0
 759 669 769 661 773 658 c 0
 778 655 794 640 809 625 c 0
 833 600 836 596 838 590 c 0
 840 586 843 577 847 570 c 0
 850 563 853 557 853 556 c 0
 853 555 854 554 855 553 c 0
 856 552 858 548 860 543 c 1
 863 539 866 531 867 525 c 1
 869 520 872 514 872 513 c 1
 873 512 876 507 878 503 c 0
 880 498 883 489 885 483 c 1
 886 477 888 471 889 470 c 1
 889 469 890 464 891 458 c 0
 892 453 893 446 895 443 c 0
 897 439 897 432 897 375 c 0
 896 318 896 312 894 304 c 0
 892 299 891 293 891 291 c 0
 891 288 889 279 886 270 c 0
 884 261 881 250 880 247 c 1
 880 243 877 236 875 230 c 0
 873 225 870 216 867 210 c 0
 865 205 861 196 858 192 c 0
 855 187 852 181 852 179 c 1
 851 176 849 171 847 167 c 0
 845 163 841 156 838 151 c 0
 835 146 825 134 815 124 c 0
 799 107 796 106 782 99 c 0
 769 92 765 91 757 91 c 1
 752 90 745 89 742 88 c 0
 738 86 734 85 724 85 c 0
 716 85 709 86 706 88 c 1
 702 89 695 90 684 91 c 0
 672 91 665 92 656 95 c 0
 649 97 638 102 632 106 c 0
 625 110 619 113 619 113 c 1
 618 113 612 118 606 124 c 0
 598 132 593 138 591 143 c 0
 589 147 586 156 583 163 c 0
 580 172 578 175 576 176 c 0
 574 177 571 177 568 177 c 1
 566 176 561 173 558 169 c 1
 554 166 551 162 551 162 c 1
 551 161 549 160 546 158 c 1
 543 157 536 156 531 155 c 1
 526 155 520 153 518 152 c 0
 514 150 507 150 469 150 c 0
 424 150 424 150 417 153 c 0
 413 155 407 159 404 161 c 0
 401 164 396 166 394 167 c 1
 391 167 388 169 385 170 c 0
 383 171 378 175 375 178 c 1
 373 182 368 189 365 195 c 1
 363 201 360 207 359 208 c 1
 358 208 357 210 357 211 c 0
 357 212 356 214 355 216 c 1
 353 218 350 224 348 229 c 0
 346 234 343 240 343 242 c 1
 342 243 340 250 338 256 c 0
 336 264 335 272 335 283 c 0
 335 294 336 299 338 303 c 0
 339 305 340 313 341 321 c 0
 342 329 344 338 346 345 c 0
 348 350 351 357 353 359 c 1
 354 361 356 364 357 367 c 0
 358 370 360 372 360 372 c 1
 361 372 362 373 362 375 c 1
 363 377 366 381 369 384 c 0
 373 388 377 391 379 393 c 1
 383 395 l 1
 394 402 l 2
 399 405 408 411 413 414 c 0
 418 417 424 420 426 421 c 0
 428 422 433 424 438 426 c 0
 442 428 449 429 454 429 c 0
 459 429 466 430 471 431 c 0
 476 432 483 434 487 436 c 0
 494 440 496 440 525 441 c 0
 554.999 442.034 555 442 564 447 c 0
 569 450 574 455 577 458 c 0
 581 464 581 465 581 479 c 0
 581 491 581 495 577 504 c 0
 574 511 570 517 563 525 c 0
 556 532 553 535 548 536 c 0
 545 537 533 538 520 538 c 0
 497 537 497 537 484 524 c 0
 477 517 469 506 466 500 c 0
 463 494 458 488 455 485 c 0
 452 483 448 480 446 480 c 1
 444 479 438 478 433 476 c 0
 425 474 419 473 401 473 c 0
 382 473 378 474 373 476 c 1
 370 478 368 480 368 481 c 0
 368 482 367 484 365 485 c 1
 363 487 363 491 364 513 c 0
 365 533 365 542 367 545 c 1
 368 548 373 554 378 559 c 0
 383 564 387 569 387 570 c 0
 387 571 390 573 394 576 c 0
 397 578 404 582 407 586 c 1
 411 589 416 593 418 593 c 0
 420 593 430 594 441 594 c 0
 458 594 462 595 468 598 c 0
 472 600 477 601 480 601 c 0
 482 601 488 602 491 603 c 0
 495 605 502 606 510 606 c 0
 518 606 524 606 529 608 c 0
 535 611 537 611 548 609 c 0
 554 608 566 607 575 606 c 0
 584 606 592 604 595 603 c 0
 598 602 604 600 608 600 c 0
 612 600 616 599 617 598 c 1
 617 597 622 596 627 594 c 1
 634 593 637 591 640 587 c 0
 643 584 650 576 656 570 c 0
 665 560 667 557 668 552 c 0
 669 549 669 546 668 545 c 1
 668 545 670 538 673 530 c 0
 678 515 677.792 514.992 679 486 c 0
 680 462 680 455 682 451 c 0
 684 448 685 443 685 435 c 0
 685 426 684 420 682 414 c 0
 679 406 679 406 682 396 c 0
 684 391 685 384 685 381 c 0
 685 377 684 371 682 366 c 0
 680 359 680 352 679 298 c 0
 679 241 679 237 682 229 c 0
 684 224 685 217 686 213 c 0
 687 209 688 204 689 202 c 0
 690 200 691 194 692 191 c 1
 692 186 694 182 697 178 c 1
 700 176 704 173 707 172 c 0
 712 170 714 170 719 172 c 0
 723 173 728 178 739 188 c 0
 747 197 755 206 757 209 c 0
 759 211 761 215 762 217 c 1
 762 219 764 222 765 223 c 1
 766 225 769 232 772 241 c 0
 775 249 779 261 781 267 c 1
 784 272 786 281 787 287 c 0
 788 292 790 299 792 303 c 1
 793 307 795 314 796 318 c 1
 799 324 799 331 799 361 c 0
 799 391 799 399 797 403 c 0
 795 407 794 413 793 417 c 1
 793 421 791 426 790 428 c 0
 789 430 788 435 787 440 c 1
 787 445 785 453 783 458 c 1
 780 463 777 470 775 473 c 0
 773 477 770 483 768 488 c 0
 766 492 764 498 764 501 c 1
 763 504 760 510 757 515 c 0
 754 519 749 526 745 530 c 1
 742 534 739 538 739 539 c 1
 739 539 738 542 735 545 c 0
 733 548 726 556 720 562 c 2
 706 576 l 1
 706 577 704 580 702 583 c 0
 701 585 696 590 691 594 c 2
 673 605 l 1
 668 607 663 610 661 611 c 1
 660 612 656 615 653 618 c 0
 650 621 642 626 635 629 c 0
 628 633 619 638 613 642 c 0
 608 645 602 648 598 649 c 1
 595 649 590 651 588 652 c 0
 585 653 579 655 573 655 c 1
 566 656 560 657 557 659 c 0
 554 661 551 662 551 663 c 0
 551 664 548 665 544 666 c 0
 539 667 531 667 521 667 c 0
 512 666 503 665 501 664 c 0
 498 663 486 662 470 661 c 0
 448 661 444 660 437 657 c 0
 433 655 429 653 428 653 c 1
 427 652 424 650 421 648 c 0
 417 646 413 643 411 643 c 1
 408 642 403 640 399 638 c 0
 395 636 389 632 386 630 c 0
 383 627 377 624 374 622 c 0
 371 620 364 616 359 613 c 0
 355 611 346 607 341 604 c 0
 336 601 327 595 321 589 c 0
 315 583 304 572 296 565 c 0
 289 557 281 547 278 542 c 0
 275 537 271 530 270 528 c 0
 268 525 266 520 265 518 c 0
 264 516 260 510 255 506 c 0
 249 500 246 496 245 492 c 1
 245 488 243 483 242 481 c 0
 240 478 239 472 238 467 c 0
 238 463 236 457 235 455 c 0
 233 452 232 449 231 449 c 0
 230 449 229 445 228 440 c 0
 227 436 225 430 224 428 c 0
 223 426 221 419 221 414 c 1
 220 409 219 403 218 401 c 1
 217 400 216 396 216 393 c 0
 216 389 217 385 218 383 c 0
 219 380 220 366 221 342 c 0
 222 307 222 306 226 296 c 0
 228 290 231 284 232 283 c 0
 233 282 235 277 237 272 c 0
 239 267 243 261 245 258 c 0
 247 255 250 249 251 245 c 0
 252 240 255 234 258 230 c 0
 260 227 264 221 266 217 c 0
 268 213 271 207 273 205 c 1
 274 203 276 200 277 198 c 1
 277 197 279 195 280 193 c 0
 281 191 290 181 299 171 c 0
 310 160 321 150 326 146 c 1
 332 143 338 137 341 134 c 0
 344 131 351 125 358 121 c 0
 364 117 372 112 375 111 c 0
 377 110 383 108 388 107 c 0
 392 106 398 104 400 103 c 0
 402 102 406 99 408 98 c 1
 410 96 415 95 420 94 c 0
 425 93 432 91 436 90 c 1
 440 88 448 85 454 83 c 0
 459 81 466 78 470 78 c 2
 473 77 478 77 481 77 c 1
 484 78 490 80 494 84 c 0
 497 87 505 91 509 94 c 0
 514 97 521 100 525 102 c 0
 531 105 533 106 554 106 c 0
 574 106 576 105 581 102 c 1
 584 101 588 96 591 92 c 2
 595 88 598 82 600 79 c 1
 602 74 603 69 603 52 c 0
 603 31 603 31 595 22 c 0
 591 17 583 9 578 5 c 0
 573 1 566 -3 561 -5 c 0
 556 -7 546 -8 538 -9 c 0
 529 -9 522 -11 519 -12 c 1
 516 -14 511 -15 505 -15 c 0
 500 -15 493 -14 490 -12 c 1
 485 -10 479 -10 454 -10 c 0
 428 -10 423 -9 419 -7 c 0
 417 -6 411 -4 407 -4 c 1
 403 -3 398 -2 398 -2 c 1
 397 -1 393 0 389 1 c 0
 385 2 379 4 377 6 c 1
 374 7 371 9 370 10 c 1
 368 11 363 13 357 15 c 0
 352 17 347 19 346 19 c 1
 346 19 339 22 331 26 c 0
 323 30 313 35 309 38 c 0
 304 41 298 45 295 48 c 0
 292 50 286 54 282 56 c 0
 277 59 272 63 268 66 c 0
 265 69 260 73 257 74 c 1
 254 76 243 86 233 96 c 0
 221 109 213 119 209 127 c 2
 205 132 200 141 197 145 c 0
 194 149 186 160 180 169 c 0
 174 178 167 190 165 195 c 0
 163 201 159 207 158 210 c 2
 156 213 154 219 152 225 c 0
 151 230 149 235 149 236 c 1
 148 237 147 241 146 245 c 0
 145 250 143 254 142 256 c 1
 141 257 139 262 138 266 c 0
 137 270 135 278 135 284 c 1
 134 289 133 294 132 296 c 0
 131 298 130 311 129 331 c 0
 129 358 128 365 126 369 c 0
 124 373 124 377 124 389 c 0
 124 401 124 407 126 413 c 0
 129 420 129 425 129 437 c 0
 129 446 130 453 131 453 c 1
 131 454 133 458 134 462 c 0
 135 466 136 471 137 472 c 1
 138 474 140 480 141 486 c 2
 143 491 145 500 146 505 c 0
 147 510 149 518 151 522 c 0
 154 527 157 535 159 540 c 0
 161 544 163 549 163 549 c 1
 163 550 166 553 169 556 c 0
 172 560 175 566 178 572 c 1
 180 580 183 585 189 591 c 0
 193 595 198 602 200 606 c 0
 202 609 218 626 235 642 c 0
 255 662 270 676 278 681 c 0
 284 686 290 689 291 689 c 1
 300 696 l 2
 304 700 311 704 317 706 c 0
 322 708 331 713 337 717 c 0
 342 720 350 724 353 726 c 1
 357 727 363 729 366 730 c 1
 370 730 374 732 376 733 c 0
 378 734 383 735 386 736 c 1
 389 736 394 737 396 739 c 1
 399 740 404 741 409 741 c 1
 414 742 420 743 422 744 c 0
 424 745 431 747 437 747 c 0
 443 747 450 749 452 750 c 0
EndSplineSet
Validated: 33
EndChar

StartChar: uni0044
Encoding: 68 68 37
Width: 761
GlyphClass: 2
Flags: W
LayerCount: 2
Fore
SplineSet
257 624 m 0
 252 625 244 626 237 626 c 0
 231 626 224 625 221 624 c 2
 218 624 215 622 214 621 c 0
 213 620 211 619 210 619 c 0
 209 619 207 617 205 615 c 0
 201 611 201 611 201 554 c 0
 201 522 200 480 200 461 c 0
 200 442 199 424 198 420 c 1
 198 415 198 412 199 411 c 0
 201 409 201 389 201 305 c 0
 201 235 201.09 196.009 202 186 c 0
 203 175 203 168 202 160 c 0
 201 150 201 148 204 141 c 0
 206 134 207 130 206 127 c 0
 205 124 205 118 206 113 c 0
 207 107 208 104 211 102 c 0
 213 100 216 97 218 97 c 2
 220 96 229 95 238 95 c 0
 249 95 257 96 263 97 c 1
 267 99 276 101 284 102 c 0
 291 103 307 105 319 106 c 0
 331 106 352 106 366 105 c 0
 380 105 393 104 396 104 c 0
 398 104 404 106 408 108 c 0
 412 110 418 112 423 113 c 0
 427 114 431 116 432 117 c 0
 433 118 434 119 435 119 c 1
 435 119 440 121 444 124 c 0
 449 127 454 131 456 132 c 2
 458 134 462 135 466 136 c 1
 469 136 476 139 480 141 c 0
 485 144 492 148 496 151 c 0
 500 153 507 159 512 163 c 0
 517 166 524 173 526 177 c 0
 529 181 533 188 535 192 c 0
 537 196 539 200 540 201 c 0
 541 202 543 207 545 211 c 1
 546 215 551 224 554 231 c 0
 558 239 561 247 562 249 c 1
 562 251 565 260 568 269 c 0
 573 284 573 284 573 320 c 0
 574 343 574 358 576 362 c 1
 576.5 364 576.75 365.75 576.75 367.625 c 0
 576.75 369.5 576.5 371.5 576 374 c 0
 575 378 574 391 573 404 c 0
 573 417 571 429 570 431 c 0
 569 434 568 440 567 444 c 1
 567 448 566 454 564 457 c 1
 563 460 562 466 562 471 c 1
 561 477 560 483 558 487 c 0
 556 490 552 496 549 499 c 0
 547 502 541 512 537 521 c 0
 532 531 526 539 523 543 c 1
 519 546 515 550 514 553 c 1
 512 555 508 560 505 564 c 1
 501 568 495 574 491 577 c 2
 487 581 482 583 479 584 c 0
 477 585 468 588 460 592 c 2
 438 603 l 1
 434 604 427 606 423 607 c 0
 418 608 411 608 407 608 c 0
 403 608 394 611 383 614 c 0
 366 620 366 620 346 620 c 0
 331 620 324 621 320 622 c 1
 317 624 310 625 303 625 c 0
 296 625 290 624 286 622 c 1
 282 621 278 620 272 621 c 0
 268 621 261 623 257 624 c 0
100 719 m 1
 106 721 113 723.002 116 723.002 c 0
 119 723.002 123 722.002 125 721.002 c 0
 128 720.002 137 720.002 147 719.002 c 0
 157 719.002 171 718.002 179 718.002 c 0
 188 717.002 199 718.002 209 719.002 c 0
 215 719.502 220.25 719.752 225.625 719.752 c 0
 231 719.752 236.5 719.502 243 719.002 c 0
 256 718.002 265 718.002 273 719.002 c 0
 279 720.002 285 721.002 287 721.002 c 0
 288 721.002 292 722.002 295 722.002 c 2
 299 723.002 303 723.002 308 721.002 c 0
 313 719.002 320 718.002 326 718.002 c 0
 331 718.002 337 719.002 339 720.002 c 0
 341 721.002 347 721.002 359 719.002 c 0
 368 718.002 383 717.002 391 717.002 c 0
 399 717.002 409 716.002 414 715.002 c 0
 418 714.002 426 713.002 430 713.002 c 0
 435 713.002 442 712.002 446 710.002 c 0
 451 708.002 459 706.002 465 706.002 c 0
 471 706.002 480 704.002 484 703.002 c 0
 488 702.002 497 699.002 504 697.002 c 0
 512 695.002 522 691.002 527 689.002 c 2
 537 685.002 l 1
 538 685.002 540 684.002 542 682.002 c 1
 544 681.002 550 677.002 556 675.002 c 1
 562 672.002 569 668.002 572 666.002 c 0
 574 664.002 579 660.002 583 659.002 c 1
 587 657.002 596 649.002 604 640.002 c 0
 613 632.002 621 624.002 624 622.002 c 0
 626 620.002 630 616.002 633 612.002 c 0
 635 608.002 639 602.002 641 598.002 c 0
 643 594.002 648 588.002 652 584.002 c 0
 656 580.002 661 572.002 664 567.002 c 0
 667 561.002 671 554.002 673 551.002 c 0
 675 549.002 676 544.002 677 540.002 c 0
 678 536.002 680 532.002 684 528.002 c 0
 686 525.002 689 521.002 690 519.002 c 1
 690 517.002 691 512.002 692 508.002 c 1
 694 504.002 695 496.002 697 491.002 c 1
 698 486.002 700 477.002 701 472.002 c 0
 702 466.002 703 457.002 703 451.002 c 0
 703 444.002 704 437.002 705 431.002 c 1
 707 426.002 708 417.002 709 409.002 c 0
 709 402.002 710 394.002 711 391.002 c 0
 712 388.002 712 384.002 712 381.002 c 0
 712 379.002 712 368.002 713 358.002 c 0
 713 347.002 713 331.002 712 322.002 c 0
 712 313.002 710 301.002 709 296.002 c 1
 707 291.002 705 284.002 704 281.002 c 0
 703 277.002 702 273.002 702 271.002 c 0
 702 269.002 701 264.002 699 259.002 c 0
 697 254.002 696 247.002 696 243.002 c 0
 696 239.002 695 233.002 694 230.002 c 0
 693 227.002 691 221.002 690 216.002 c 0
 689 211.002 686 205.002 684 201.002 c 0
 681 197.002 678 191.002 678 189.002 c 1
 677 186.002 675 182.002 672 179.002 c 0
 670 176.002 665 167.002 661 160.002 c 1
 658 152.002 654 144.002 652 141.002 c 0
 651 139.002 648 135.002 646 133.002 c 0
 645 132.002 643 129.002 643 128.002 c 0
 643 127.002 642 123.002 640 120.002 c 2
 639 115.002 635 112.002 630 108.002 c 0
 625 105.002 620 100.002 617 97.002 c 0
 615 94.002 610 89.002 607 85.002 c 1
 603 82.002 599 79.002 598 79.002 c 2
 598 79.002 593 78.002 588 76.002 c 0
 584 74.002 577 70.002 574 68.002 c 0
 570 66.002 567 63.002 567 63.002 c 1
 566 63.002 563 60.002 559 58.002 c 0
 555 55.002 552 53.002 551 53.002 c 1
 551 53.002 548 51.002 546 49.002 c 1
 543 48.002 539 44.002 536 42.002 c 0
 533 40.002 527 37.002 523 35.002 c 1
 518 34.002 513 32.002 512 32.002 c 0
 511 32.002 503 30.002 496 28.002 c 0
 488 25.002 481 22.002 480 21.002 c 0
 479 20.002 475 18.002 472 17.002 c 0
 469 16.002 460 14.002 454 14.002 c 1
 447 13.002 437 12.002 432 10.002 c 2
 427 9.00195 419 6.00195 415 5.00195 c 0
 408 3.00195 399 2.00195 373 2.00195 c 0
 344 2.00195 339 2.00195 335 0.00195312 c 0
 332 -1.99805 326 -2.99805 323 -2.99805 c 0
 319 -2.99805 313 -1.99805 309 -0.998047 c 0
 306 0.00195312 301 1.00195 297 1.00195 c 0
 294 1.00195 287 0.00195312 281 -1.99805 c 0
 274 -3.99805 266 -4.99805 255 -4.99805 c 0
 243 -4.99805 237 -3.99805 232 -1.99805 c 0
 225 1.00195 224 1.00195 219 -0.998047 c 0
 214 -2.99805 206 -3.99805 177 -3.99805 c 2
 118 -3.99805 l 2
 97 -4.99805 94 -3.99805 90 -1.99805 c 0
 87 0.00195312 82 5.00195 78 9.00195 c 0
 73 14.002 70 19.002 69 21.002 c 1
 69 23.002 68 28.002 69 31.002 c 2
 69 35.002 71 40.002 72 44.002 c 0
 74 49.002 74 53.002 74 59.002 c 1
 73 64.002 72 72.002 71 77.002 c 0
 69 85.002 69 108.002 69 255.002 c 0
 70 348.002 70 429.002 70 436.002 c 1
 69 442.002 69 453.002 69 461.002 c 0
 69 468.002 70 483.002 72 494.002 c 0
 73 504.002 74 515.002 73 517.002 c 2
 73 519.002 72 524.002 70 527.002 c 1
 69.293 530.537 68.5859 536.072 68.5859 551.032 c 0
 68.5859 557.229 68.707 565.042 69 575 c 0
 69 601 70 620 71 626 c 0
 73 633 73 636 71 643 c 0
 70 647 70 652 70 654 c 0
 70 656 70 661 71 664 c 0
 73 669 73 672 71 677 c 1
 70 683 70 686 72 692 c 0
 73 697 76 703 79 706 c 0
 81 709 85 712 87 713 c 2
 88 714 94 716 100 719 c 1
EndSplineSet
Validated: 33
EndChar

StartChar: uni0045
Encoding: 69 69 38
Width: 626
GlyphClass: 2
Flags: W
LayerCount: 2
Fore
SplineSet
276 715 m 0
 279 717 282.001 716.999 290.001 716.999 c 1
 295.001 715.999 303.001 714.999 307.001 713.999 c 0
 314.001 711.999 322.001 710.999 352.001 710.999 c 0
 382.001 710.999 390.001 710.999 394.001 708.999 c 0
 397.001 707.999 403.001 706.999 407.001 706.999 c 0
 411.001 706.999 417.001 707.999 420.001 708.999 c 0
 423.001 709.999 431.001 711.999 439.001 712.999 c 0
 446.001 712.999 453.001 713.999 453.001 712.999 c 1
 454.001 712.999 463.001 712.999 472.001 711.999 c 0
 484.001 711.999 490.001 710.999 493.001 708.999 c 1
 496.001 707.999 499.001 706.999 501.001 706.999 c 0
 504.001 706.999 508.001 707.999 511.001 708.999 c 1
 514.001 710.999 521.001 710.999 528.001 710.999 c 0
 540.001 710.999 541.001 710.999 547.001 706.999 c 0
 551.001 703.999 555.001 699.999 557.001 697.999 c 0
 559.001 695.999 561.001 691.999 563.001 689.999 c 1
 564.001 686.999 565.001 680.999 565.001 667.999 c 0
 566.001 653.999 565.001 648.999 563.001 641.999 c 0
 561.001 636.999 559.001 629.999 557.001 625.999 c 0
 555.001 622.999 552.001 618.999 549.001 616.999 c 0
 547.001 615.999 541.001 612.999 537.001 611.999 c 0
 532.001 609.999 525.001 607.999 520.001 607.999 c 0
 516.001 607.999 507.001 606.999 502.001 605.999 c 0
 496.001 604.999 489.001 603.999 485.001 603.999 c 1
 481.001 604.999 476.001 605.999 473.001 606.999 c 0
 469.001 607.999 462.001 607.999 457.001 607.999 c 0
 451.001 607.999 445.001 608.999 442.001 610.999 c 1
 437.001 612.999 433.001 612.999 424.001 612.999 c 1
 417.001 611.999 411.001 610.999 410.001 609.999 c 1
 408.001 608.999 393.001 607.999 341.001 607.999 c 0
 281.001 607.999 275.001 608.999 266.001 610.999 c 0
 258.001 612.999 253.001 613.999 240.001 612.999 c 0
 225.001 612.999 223.001 611.999 219.001 608.999 c 0
 217.001 606.999 213.001 601.999 211.001 596.999 c 0
 207.001 589.999 207.001 588.999 208.001 573.999 c 0
 208.001 565.999 209.001 548.999 209.001 536.999 c 0
 210.001 524.999 211.001 513.999 211.001 512.999 c 1
 212.001 511.999 213.001 490.999 213.001 467.999 c 0
 214.001 424.999 214.001 424.999 218.001 419.999 c 1
 220.001 415.999 223.001 413.999 227.001 412.999 c 0
 229.829 412.292 238.657 411.585 254.899 411.585 c 0
 261.627 411.585 269.627 411.706 279 411.999 c 0
 304.008 412.78 327 412.999 331 412.999 c 0
 336 412.999 344 412.999 351 411.999 c 0
 361 410.999 364 411.999 372 413.999 c 0
 378 415.999 386 416.999 391 417.999 c 1
 397 417.999 402 416.999 404 415.999 c 0
 406 414.999 410 413.999 413 414.999 c 0
 416 415.999 427 415.999 438 416.999 c 0
 449 416.999 461 416.999 465 415.999 c 0
 469 414.999 475 413.999 477 413.999 c 0
 479 413.999 492 412.999 505 411.999 c 0
 528 410.999 528 410.999 533 406.999 c 0
 536 403.999 539 399.999 540 397.999 c 0
 542 393.999 543 387.999 543 365.999 c 0
 543 339.999 543 337.999 540 333.999 c 0
 538 330.999 534 326.999 530 323.999 c 0
 527 320.999 521 317.999 518 315.999 c 1
 513 313.999 503 313.999 398 313.999 c 0
 301 313.999 281 313.999 272 311.999 c 0
 266 310.999 261 310.999 258 310.999 c 1
 257 311.999 249 311.999 240 310.999 c 0
 231 309.999 224 307.999 221 305.999 c 2
 218 304.999 216 302.999 215 300.999 c 1
 215 299.999 214 286.999 213 271.999 c 0
 212 256.999 212 242.999 212 240.999 c 2
 212 180.999 l 2
 213 150.999 214 122.999 215 119.999 c 0
 216 116.999 218 113.999 222 110.999 c 0
 227 107.999 229 106.999 247 105.999 c 0
 259 105.999 268 104.999 271 102.999 c 0
 273 101.999 278 100.999 283 99.999 c 1
 288 99.999 293 99.999 299 102.999 c 1
 308 104.999 312 105.999 340 105.999 c 0
 364 105.999 373 104.999 378 103.999 c 1
 381 101.999 386 100.999 389 100.999 c 0
 392 100.999 396 101.999 399 103.999 c 1
 402 104.999 409 105.999 414 105.999 c 0
 420 105.999 427 104.999 432 102.999 c 0
 439 100.999 440 100.999 446 103.999 c 1
 453 105.999 457 105.999 492 105.999 c 0
 524 105.999 530 104.999 535 102.999 c 0
 538 101.999 546 99.999 555 99.999 c 0
 563 98.999 571 97.999 572 97.999 c 1
 573 96.999 575 94.999 576 92.999 c 0
 577 90.999 578 87.999 577 85.999 c 0
 576 82.999 576 78.999 575 75.999 c 1
 575 71.999 576 68.999 579 61.999 c 0
 583 53.999 584 51.999 584 39.999 c 0
 584 30.999 583 23.999 581 20.999 c 2
 580 17.999 578 13.999 576 11.999 c 0
 574 8.99902 570 6.99902 563 4.99902 c 0
 554 2.99902 543 2.99902 369 1.99902 c 0
 267 1.99902 184 0.999023 183 0.999023 c 0
 182 0.999023 173 1.99902 163 1.99902 c 0
 153 2.99902 142 3.99902 140 4.99902 c 0
 136 6.99902 131 6.99902 122 5.99902 c 0
 111 4.99902 110 5.99902 104 9.99902 c 0
 101 11.999 97 14.999 96 16.999 c 2
 95 17.999 93 24.999 92 29.999 c 0
 91 35.999 89 40.999 88 41.999 c 1
 87 41.999 87 66.999 87 101.999 c 0
 87 136.999 86 167.999 85 176.999 c 0
 84 185.999 83 193.999 83 195.999 c 1
 84 197.999 84 213.999 85 230.999 c 0
 85 248.999 86 270.999 86 278.999 c 0
 86 289.999 85 295.999 83 299.999 c 0
 81 304.999 81 310.999 81 332.999 c 0
 81 353.999 81 360.999 83 365.999 c 0
 85 369.999 85 374.999 85 386.999 c 0
 84 394.999 83 406.999 83 413.999 c 0
 83 419.999 82 430.999 81 437.999 c 0
 80 444.999 80 460.999 80 474.999 c 0
 80 487.999 80 507.999 79 517.999 c 0
 79 530.999 79 539.999 77 543.999 c 1
 76.5 545.999 76.25 547.999 76.25 550.499 c 0
 76.25 552.999 76.5 555.999 77 559.999 c 0
 77 565.999 78 570.999 79 571.999 c 1
 79 572.999 80 586.999 80 603.999 c 0
 81 619.999 81 643.999 81 654.999 c 0
 81 672.999 81 678.999 84 687.999 c 0
 86 693.999 88 699.999 90 702.999 c 0
 92 704.999 96 707.999 99 708.999 c 0
 103.393 710.463 106.713 711.392 116.415 711.392 c 0
 119.967 711.392 124.373 711.268 130 711 c 0
 143 710 156 710 158 710 c 0
 160 710 187 710 217 711 c 0
 265 712 272 712 276 715 c 0
EndSplineSet
Validated: 33
EndChar

StartChar: uni0047
Encoding: 71 71 40
Width: 739
GlyphClass: 2
Flags: W
LayerCount: 2
Fore
SplineSet
320 733 m 0
 325 734 340 735 396 735 c 0
 462 735 466 735 474 732 c 0
 478 730 484 729 486 729 c 0
 489 729 493 728 494 728 c 1
 496 727 501 724 506 722 c 0
 512 719 518 718 527 718 c 1
 534 717 543 716 548 714 c 0
 552 713 559 710 562 708 c 2
 565 707 570 703 572 701 c 0
 575 699 583 695 589 692 c 0
 596 689 604 683 607 680 c 0
 611 677 618 669 622 663 c 0
 627 657 634 649 638 646 c 0
 641 643 645 638 647 636 c 1
 648 633 650 630 651 628 c 0
 652 626 654 623 655 622 c 0
 656 621 660 615 663 610 c 0
 666 603 669 596 669 590 c 1
 670 585 672 577 674 572 c 0
 676 566 678 562 678 561 c 1
 679 560 680 549 680 536 c 0
 680 513 680 513 672 505 c 0
 664 497 664 497 652 497 c 1
 645 496 620 496 597 496 c 0
 559 496 553 497 550 499 c 0
 548 500 545 504 542 507 c 0
 540 510 537 516 536 520 c 0
 535 523 534 530 534 534 c 0
 534 538 533 542 532 544 c 1
 532 546 530 551 530 555 c 1
 529 559 527 567 524 572 c 2
 522 577 517 584 515 586 c 0
 512 589 509 592 509 593 c 0
 509 594 506 598 502 601 c 0
 497 604 491 609 489 612 c 0
 486 615 479 619 474 621 c 0
 469 623 461 626 458 628 c 0
 452 631 449 631 432 632 c 0
 418 632 412 633 408 635 c 0
 404 637 398 637 382 638 c 0
 362 638 359 638 348 634 c 0
 341 632 332 629 329 628 c 0
 326 627 321 626 318 625 c 1
 316 625 307 622 300 619 c 0
 292 615 285 613 284 613 c 0
 283 613 278 610 273 606 c 0
 268 602 263 598 262 597 c 1
 261 595 257 592 254 590 c 0
 251 588 248 584 247 582 c 0
 246 580 242 574 238 570 c 0
 234 566 229 560 228 558 c 0
 226 555 223 549 221 544 c 1
 220 539 216 531 212 526 c 0
 208 520 206 515 204 507 c 0
 203 501 200 493 197 488 c 0
 194 482 193 478 192 469 c 0
 192 463 190 454 189 450 c 1
 186 444 186 438 186 418 c 0
 186 400 185 393 183 386 c 0
 181 380 181 373 181 341 c 0
 181 309 181 303 183 298 c 1
 185 295 186 288 186 278 c 0
 187 267 188 262 191 255 c 0
 193 250 195 245 196 244 c 0
 197 243 198 239 198 236 c 1
 199 234 201 228 203 223 c 0
 205 219 209 213 211 210 c 0
 213 207 216 202 216 199 c 1
 217 196 219 190 221 185 c 0
 223 181 228 173 232 168 c 0
 237 161 241 155 243 148 c 0
 245 143 248 137 250 135 c 2
 251 133 256 129 259 126 c 2
 267 120 l 1
 268 120 271 119 274 117 c 0
 277 114 282 113 289 112 c 1
 294 112 303 109 309 106 c 1
 315 104 323 101 327 101 c 1
 331 100 338 98 342 97 c 0
 347 95 352 93 353 92 c 1
 361 90 l 1
 373 86 l 1
 375 84 383 83 389 82 c 1
 398 82 403 80 408 78 c 1
 413 75 416 75 419 75 c 1
 422 76 428 77 433 78 c 0
 437 78 443 80 445 80 c 1
 447 81 454 84 461 86 c 0
 469 88 477 91 479 92 c 0
 482 93 491 94 499 95 c 0
 513 97 516 97 525 103 c 0
 531 106 536 110 538 112 c 0
 540 114 541 118 541 163 c 0
 542 189 542 213 543 215 c 0
 544 217 545 222 545 226 c 0
 545 229 544 234 543 235 c 1
 542 237 541 242 540 247 c 0
 539 254 538 258 534 263 c 0
 531 268 528 271 525 272 c 0
 522 273 508 274 494 274 c 0
 480 274 467 275 465 276 c 0
 463 277 456 278 450 278 c 0
 442 279 434 279 429 278 c 0
 424 277 417 276 415 277 c 2
 412 277 407 280 405 282 c 0
 403 284 399 288 398 291 c 2
 396 294 395 299 395 301 c 0
 395 303 393 308 392 313 c 1
 389 321 389 321 392 329 c 0
 393 333 395 340 395 344 c 0
 395 349 396 354 398 358 c 2
 399 362 402 366 404 368 c 0
 406 370 410 372 412 373 c 1
 415 373 417 374 417 375 c 1
 418 376 432 376 449 376 c 0
 472 376 481 376 485 374 c 0
 490 372 492 372 496 374 c 0
 498 375 517 376 557 376 c 0
 614 377 614 377 621 380 c 1
 627 384 629 384 639 383 c 0
 646 383 654 381 657 380 c 1
 660 378 664 375 666 373 c 1
 667 371 670 367 671 364 c 1
 674 359 674 353 674 319 c 0
 674 292 673 277 672 273 c 0
 671 268 671 266 672 260 c 1
 674 255 674 239 675 215 c 2
 675 175 l 2
 675 174 675 160 676 145 c 2
 676 109 l 2
 676 103 675 84 675 66 c 0
 674 39 673 32 671 27 c 0
 669 23 666 19 662 16 c 0
 659 14 652 11 646 9 c 0
 640 7 634 5 633 4 c 1
 633 4 628 2 622 1 c 2
 617 -1 609 -3 604 -4 c 0
 599 -5 593 -6 591 -7 c 0
 589 -8 583 -9 579 -9 c 0
 575 -9 569 -8 567 -7 c 0
 565 -6 561 -4 558 -4 c 2
 556 -3 549 -4 542 -6 c 0
 536 -8 529 -9 528 -9 c 0
 526 -9 521 -10 517 -11 c 0
 512 -12 502 -14 495 -15 c 0
 487 -16 478 -17 475 -18 c 0
 471 -20 463 -21 445 -21 c 0
 423 -21 420 -21 415 -19 c 0
 409 -16 404 -16 370 -15 c 0
 337 -15 330 -15 326 -13 c 0
 323 -11 316 -10 311 -9 c 0
 305 -8 300 -7 298 -6 c 0
 296 -5 289 -4 283 -4 c 1
 277 -3 269 -2 266 0 c 2
 263 1 259 3 258 4 c 0
 257 5 251 7 246 8 c 0
 241 9 234 12 230 14 c 0
 227 16 220 19 215 21 c 0
 210 23 202 26 198 29 c 1
 193 31 188 33 186 34 c 0
 184 35 182 37 180 38 c 1
 179 40 175 42 171 44 c 0
 167 46 162 50 159 53 c 0
 156 56 151 60 148 62 c 0
 146 64 142 68 141 71 c 1
 139 73 136 77 134 79 c 0
 132 82 128 87 125 90 c 1
 123 94 117 101 113 105 c 0
 108 109 101 115 98 118 c 0
 94 123 91 127 90 133 c 1
 88 139 85 144 81 148 c 0
 77 152 73 158 70 163 c 0
 68 167 66 174 65 177 c 1
 65 181 63 187 61 190 c 0
 59 194 58 199 58 203 c 0
 58 207 56 214 54 219 c 0
 52 224 50 230 49 231 c 1
 48 233 47 243 45 253 c 0
 44 263 43 275 43 281 c 2
 43 298 l 2
 43 303 43 314 42 323 c 0
 41 331 39 342 38 345 c 0
 37 348 36.5 349.75 36.5 351.625 c 0
 36.5 353.5 37 355.5 38 359 c 0
 39 364 41 376 42 391 c 0
 43 403 44 417 45 420 c 0
 46 424 47 431 47 436 c 1
 48 443 49 449 53 457 c 0
 57 465 58 469 58 477 c 0
 58 483 59 491 60 496 c 0
 61 501 64 507 65 511 c 1
 67 514 69 520 71 525 c 0
 73 529 77 536 80 540 c 0
 83 545 86 550 87 553 c 1
 87 556 90 563 93 569 c 0
 96 576 100 584 101 586 c 0
 102 589 105 595 109 598 c 1
 112 602 117 608 119 612 c 0
 121 616 127 624 133 629 c 0
 138 634 146 641 150 645 c 0
 153 648 159 655 162 659 c 1
 164 664 169 669 172 671 c 0
 174 673 179 676 182 677 c 0
 185 678 191 681 194 682 c 2
 197 684 204 687 209 690 c 0
 214 694 223 699 230 702 c 0
 237 705 245 709 248 710 c 2
 251 712 254 713 255 713 c 0
 256 713 260 715 264 717 c 0
 268 719 279 723 287 725 c 0
 296 727 305 729 309 730 c 1
 312 730 317 732 320 733 c 0
EndSplineSet
Validated: 33
EndChar

StartChar: uni0048
Encoding: 72 72 41
Width: 743
GlyphClass: 2
Flags: W
LayerCount: 2
Fore
SplineSet
566 727 m 0
 568 728 571.002 728.999 574.002 728.999 c 0
 576.002 728.999 587.002 727.999 597.002 725.999 c 0
 608.002 723.999 622.002 722.999 630.002 722.999 c 0
 641.002 722.999 645.002 721.999 649.002 719.999 c 0
 654.002 717.999 656.002 714.999 660.002 706.999 c 0
 663.002 700.999 666.002 694.999 666.002 692.999 c 0
 666.002 691.999 667.002 686.999 668.002 682.999 c 0
 669.002 678.999 670.002 672.999 670.002 670.999 c 0
 670.002 667.999 669.002 662.999 668.002 659.999 c 1
 666.002 656.999 665.002 650.999 665.002 646.999 c 0
 665.002 641.999 666.002 636.999 667.002 633.999 c 1
 670.002 628.999 670.002 622.999 670.002 579.999 c 0
 670.002 530.999 670.002 530.999 665.002 523.999 c 0
 661.002 517.999 660.002 514.999 661.002 511.999 c 1
 661.002 508.999 662.002 505.999 664.002 504.999 c 1
 665.002 503.999 666.002 500.999 667.002 497.999 c 0
 668.002 493.999 668.002 490.999 666.002 484.999 c 0
 665.002 479.999 664.002 469.999 664.002 458.999 c 0
 664.002 449.999 664.04 432.002 665.002 419.999 c 0
 666.043 407.002 668.002 394.999 668.002 391.999 c 2
 669.002 387.999 669.002 383.999 668.002 377.999 c 0
 667.002 371.999 667.002 368.999 668.002 363.999 c 0
 669.002 359.999 670.002 349.999 670.002 341.999 c 0
 670.002 329.999 669.002 324.999 667.002 320.999 c 0
 665.002 317.999 665.002 313.999 665.002 302.999 c 0
 665.002 295.999 666.002 287.999 667.002 285.999 c 0
 669.002 282.999 670.002 264.999 670.002 225.999 c 0
 671.002 194.999 671.002 161.999 671.002 152.999 c 0
 671.295 150.655 671.416 146.254 671.416 140.472 c 0
 671.416 126.512 670.709 104.506 670.002 84 c 0
 669.002 36 669.002 29 666.002 20 c 0
 664.002 14 662.002 8 660.002 7 c 1
 658.002 5 654.002 3 647.002 3 c 1
 642.002 2 636.002 1 633.002 -1 c 1
 630.002 -2 625.002 -3 619.002 -3 c 0
 613.002 -3 606.002 -2 602.002 -1 c 0
 596.002 1 588.002 1 574.002 1 c 0
 555.002 1 555.002 1 541.002 7 c 0
 533.002 11 525.002 16 524.002 17 c 0
 522.002 20 521.002 24 520.002 30 c 0
 519.002 35 518.002 42 518.002 45 c 0
 517.002 50 517.002 52 521.002 57 c 0
 524.002 62 525.002 65 526.002 80 c 0
 527.002 90 528.002 110 528.002 126 c 0
 529.002 141 529.002 157 529.002 162 c 2
 529.002 177 l 1
 529.002 202 l 1
 529.002 234 l 2
 529.002 242 530.002 252 530.002 256 c 0
 531.002 261 531.002 266 530.002 272 c 0
 529.002 276 528.002 285 528.002 291 c 1
 527.002 297 526.002 304 525.002 306 c 1
 517.002 314 l 2
 515.002 316 510.002 319 508.002 319 c 2
 506.002 320 482.002 320 455.002 320 c 0
 413.002 320 405.002 321 399.002 323 c 0
 395.002 324 386.002 325 371.002 326 c 0
 352.002 326 349.002 326 340.002 323 c 0
 331.002 321 326.002 320 304.002 320 c 0
 283.002 320 278.002 321 271.002 323 c 0
 264.002 326 260.002 326 252.002 326 c 1
 245.002 325 238.002 324 232.002 321 c 2
 226.002 319 221.002 315 218.002 312 c 0
 215.002 308 213.002 304 212.002 301 c 1
 212.002 297 211.002 277 211.002 256 c 0
 210.002 234 210.002 215 210.002 212 c 0
 210.002 210 210.002 190 211.002 168 c 0
 211.002 146 212.002 105 212.002 76 c 0
 212.002 28 212.002 24 209.002 20 c 0
 208.002 18 204.002 14 201.002 12 c 0
 197.002 10 192.002 7 189.002 5 c 1
 184.002 3 178.002 3 142.002 3 c 0
 109.002 3 101.002 3 96.002 5 c 0
 93.002 6 89.002 9 86.002 10 c 1
 84.002 12 81.002 16 80.002 19 c 0
 79.002 22 77.002 32 76.002 43 c 0
 74.002 53 73.002 65 73.002 70 c 0
 73.002 75 74.002 81 75.002 84 c 0
 76.002 87 76.002 90 75.002 94 c 1
 73.002 98 72.002 112 72.002 128 c 0
 72.002 144 71.002 158 71.002 161 c 0
 71.002 163 72.002 177 72.002 191 c 0
 73.002 205 74.002 220 75.002 224 c 0
 76.002 230 76.002 234 75.002 238 c 0
 73.002 243 73.002 265 72.002 329 c 0
 72.002 376 72.002 418 71.002 422 c 0
 70.002 428 71.002 434 72.002 438 c 0
 73.002 444 73.002 447 71.002 456 c 0
 69.7656 461.562 68.9111 464.451 68.9111 467.263 c 0
 68.9111 469 69.2373 470.708 70.001 473 c 0
 72.001 478 72.001 502 73.001 589 c 0
 73.001 667 74.001 701 75.001 705 c 0
 76.001 709 78.001 713 81.001 715 c 0
 85.001 718 90.001 719 99.001 721 c 0
 108.001 723 120.001 723 148.001 723 c 0
 180.001 722 185.001 722 192.001 719 c 0
 196.001 718 201.001 715 202.001 714 c 0
 203.001 713 206.001 707 207.001 702 c 0
 209.001 696 210.001 690 211.001 687 c 1
 211.001 685 211.001 678 209.001 672 c 0
 207.001 663 207.001 661 208.001 651 c 1
 210.001 643 210.001 639 208.001 630 c 0
 207.001 623 207.001 613 207.001 606 c 0
 207.001 600 208.001 593 209.001 590 c 0
 210.001 587 211.001 569 211.001 511 c 0
 212.001 437 212.001 437 215.001 433 c 1
 219.001 430 219.001 430 299.001 430 c 0
 354.001 429 382.001 429 388.001 428 c 1
 394.001 426 398.001 426 401.001 427 c 1
 404.001 429 420.001 429 444.001 429 c 0
 474.001 429 483.001 429 487.001 427 c 0
 490.001 426 494.001 425 496.001 425 c 0
 498.001 425 504.001 427 509.001 429 c 0
 516.001 432 520.001 435 525.001 442 c 0
 531.001 450 531.001 450 531.001 505 c 0
 531.269 517.325 531.393 527.138 531.393 535.015 c 0
 531.393 556.535 530.464 563.607 529 568 c 0
 528 572 527 579 526 584 c 1
 526 589 526 596 527 599 c 0
 528 602 528 611 527 622 c 0
 527 634 527 642 528 646 c 0
 529 651 529 653 527 658 c 1
 525 661 524 668 524 674 c 0
 524 679 523 687 522 690 c 0
 520 696 520 697 522 704 c 1
 524 707 526 712 527 713 c 1
 528 715 533 717 538 718 c 0
 542 719 546 721 547 722 c 1
 548 722 552 723 555 724 c 1
 559 724 564 726 566 727 c 0
EndSplineSet
Validated: 33
EndChar

StartChar: uni0049
Encoding: 73 73 42
Width: 269
GlyphClass: 2
Flags: W
LayerCount: 2
Fore
SplineSet
93 735 m 0
 94.333 735.333 97.1113 735.445 100.889 735.445 c 0
 108.444 735.445 120 735.001 132 735.001 c 0
 152 735.001 164 734.001 167 733.001 c 0
 169 732.001 173 730.001 176 730.001 c 1
 180 729.001 185 727.001 188 726.001 c 1
 191 724.001 195 721.001 198 718.001 c 0
 201 714.001 202 711.001 202 707.001 c 0
 202 705.001 203 699.001 205 694.001 c 0
 207 688.001 208 681.001 208 674.001 c 0
 208 665.001 208 661.001 206 657.001 c 0
 203 653.001 203 648.001 203 631.001 c 2
 203 488.001 l 2
 202.667 465.668 202.556 441.445 202.556 417.704 c 0
 202.556 370.223 203 324.667 203 300 c 0
 203 263 204 221 204 206 c 0
 205 192 205 178 206 175 c 0
 207 173 207 166 207 159 c 1
 206 153 206 142 207 134 c 2
 207 106 l 2
 207 97 207 80 206 67 c 0
 205 54 205 43 205 42 c 0
 205 41 205 37 206 33 c 1
 206 29 205 23 204 20 c 0
 203 17 201 13 199 10 c 0
 198 8 194 5 192 4 c 0
 189 3 180 1 171 1 c 0
 163 0 152 -1 148 -1 c 2
 144 -2 130 -3 118 -3 c 0
 104 -3 93 -2 90 -1 c 0
 86 0 81 2 79 4 c 0
 76 6 72 9 71 12 c 0
 70 15 67 19 66 22 c 0
 65 26 64 31 64 34 c 0
 64 38 65 42 66 45 c 0
 67 47 68 51 68 52 c 0
 68 54 67 58 66 61 c 0
 64 65 64 71 64 90 c 0
 65 103 66 120 67 128 c 0
 69 140 68 143 66 152 c 0
 65 159 64 168 64 193 c 0
 64 218 64 226 66 231 c 0
 68 237 68 239 66 247 c 0
 64 255 64 267 64 322 c 2
 64 431 l 2
 64 460 65 477 66 480 c 0
 67 484 67 486 66 490 c 0
 65 494 64 512 64 537 c 0
 64 572 63 580 61 587 c 0
 59 592 58 599 58 606 c 0
 58 612 59 619 61 625 c 0
 64 633 64 637 64 663 c 0
 64 679 64 695 63 699 c 0
 62 705 63 708 65 712 c 0
 66 715 71 721 77 726 c 0
 85 734 87 735 93 735 c 0
EndSplineSet
Validated: 33
EndChar

StartChar: uni004A
Encoding: 74 74 43
Width: 488
GlyphClass: 2
Flags: W
LayerCount: 2
Fore
SplineSet
304 725 m 1
 306 725 310 726 312 726 c 0
 315 726 321 724 325 722 c 0
 333 719 335 718 361 718 c 0
 388 717 388 717 394 713 c 0
 397 710 401 708 403 707 c 1
 404 706 408 703 409 701 c 0
 411 698 413 694 413 693 c 0
 413 691 413 689 414 689 c 1
 415 688 417 685 419 682 c 0
 421 678 423 674 423 671 c 0
 423 668 422 662 420 658 c 0
 418 651 418 649 420 644 c 1
 421 639 422 623 422 594 c 0
 422.5 579.5 422.75 568.5 422.75 560.75 c 0
 422.75 553 422.5 548.5 422 547 c 0
 421 545 420 540 420 536 c 0
 420 533 420 526 421 521 c 0
 423 513 423 511 420 504 c 0
 417 495 417 495 420 487 c 0
 423 479 421.95 475.995 423 370 c 0
 424 269 424 260 426 256 c 1
 428 254 429 250 429 248 c 0
 429 246 427 241 425 237 c 0
 422 231 422 228 423 208 c 0
 423 190 422 184 421 179 c 1
 419 175 418 168 418 162 c 1
 417 157 416 148 414 142 c 0
 413 137 410 129 409 125 c 0
 408 120 404 113 401 108 c 0
 397 102 395 96 394 92 c 0
 393 88 392 82 390 79 c 2
 389 76 384 70 380 65 c 0
 375 60 371 56 371 55 c 0
 371 54 370 51 368 48 c 1
 365 46 362 43 360 42 c 0
 358 41 352 36 348 32 c 0
 344 27 336 21 332 19 c 0
 327 17 321 14 318 14 c 1
 316 13 311 12 309 11 c 0
 307 10 300 7 295 5 c 0
 290 3 282 1 278 -1 c 1
 273 -2 261 -3 244 -4 c 0
 227 -4 215 -6 211 -7 c 0
 207 -8 199 -9 191 -9 c 0
 184 -9 177 -8 177 -8 c 1
 176 -7 170 -5 163 -3 c 2
 157 0 149 2 145 2 c 1
 141 3 136 4 132 5 c 0
 129 6 123 7 120 7 c 0
 116 7 113 8 109 12 c 0
 106 15 101 18 98 20 c 0
 96 22 93 23 92 23 c 0
 91 23 86 28 80 34 c 0
 74 39 68 44 67 44 c 0
 66 44 60 50 53 57 c 0
 45 64 38 73 36 77 c 0
 34 81 31 88 31 92 c 1
 30 96 28 100 28 101 c 1
 27 101 24 107 22 114 c 0
 19 121 17 129 16 135 c 1
 16 140 14 148 13 151 c 0
 12 155 10 159 10 160 c 1
 9 160 8 172 8 186 c 0
 8 204 8 212 9 213 c 0
 10 214 12 219 13 223 c 0
 14 228 16 231 17 232 c 1
 19 233 26 233 38 232 c 0
 57 231 57 231 65 236 c 0
 70 240 73 241 76 240 c 1
 79 240 82 239 85 239 c 1
 88 238 90 238 92 240 c 0
 94 242 95 244 95 245 c 0
 95 246 97 248 99 249 c 0
 102 251 105 253 107 253 c 0
 109 253 112 252 114 250 c 1
 117 249 121 247 123 245 c 0
 126 243 130 240 131 238 c 1
 133 237 136 232 138 229 c 1
 139 226 141 218 142 212 c 0
 143 204 143 197 142 190 c 0
 141 185 141 176 141 171 c 1
 142 166 144 157 146 150 c 0
 149 142 152 136 155 133 c 0
 157 130 163 126 168 124 c 0
 173 122 179 119 181 117 c 0
 183 115 188 112 192 111 c 2
 196 109 200 107 203 107 c 2
 205 106 210 107 216 109 c 0
 223 112 227 112 233 112 c 0
 238 112 242 111 243 110 c 1
 243 109 246 109 249 109 c 0
 253 109 255 110 259 116 c 1
 264 121 266 125 267 130 c 0
 268 134 269 141 270 145 c 0
 271 149 273 155 275 159 c 0
 277 165 277 170 277 186 c 2
 277 217 l 1
 277 269 l 2
 277 299 277 311 275 315 c 0
 274 318 273 327 273 342 c 0
 273 359 274 366 275 370 c 0
 276 373 278 380 278 387 c 0
 278 395 278 402 276 408 c 0
 274 416 274 419 276 422 c 1
 277 425 277 435 277 444 c 0
 278 453 277 464 276 468 c 0
 275 472 274 478 274 483 c 2
 273 487 274 493 275 499 c 0
 276 505 277 508 276 510 c 1
 275 511 274 519 275 527 c 0
 275 539 274 543 272 546 c 0
 270 549 270 552 271 562 c 0
 271 569 273 579 274 583 c 0
 275 587 276 605 277 622 c 0
 278 635 278.5 643.5 278.5 649.625 c 0
 278.5 655.75 278 659.5 277 663 c 0
 276 670 276 674 277 680 c 0
 278 685 280 693 282 698 c 0
 285 705 287 710 293 715 c 2
 297 720 302 724 304 725 c 1
EndSplineSet
Validated: 33
EndChar

StartChar: uni004C
Encoding: 76 76 45
Width: 597
GlyphClass: 2
Flags: W
LayerCount: 2
Fore
SplineSet
115 721 m 0
 118 722 121.999 722.999 122.999 722.999 c 0
 124.999 722.999 126.999 721.999 128.999 721.999 c 1
 129.999 720.999 138.999 719.999 150.999 719.999 c 0
 160.999 719.999 172.999 718.999 176.999 718.999 c 1
 179.999 717.999 185.999 714.999 188.999 713.999 c 0
 192.999 711.999 196.999 708.999 197.999 706.999 c 2
 199.999 704.999 202.999 700.999 203.999 698.999 c 2
 210.999 688.999 l 1
 211.999 685.999 213.999 680.999 213.999 678.999 c 0
 213.999 675.999 214.999 670.999 215.999 667.999 c 0
 216.999 664.999 217.999 656.999 217.999 651.999 c 0
 217.999 644.999 216.999 637.999 214.999 632.999 c 0
 212.999 626.999 211.999 620.999 211.999 602.999 c 0
 211.999 586.999 212.999 577.999 214.999 570.999 c 0
 215.999 564.999 216.999 558.999 215.999 549.999 c 0
 215.999 543.999 214.999 535.999 214.999 532.999 c 1
 213.999 529.999 213.999 511.999 212.999 494.999 c 0
 212.999 465.999 212.999 460.999 215.999 453.999 c 0
 217.171 449.898 217.656 447.171 217.656 440.188 c 0
 217.656 435.249 217.414 428.183 217 416.999 c 0
 217 400.999 216 382.999 216 377.999 c 1
 217 373.999 216 365.999 215 360.999 c 0
 214 354.999 214 350.999 216 343.999 c 0
 217 336.999 218 327.999 218 311.999 c 0
 218 294.999 218 287.999 216 284.999 c 0
 215 282.999 214 277.999 213 274.999 c 0
 212 269.999 213 263.999 215 255.999 c 0
 217 246.999 219 235.999 219 221.999 c 0
 220 209.999 220 190.999 220 177.999 c 0
 219 165.999 219 149.999 219 141.999 c 0
 219 128.999 219 125.999 222 122.999 c 0
 223 121.999 226 118.999 228 118.999 c 1
 229 117.999 233 115.999 235 114.999 c 0
 239 112.999 249 111.999 326 111.999 c 0
 378 111.999 414 111.999 417 112.999 c 0
 420 113.999 431 114.999 443 115.999 c 0
 460 116.999 464 116.999 468 114.999 c 0
 471 112.999 476 112.999 482 112.999 c 2
 506 112.999 l 2
 516 111.999 520 111.999 527 113.999 c 0
 531 114.999 539 116.999 544 116.999 c 0
 553 117.999 554 116.999 559 112.999 c 0
 562 110.999 566 107.999 568 106.999 c 0
 570 105.999 573 103.999 574 101.999 c 0
 576 98.999 577 94.999 577 64.999 c 0
 577 32.999 577 30.999 574 23.999 c 0
 572 19.999 569 14.999 567 11.999 c 0
 565 9.99902 561 6.99902 558 4.99902 c 1
 553 2.99902 549 2.99902 527 2.99902 c 0
 513 3.99902 499 3.99902 497 3.99902 c 0
 495 3.99902 487 3.99902 480 2.99902 c 0
 472 1.99902 460 -0.000976562 453 -1.00098 c 0
 445 -2.00098 434 -3.00098 428 -3.00098 c 0
 422 -3.00098 412 -2.00098 405 -0.000976562 c 0
 396 1.99902 390 2.99902 385 1.99902 c 0
 381 1.99902 375 -0.000976562 372 -1.00098 c 0
 367 -3.00098 362 -3.00098 344 -2.00098 c 0
 332 -2.00098 312 -1.00098 299 -0.000976562 c 0
 286 -0.000976562 275 0.999023 274 1.99902 c 1
 273 1.99902 268 1.99902 264 -0.000976562 c 0
 259 -2.00098 252 -2.00098 235 -2.00098 c 2
 206 -2.00098 l 1
 175 -2.00098 l 2
 166.302 -2.41504 160.349 -2.65723 155.79 -2.65723 c 0
 149.344 -2.65723 145.687 -2.17188 141 -1 c 0
 134 2 132 2 125 0 c 0
 121 -1 115 -2 111 -3 c 1
 107 -3 104 -2 100 0 c 2
 96 1 92 5 89 7 c 1
 87 10 84 14 82 16 c 1
 80 20 80 26 79 65 c 0
 79 103 78 111 76 115 c 0
 74 118 74 121 75 127 c 0
 75 131 76 136 76 139 c 0
 76 141 75 149 75 157 c 0
 74 167 74 172 76 177 c 0
 78 182 78 185 77 189 c 0
 76 193 76 199 76 204 c 0
 76 210 75 224 75 236 c 0
 74 252 74 259 76 264 c 0
 77 267 78 278 78 288 c 0
 78 298 79 314 79 323 c 2
 79 362 l 1
 79 478 l 2
 79 534 78 571 77 574 c 0
 76 576 76 580 77 586 c 0
 78 590 79 594 79 595 c 0
 79 596 79 600 78 606 c 0
 76 613 76 616 77 620 c 0
 78 624 78 634 78 647 c 0
 77 658 76 669 76 670 c 1
 75 672 74 677 74 681 c 0
 74 687 75 692 77 696 c 0
 78 699 82 705 85 708 c 0
 88 711 93 714 96 716 c 1
 99 717 104 719 106 719 c 0
 109 719 113 720 115 721 c 0
EndSplineSet
Validated: 33
EndChar

StartChar: uni0052
Encoding: 82 82 51
Width: 676
GlyphClass: 2
Flags: W
LayerCount: 2
Fore
SplineSet
240 634 m 0
 237 635 234 636 232 637 c 1
 231 637 227 637 225 636 c 0
 222 635 218 633 215 631 c 2
 212 630 208 626 206 623 c 0
 202 617 202 616 203 608 c 0
 203 601 203 596 201 590 c 0
 199 583 199 573 199 509 c 0
 200 437 200 435 203 425 c 0
 205 420 208 414 210 412 c 1
 211 410 215 408 219 407 c 0
 222 406 232 406 239 406 c 0
 249 406 255 406 262 408 c 0
 266 410 277 412 285 413 c 0
 293 414 302 415 306 415 c 0
 309 415 316 414 322 414 c 2
 327 413 339 412 348 411 c 0
 361 410 364 410 372 413 c 0
 379 415 382 415 387 414 c 0
 391 413 395 413 396 413 c 0
 398 413 403 415 408 417 c 0
 413 419 421 423 425 424 c 0
 430 425 435 427 436 429 c 1
 437 430 439 431 440 431 c 1
 440 431 445 432 449 435 c 0
 453 437 458 440 460 441 c 0
 462 442 467 448 472 455 c 2
 478 461 484 470 486 474 c 0
 488 479 490 486 491 490 c 1
 491 495 492 503 493 507 c 0
 494 511 495 524 495 535 c 0
 495 546 495 556 494 558 c 2
 494 560 491 564 489 567 c 0
 486 570 484 575 483 579 c 0
 481 584 479 587 473 590 c 1
 469 593 464 597 461 600 c 0
 458 603 449 608 442 612 c 0
 431 618 426 619 418 620 c 0
 413 620 406 622 403 623 c 0
 401 624 393 626 386 626 c 1
 380 627 372 628 368 630 c 0
 361 632 360 632 352 629 c 0
 347 627 341 626 337 626 c 0
 334 626 326 627 320 628 c 0
 315 629 309 631 308 631 c 1
 307 632 292 632 276 632 c 0
 252 632 244 632 240 634 c 0
317 729 m 0
 336.002 729.433 354.998 729.75 370.248 729.75 c 0
 385.498 729.75 396.998 729.5 400.998 729 c 0
 408.998 729 416.998 728 420.998 727 c 1
 423.998 725 429.998 724 435.998 724 c 1
 441.998 725 446.998 724 451.998 722 c 1
 455.998 719 462.998 718 470.998 718 c 0
 478.998 717 486.998 716 493.998 713 c 0
 498.998 711 505.998 708 507.998 705 c 1
 510.998 703 514.998 701 516.998 700 c 1
 519.998 700 524.998 697 529.998 695 c 1
 533.998 692 539.998 689 541.998 689 c 1
 543.998 688 548.998 685 552.998 683 c 0
 556.998 680 561.998 677 564.998 675 c 0
 567.998 673 573.998 668 579.998 662 c 0
 584.998 657 590.998 649 594.998 645 c 1
 597.998 641 601.998 633 603.998 629 c 0
 606.998 625 609.998 618 611.998 615 c 0
 613.998 612 617.998 608 619.998 606 c 0
 621.998 604 624.998 600 625.998 597 c 0
 626.998 595 628.998 585 630.998 575 c 0
 632.998 564 633.998 554 633.998 550 c 1
 632.998 546 631.998 537 630.998 531 c 0
 629.998 524 629.998 514 629.998 509 c 0
 629.998 504 627.998 497 625.998 491 c 0
 623.998 486 621.998 480 620.998 478 c 1
 619.998 477 616.998 469 613.998 460 c 2
 609.998 452 605.998 442 602.998 437 c 0
 599.998 433 595.998 428 594.998 427 c 0
 592.998 425 587.998 420 582.998 417 c 0
 577.998 414 571.998 408 568.998 406 c 0
 565.998 403 557.998 398 552.998 396 c 0
 546.998 394 536.998 389 530.998 386 c 0
 524.998 383 518.998 379 517.998 377 c 2
 515.998 375 514.998 373 514.998 372 c 0
 514.998 371 516.998 367 519.998 363 c 1
 523.998 359 528.998 356 536.998 352 c 0
 542.998 349 550.998 344 554.998 340 c 0
 558.998 336 564.998 331 567.998 329 c 0
 570.998 326 575.998 322 578.998 318 c 0
 580.998 314 585.998 308 589.998 304 c 0
 594.998 299 597.998 295 599.998 288 c 0
 601.998 282 603.998 277 604.998 277 c 1
 604.998 277 606.998 271 607.998 266 c 0
 608.998 260 610.998 252 610.998 248 c 1
 611.998 244 612.998 238 613.998 234 c 1
 615.998 231 617.998 221 618.998 212 c 0
 619.998 203 621.998 185 621.998 171 c 0
 622.998 156 624.998 143 625.998 139 c 1
 627.998 135 629.998 128 630.998 124 c 0
 631.998 120 632.998 110 633.998 103 c 0
 634.998 95 635.998 84 636.998 79 c 0
 637.998 73 639.998 63 641.998 57 c 0
 643.998 51 645.998 44 646.998 41 c 1
 646.998 38 648.998 33 649.998 29 c 0
 650.998 26 651.498 24.25 651.498 22.75 c 0
 651.498 21.25 650.998 20 649.998 18 c 0
 647.998 15 645.998 11 643.998 10 c 2
 641.998 8 638.998 6 636.998 5 c 0
 633.998 3 628.998 3 621.998 3 c 0
 615.998 3 594.998 3 573.998 2 c 2
 529.998 2 l 1
 524.998 3 521.998 5 514.998 11 c 0
 509.998 16 504.998 21 503.998 24 c 0
 502.998 27 501.998 35 500.998 45 c 0
 500.998 57 499.998 64 497.998 68 c 0
 495.998 72 494.998 80 494.998 97 c 0
 493.998 113 492.998 121 490.998 125 c 0
 488.998 130 488.998 134 489.998 150 c 0
 489.998 166 489.998 169 486.998 177 c 1
 485.998 182 483.998 190 482.998 196 c 0
 481.998 201 479.998 209 478.998 213 c 0
 477.998 218 475.998 224 474.998 227 c 1
 472.998 230 471.998 235 471.998 237 c 0
 471.998 240 471.998 244 470.998 247 c 0
 469.998 250 467.998 253 466.998 254 c 1
 465.998 254 463.998 258 461.998 262 c 0
 458.998 267 453.998 273 449.998 277 c 1
 445.998 280 438.998 285 435.998 287 c 0
 431.998 289 426.998 293 424.998 295 c 0
 422.998 297 419.998 300 417.998 301 c 0
 414.998 302 409.998 304 404.998 304 c 1
 399.998 305 392.998 306 388.998 307 c 0
 383.998 308 374.998 308 368.998 308 c 0
 366.948 307.707 363.268 307.586 358.41 307.586 c 0
 346.683 307.586 328.091 308.293 308.999 309 c 0
 282.999 309 260.999 310 259.999 310 c 0
 258.999 310 255.999 310 252.999 309 c 0
 248.999 308 244.999 309 238.999 311 c 0
 229.999 313 229.999 313 221.999 310 c 0
 216.999 308 211.999 305 209.999 303 c 0
 207.999 301 205.999 297 205.999 291 c 1
 204.999 287 203.999 281 202.999 278 c 1
 200.999 275 200.999 271 200.999 269 c 0
 200.999 267 201.999 264 202.999 261 c 0
 204.171 258.657 204.656 255.628 204.656 248.495 c 0
 204.656 243.451 204.414 236.355 204 226 c 0
 204 210 203 192 203 187 c 0
 203 182 204 172 204 164 c 0
 205 154 205 149 204 147 c 0
 203 145 202 135 201 125 c 0
 201 115 200 86 200 61 c 0
 199 20 199 14 197 11 c 0
 195 9 192 6 188 4 c 0
 185 2 180 0 178 -1 c 1
 176 -1 171 -1 166 0 c 1
 162 2 152 2 142 2 c 0
 130 2 123 1 119 -1 c 0
 116 -2 112 -3 110 -3 c 0
 108 -3 105 -2 102 -1 c 0
 100 0 95 1 91 2 c 1
 88 2 83 4 81 5 c 1
 79 7 76 9 75 12 c 1
 73 14 73.1426 25.0068 72 49 c 0
 71 70 70 85 69 88 c 0
 67 93 67 98 68 111 c 0
 69 121 70 131 69 134 c 1
 69 138 70 143 70 147 c 0
 71 152 71 156 68 163 c 1
 66 171 65 174 66 189 c 0
 67 199 68 209 69 212 c 0
 70 214 72 222 72 229 c 0
 73 239 72 243 70 251 c 0
 68 256 67 262 67 265 c 0
 67 268 68 273 69 276 c 0
 70 280 71 286 71 290 c 0
 71 294 71 300 70 303 c 0
 69 306 68 314 68 321 c 2
 67 328 67 347 67 362 c 0
 67 378 67 396 68 403 c 0
 69 411 70 423 71 430 c 1
 71 441 71 446 69 451 c 0
 67 455 67 459 67 466 c 1
 68 470 68 477 68 481 c 0
 68 484 67.9473 499.997 67 517 c 0
 65.9414 535.997 65 548 63 553 c 0
 62 557 61 564 61 567 c 0
 61 571 62 577 63 580 c 1
 65 583 66 590 66 595 c 0
 66 600 67 628 67 655 c 0
 67 694 67 707 69 710 c 0
 70 712 73 716 76 718 c 0
 79 721 84 724 86 726 c 1
 91 729 94 729 158 729 c 0
 216 729 225 729 230 727 c 1
 235 724 237 724 242 726 c 0
 247 728 265.004 727.816 317 729 c 0
EndSplineSet
Validated: 33
EndChar

StartChar: uni0055
Encoding: 85 85 54
Width: 771
GlyphClass: 2
Flags: W
LayerCount: 2
Fore
SplineSet
140 739 m 1
 147.001 739 l 1
 150.001 738 159.001 737 167.001 736 c 0
 174.001 736 181.001 734 182.001 734 c 1
 183.001 733 187.001 731 190.001 730 c 1
 194.001 730 199.001 727 200.001 726 c 0
 202.001 724 204.001 722 204.001 721 c 0
 204.001 720 202.001 715 201.001 710 c 0
 199.001 704 198.001 700 199.001 696 c 2
 199.001 694 202.001 687 205.001 683 c 0
 210.001 674 210.001 674 210.001 652 c 0
 210.001 634 210.001 629 213.001 621 c 0
 215.001 613 215.001 611 214.001 606 c 0
 213.001 603 212.001 590 212.001 577 c 0
 211.001 564 211.001 532 211.001 505 c 0
 210.501 490.5 210.251 477.5 210.251 467.5 c 0
 210.251 457.5 210.501 450.5 211.001 448 c 0
 212.001 443 213.001 431 213.001 422 c 0
 213.001 414 212.001 402 212.001 396 c 0
 211.001 388 211.001 384 213.001 380 c 0
 215.001 376 216.001 372 215.001 356 c 0
 215.001 346 214.001 335 213.001 332 c 0
 212.001 327 212.001 323 213.001 314 c 0
 215.001 306 215.001 291 215.001 271 c 0
 215.001 246 216.001 239 218.001 228 c 0
 220.001 221 222.001 213 223.001 211 c 1
 223.001 208 226.001 201 228.001 194 c 0
 231.001 187 234.001 179 234.001 176 c 1
 236.001 171 240.001 166 254.001 152 c 0
 264.001 142 276.001 131 281.001 127 c 0
 286.001 124 292.001 119 296.001 117 c 0
 300.001 115 305.001 113 310.001 112 c 1
 315.001 112 323.001 110 327.001 109 c 0
 332.001 107 338.001 106 345.001 106 c 0
 351.001 106 359.001 105 363.001 104 c 1
 367.001 102 373.001 101 377.001 101 c 0
 380.001 101 385.001 102 389.001 104 c 1
 393.001 105 401.001 106 412.001 106 c 0
 422.001 106 431.001 107 437.001 108 c 0
 442.001 109 448.001 111 451.001 112 c 0
 455.001 113 459.001 114 462.001 115 c 0
 464.001 116 471.001 119 478.001 122 c 0
 484.001 124 493.001 129 498.001 132 c 0
 505.001 136 510.001 140 516.001 149 c 0
 521.001 156 528.001 164 532.001 168 c 0
 536.001 172 539.001 178 540.001 181 c 0
 541.001 184 542.001 188 542.001 192 c 0
 542.001 195 543.001 200 547.001 206 c 1
 549.001 211 552.001 218 553.001 222 c 1
 553.001 226 556.001 232 559.001 237 c 0
 563.001 243 564.001 246 564.001 251 c 0
 564.001 255 563.001 260 562.001 263 c 0
 560.537 265.928 559.608 269.392 559.608 286.338 c 0
 559.608 292.541 559.732 300.55 560 311 c 0
 561 335 561 358 561 361 c 0
 561 365 561 373 560 379 c 0
 559 388 560 391 562 400 c 1
 566 410 566 410 563 418 c 0
 561 425 560 429 561 434 c 0
 562 438 562 449 561 458 c 0
 561 468 562 476 563 482 c 0
 564 486 565 497 565 505 c 0
 565 514 565 527 564 534 c 0
 563 541 562 548 561 550 c 0
 560 552 559 570 559 603 c 0
 559 639 559 658 557 670 c 0
 556 679 554 690 554 693 c 0
 554 697 554 700 555 701 c 0
 556 702 557 707 559 712 c 0
 561 718 563 722 566 726 c 1
 569 728 575 731 578 733 c 1
 584 734 593 735 624 735 c 0
 656 735 663 734 669 732 c 0
 672 731 676 729 678 728 c 1
 679 726 682 722 683 719 c 0
 686 713 686 709 687 678 c 0
 687 650 688 642 690 637 c 0
 692 631 692 630 690 625 c 1
 688 622 687 616 687 612 c 0
 686 606 686 603 689 596 c 0
 692 587 692 587 692 470 c 0
 692 388 690.91 349.009 690 339 c 0
 689 328 689 321 690 308 c 0
 690.732 301.777 691.196 297.832 691.196 294.547 c 0
 691.196 288.856 689.804 285.144 686 275 c 0
 682 265 680 256 680 251 c 0
 680 246 681 239 683 234 c 1
 684 229 686 223 686 220 c 0
 686 217 685 213 683 210 c 0
 682 208 681 202 680 198 c 0
 679 194 677 186 675 181 c 0
 673 177 671 169 671 165 c 0
 670 160 668 154 667 151 c 1
 665 149 663 143 662 140 c 0
 661 137 658 129 653 124 c 2
 649 118 641 108 634 102 c 1
 628 95 623 89 623 88 c 0
 623 87 621 85 619 83 c 0
 617 81 610 77 605 75 c 0
 598 71 594 68 590 63 c 0
 587 59 581 54 578 52 c 0
 575 50 570 46 567 43 c 0
 564 40 559 38 556 37 c 0
 552 36 549 34 547 33 c 1
 546 31 543 29 540 28 c 0
 536 26 532 25 529 25 c 0
 527 25 522 23 517 20 c 0
 513 17 507 14 503 14 c 1
 500 13 493 12 489 11 c 0
 485 10 479 9 476 9 c 0
 473 9 466 8 462 6 c 1
 457 5 448 4 443 4 c 0
 437 4 428 4 423 3 c 0
 418 2 410 0 406 -1 c 0
 401 -2 392 -3 382 -3 c 0
 374 -3 362 -4 357 -5 c 0
 354.438 -5.36621 352.277 -5.59863 350.028 -5.59863 c 0
 346.134 -5.59863 341.974 -4.90234 335 -3 c 0
 328 -2 319 -1 316 -1 c 1
 313 -2 305 -1 299 1 c 2
 293 2 285 4 281 5 c 1
 277 7 268 11 261 14 c 1
 255 18 246 21 242 22 c 0
 239 23 233 24 231 26 c 1
 228 27 222 30 215 33 c 0
 209 36 201 40 196 43 c 0
 192 46 180 56 170 66 c 0
 160 76 151 84 150 84 c 1
 150 84 147 85 145 87 c 0
 143 89 141 93 140 95 c 0
 139 97 134 103 130 107 c 2
 121 116 l 1
 121 117 120 120 118 122 c 0
 116 125 112 130 108 135 c 0
 104 139 100 145 100 148 c 1
 99 151 97 156 96 159 c 0
 95 163 93 168 93 172 c 0
 93 175 92 181 91 185 c 0
 90 189 89 195 88 198 c 1
 88 202 86 209 83 213 c 1
 80 220 80 223 79 237 c 0
 79 246 78 254 77 256 c 1
 76 257 75 268 75 280 c 0
 75 294 74 303 73 305 c 0
 72 307 71 314 71 322 c 0
 71 333 72 338 74 342 c 0
 76 347 76 355 76 421 c 0
 76.293 437.109 76.4141 450.216 76.4141 460.822 c 0
 76.4141 486.429 75.707 497.464 75 500.999 c 0
 74 504.999 73 510.999 73 513.999 c 0
 73 516.999 72 555.999 72 599.999 c 0
 71.6338 627.451 71.4014 645.659 71.4014 657.957 c 0
 71.4014 679.258 72.0977 682.83 74 686 c 0
 76 690 77 696 77 707 c 0
 78 719 78 723 81 726 c 2
 82 729 86 731 90 733 c 0
 93 734 100 735 106 736 c 1
 112 736 122 737 128 737 c 0
 134 737 140 738 140 739 c 1
EndSplineSet
Validated: 33
EndChar

StartChar: uni0058
Encoding: 88 88 57
Width: 727
GlyphClass: 2
Flags: W
LayerCount: 2
Fore
SplineSet
609 745 m 0
 613 746 628 745.998 644 745.998 c 0
 651.314 746.26 656.717 746.453 660.852 746.453 c 0
 672.546 746.453 674.09 744.909 680 738.999 c 0
 687 731.999 688 729.999 688 726.999 c 1
 687 723.999 686 718.999 685 714.999 c 0
 684 710.999 682 704.999 681 701.999 c 1
 679 698.999 676 692.999 673 689.999 c 0
 670 685.999 664 680.999 660 677.999 c 1
 654 674.999 650 670.999 648 665.999 c 0
 646 661.999 641 653.999 637 648.999 c 0
 634 643.999 628 634.999 626 629.999 c 0
 623 623.999 617 615.999 610 608.999 c 0
 602 600.999 597 593.999 592 583.999 c 0
 588 576.999 581 565.999 576 559.999 c 0
 571 553.999 566 547.999 565 546.999 c 1
 564 546.999 561 541.999 559 536.999 c 1
 556 531.999 554 526.999 553 526.999 c 1
 552 525.999 549 521.999 546 517.999 c 0
 543 513.999 536 504.999 531 498.999 c 0
 525 491.999 520 485.999 520 484.999 c 1
 520 484.999 520 483.999 519 482.999 c 2
 519 482.999 516 478.999 513 473.999 c 1
 509 469.999 506 465.999 506 465.999 c 1
 505 465.999 502 461.999 500 456.999 c 0
 498 452.999 494 446.999 491 443.999 c 0
 488 440.999 485 436.999 485 434.999 c 0
 485 432.999 481 427.999 476 422.999 c 1
 472 416.999 467 410.999 467 408.999 c 2
 466 406.999 466 399.999 466 392.999 c 1
 467 385.999 468 377.999 469 375.999 c 0
 470 373.999 472 369.999 474 366.999 c 2
 488 345.999 l 2
 493 336.999 502 325.999 506 321.999 c 0
 511 316.999 516 309.999 518 305.999 c 0
 521 301.999 527 292.999 532 286.999 c 0
 537 279.999 544 271.999 546 269.999 c 0
 548 266.999 550 264.999 550 263.999 c 1
 550 263.999 551 261.999 552 260.999 c 0
 553 259.999 556 256.999 558 252.999 c 2
 561 249.999 564 243.999 567 239.999 c 0
 569 236.999 572 231.999 574 230.999 c 0
 576 229.999 579 224.999 582 218.999 c 0
 585 213.999 588 206.999 591 204.999 c 1
 593 201.999 599 194.999 605 187.999 c 0
 611 180.999 617 173.999 618 170.999 c 1
 620 168.999 623 163.999 625 160.999 c 0
 627 157.999 629 154.999 629 153.999 c 1
 630 153.999 632 148.999 635 143.999 c 1
 637 138.999 643 131.999 647 126.999 c 0
 651 121.999 654 116.999 655 113.999 c 1
 655 110.999 657 106.999 659 104.999 c 0
 661 101.999 664 97.999 665 94.999 c 1
 667 92.999 670 87.999 673 83.999 c 0
 676 80.999 681 74.999 684 69.999 c 0
 687 65.999 693 57.999 698 51.999 c 0
 704 45.999 707 39.999 708 36.999 c 1
 708 25.999 l 1
 707 21.999 706 19.999 702 17.999 c 2
 700 15.999 694 13.999 690 13.999 c 1
 686 12.999 681 11.999 679 10.999 c 1
 677 10.999 664 9.99902 650 8.99902 c 0
 636 8.99902 613 7.99902 598 7.99902 c 0
 577 7.99902 571 8.99902 564 10.999 c 0
 558 12.999 554 14.999 549 20.999 c 0
 545 24.999 540 30.999 538 34.999 c 0
 537 37.999 533 41.999 531 44.999 c 0
 529 46.999 525 50.999 524 53.999 c 2
 522 56.999 520 59.999 520 60.999 c 0
 520 61.999 518 66.999 515 70.999 c 1
 511 74.999 509 78.999 509 79.999 c 1
 509 79.999 506 85.999 504 90.999 c 0
 501 96.999 495 106.999 490 113.999 c 0
 485 120.999 477 132.999 473 139.999 c 2
 464 157.999 l 1
 463 158.999 456 167.999 450 175.999 c 2
 435 197.999 l 2
 433 201.999 429 206.999 426 209.999 c 0
 424 211.999 421 216.999 420 219.999 c 1
 418 222.999 415 227.999 413 231.999 c 0
 411 234.999 409 237.999 409 238.999 c 1
 409 238.999 407 241.999 405 243.999 c 1
 404 246.999 401 249.999 400 251.999 c 2
 397 257.999 l 2
 396 259.999 393 263.999 390 267.999 c 0
 387 270.999 383 276.999 380 280.999 c 0
 378 283.999 373 288.999 370 290.999 c 0
 366 293.999 363 294.999 357 294.999 c 0
 351 294.999 349 294.999 344 288.999 c 1
 340 285.999 334 279.999 330 276.999 c 1
 327 272.999 323 267.999 321 265.999 c 1
 320 262.999 317 257.999 315 254.999 c 0
 312 251.999 309 244.999 307 240.999 c 0
 304 236.999 301 230.999 298 227.999 c 0
 295 224.999 288 213.999 283 202.999 c 0
 278 192.999 271 181.999 269 178.999 c 0
 266 175.999 262 171.999 261 169.999 c 2
 259 167.999 257 162.999 256 159.999 c 0
 255 155.999 251 149.999 244 142.999 c 0
 239 137.999 233 129.999 232 127.999 c 0
 230 124.999 227 117.999 225 112.999 c 0
 223 106.999 218 98.999 213 92.999 c 0
 209 87.999 204 80.999 203 78.999 c 0
 202 75.999 200 71.999 199 69.999 c 0
 198 66.999 194 62.999 192 59.999 c 0
 189 56.999 185 51.999 183 46.999 c 0
 181 42.999 176 36.999 173 32.999 c 1
 169 28.999 165 24.999 164 22.999 c 1
 162 20.999 157 16.999 153 14.999 c 0
 148 12.999 140 9.99902 133 7.99902 c 0
 127 5.99902 118 2.99902 114 1.99902 c 0
 111.929 1.58496 109.515 1.34277 106.402 1.34277 c 0
 102 1.34277 96.2012 1.82812 88 3 c 2
 78 3 68 5 65 6 c 0
 63 7 54 7 46 7 c 0
 36 7 29 8 27 9 c 0
 24 11 21 14 19 16 c 0
 17 19 15 24 14 27 c 0
 13 30 13 35 13 38 c 1
 14 41 15 43 16 44 c 1
 17 44 21 48 26 52 c 0
 31 56 36 61 39 64 c 0
 41 66 43 69 43 69 c 1
 43 70 45 73 47 76 c 0
 50 79 52 82 53 83 c 1
 53 84 55 87 57 90 c 0
 59 94 62 98 64 101 c 0
 66 104 70 110 73 115 c 0
 76 119 81 126 84 129 c 0
 87 133 91 138 92 141 c 1
 94 144 98 150 102 154 c 0
 106 159 109 163 109 164 c 0
 109 165 111 167 113 170 c 0
 115 172 120 178 123 183 c 0
 127 188 131 196 134 201 c 1
 136 206 140 211 142 212 c 1
 143 213 149 220 153 227 c 2
 158 233 162 239 162 240 c 0
 162 241 163 244 164 247 c 1
 166 250 170 256 174 261 c 0
 178 265 183 271 185 273 c 0
 186 274 191 280 195 284 c 0
 199 289 205 296 209 300 c 0
 212 303 217 308 218 311 c 0
 219 313 223 319 226 323 c 0
 230 328 232 332 232 333 c 1
 232 333 233 335 234 336 c 2
 235 338 238 342 241 347 c 0
 243 351 246 357 248 359 c 2
 249 361 252 364 253 366 c 0
 254 368 257 372 259 374 c 0
 261 377 263 381 263 383 c 0
 263 385 262 391 260 395 c 0
 258 400 254 407 251 410 c 2
 249 414 246 417 246 417 c 2
 245 418 240 425 235 433 c 0
 230 441 224 451 222 455 c 0
 220 460 218 465 216 468 c 0
 214 470 210 475 207 479 c 0
 204 483 200 489 198 492 c 0
 195 496 191 503 188 508 c 0
 184 513 178 521 173 526 c 0
 168 532 163 539 162 542 c 0
 161 545 159 548 159 549 c 1
 158 550 156 553 153 556 c 0
 151 558 148 562 147 564 c 2
 146 565 145 569 143 571 c 1
 142 574 140 576 140 576 c 1
 139 576 136 578 133 581 c 0
 131 584 127 589 126 592 c 0
 125 595 123 600 122 603 c 1
 120 606 117 610 115 612 c 1
 113 613 108 619 105 624 c 0
 101 629 96 635 95 637 c 0
 93 640 90 645 88 649 c 0
 86 652 82 659 79 662 c 0
 76 666 72 671 70 674 c 0
 68 676 65 682 63 686 c 0
 61 690 58 696 55 699 c 0
 53 702 49 708 47 712 c 0
 43 719 43 721 44 726 c 0
 45 730 46 732 52 735 c 0
 58 739 60 740 73 740 c 0
 81 740 103 741 123 741 c 0
 142 742 162 742 167 742 c 0
 172 742 178 741 183 739 c 0
 187 737 192 733 194 731 c 0
 196 729 199 724 202 721 c 2
 217 699 l 2
 223 690 231 679 234 675 c 0
 237 670 242 665 245 662 c 0
 247 660 252 653 254 648 c 1
 257 643 260 637 262 635 c 0
 264 633 268 627 271 623 c 0
 275 618 278 613 279 612 c 1
 279 610 282 606 285 603 c 2
 287 599 291 595 292 593 c 1
 294 592 298 587 300 582 c 1
 303 578 307 571 310 568 c 0
 312 565 316 559 317 555 c 2
 319 551 321 547 321 545 c 0
 321 543 322 539 324 536 c 2
 329 531 l 1
 330 531 331 529 332 527 c 1
 332 526 335 522 338 519 c 0
 340 516 345 510 348 506 c 0
 351 502 355 496 357 492 c 0
 360 488 364 484 366 483 c 0
 368 482 372 481 374 481 c 0
 376 481 379 481 381 482 c 1
 382 483 385 487 388 491 c 1
 390 496 394 500 395 501 c 1
 397 502 401 507 405 513 c 2
 419 531 l 2
 423 536 427 542 428 544 c 0
 430 547 433 552 435 556 c 1
 436 561 440 568 444 572 c 1
 447 576 452 585 456 592 c 0
 459 599 465 609 469 614 c 0
 473 618 477 625 479 628 c 0
 480 630 483 635 486 639 c 0
 489 642 491 645 491 646 c 0
 491 647 495 655 500 665 c 0
 506 676 512 686 517 692 c 0
 522 697 526 703 527 704 c 1
 527 705 529 708 530 710 c 1
 532 712 535 716 537 720 c 0
 539 723 542 726 543 728 c 1
 544 729 547 731 551 733 c 0
 554 735 558 738 560 739 c 1
 561 740 572 741 583 742 c 0
 594 743 606 744 609 745 c 0
EndSplineSet
Validated: 41
EndChar

StartChar: uni005E
Encoding: 94 94 63
Width: 496
GlyphClass: 2
Flags: W
LayerCount: 2
Fore
SplineSet
219 739 m 1
 221 740 223 741 225 741 c 0
 228 741 233 740 236 738 c 1
 241 737 249 736 261 736 c 0
 276 736 279 736 286 733 c 0
 291 731 296 727 298 724 c 0
 301 721 304 715 305 712 c 0
 306 708 308 702 309 699 c 1
 311 696 313 692 314 691 c 0
 315 690 317 685 319 680 c 1
 320 675 322 668 323 664 c 0
 324 660 327 654 328 651 c 2
 335 637 l 2
 337 633 339 626 340 622 c 0
 341 618 343 612 344 609 c 1
 346 607 348 602 349 599 c 0
 350 596 352 590 354 585 c 0
 356 581 358 576 358 575 c 0
 358 573 359 567 361 562 c 0
 363 556 366 550 367 547 c 1
 369 544 371 540 372 537 c 0
 373 535 375 531 377 528 c 0
 378 526 380 521 381 518 c 0
 382 515 383 512 384 511 c 0
 385 510 387 504 390 498 c 0
 393 492 397 483 399 478 c 0
 401 474 405 465 406 459 c 2
 408 454 409 446 410 442 c 0
 411 438 413 434 416 430 c 0
 419 427 423 422 425 419 c 0
 426 417 429 412 431 408 c 0
 433 404 434 401 434 400 c 0
 434 399 436 395 439 391 c 0
 442 387 445 381 445 379 c 1
 446 377 447 373 448 369 c 0
 449 365 450 361 450 358 c 0
 450 355 448 352 445 348 c 1
 439 343 439 343 402 343 c 0
 370 344 365 344 359 347 c 0
 356 349 351 352 349 354 c 0
 347 356 344 361 343 364 c 0
 342 367 341 373 341 376 c 0
 340 381 338 385 334 390 c 0
 331 394 327 401 325 406 c 1
 324 411 320 419 319 423 c 0
 317 428 315 435 314 439 c 1
 314 444 312 451 311 456 c 0
 310 460 308 464 307 466 c 1
 306 467 305 470 303 472 c 1
 302 475 299 480 297 484 c 0
 295 487 292 496 290 503 c 0
 288 509 286 518 285 521 c 0
 284 524 281 529 279 532 c 2
 278 535 275 539 274 541 c 1
 272 543 271 549 270 554 c 1
 270 559 268 568 266 573 c 0
 264 578 260 584 258 586 c 0
 255 590 253 590 245 590 c 0
 235 590 235 590 229 583 c 0
 224 577 223 575 222 568 c 0
 221 563 220 558 219 556 c 0
 218 554 216 549 216 545 c 0
 215 540 214 536 214 536 c 1
 213 535 211 529 209 523 c 2
 206 517 204 511 203 509 c 1
 201 507 199 501 197 496 c 0
 195 491 193 486 192 484 c 1
 192 482 189 476 186 472 c 0
 181 464 181 462 182 457 c 0
 183 454 183 449 183 446 c 1
 182 443 181 437 180 434 c 0
 179 430 177 426 175 424 c 0
 173 421 170 418 169 415 c 0
 168 413 166 407 165 403 c 0
 164 399 162 394 160 392 c 0
 158 389 155 384 154 379 c 0
 153 375 150 368 149 364 c 2
 147 360 146 355 145 353 c 1
 145 352 143 349 141 346 c 0
 137 342 137 342 120 343 c 0
 110 344 99 343 95 343 c 1
 91 342 80 342 71 342 c 0
 62 343 52 344 50 345 c 0
 48 346 45 349 44 352 c 0
 43.5 353.5 43.25 355 43.25 357.125 c 0
 43.25 359.25 43.5 362 44 366 c 0
 45 371 47 377 49 380 c 0
 50 382 53 388 55 393 c 0
 57 397 59 402 60 403 c 0
 61 404 63 407 64 411 c 0
 65 414 66 419 68 422 c 2
 69 425 74 434 79 442 c 0
 86 455 88 458 88 467 c 1
 89 472 90 479 91 481 c 0
 92 483 93 487 94 489 c 1
 94 492 98 498 101 503 c 0
 105 508 108 514 109 518 c 0
 110 521 112 526 114 528 c 1
 115 531 117 534 117 536 c 0
 117 538 117 543 118 546 c 0
 119 549 121 553 124 556 c 0
 126 559 129 564 130 568 c 1
 132 572 135 577 136 579 c 1
 138 581 140 586 141 589 c 1
 141 592 144 600 147 607 c 0
 150 614 153 622 155 625 c 1
 156 629 158 635 159 639 c 0
 160 643 163 649 165 652 c 0
 167 655 170 661 172 665 c 0
 174 669 175 674 175 676 c 0
 175 678 176 681 177 683 c 1
 178 684 181 692 184 699 c 0
 187 707 190 716 192 720 c 0
 193 723 197 728 200 730 c 0
 203 733 208 735 211 736 c 0
 215 737 218 738 219 739 c 1
EndSplineSet
Validated: 33
EndChar

StartChar: uni005F
Encoding: 95 95 64
Width: 455
GlyphClass: 2
Flags: W
LayerCount: 2
Fore
SplineSet
374 27 m 0
 378 28 388 29 395 29 c 0
 404 29 410 29 413 27 c 0
 415 26 421 24 425 24 c 0
 430 23 436 21 439 19 c 2
 442 18 446 14 448 11 c 0
 450 9 453 5 454 2 c 0
 455 0 456 -4 456 -5 c 0
 456 -7 455 -11 453 -13 c 2
 452 -15 448 -20 444 -23 c 0
 441 -26 436 -29 435 -30 c 1
 433 -31 423 -31 412 -32 c 0
 401 -32 373 -33 350 -33 c 0
 312 -33 307 -33 300 -36 c 0
 293 -39 293 -39 284 -36 c 0
 278 -34 271 -34 254 -34 c 0
 238 -34 229 -34 223 -36 c 0
 216 -38 202 -38 163 -39 c 0
 129 -39 110 -40 106 -41 c 0
 100 -43 97 -43 90 -41 c 0
 84 -40 80 -39 76 -40 c 1
 74 -41 68 -41 63 -41 c 1
 58 -40 54 -41 50 -42 c 0
 47 -43 43 -44 41 -44 c 0
 39 -44 33 -43 29 -41 c 0
 25 -39 19 -35 16 -33 c 0
 14 -31 9 -24 6 -18 c 0
 3 -11 0 -5 0 -3 c 0
 0 -2 1 1 3 3 c 1
 5 4 9 8 12 10 c 0
 15 12 21 15 25 16 c 0
 28 17 38 18 46 18 c 0
 54 19 65 19 71 19 c 0
 77 19 82 20 84 21 c 0
 87 23 93 23 103 23 c 0
 112 23 123 22 129 21 c 0
 139 19 141 19 151 20 c 1
 158 22 176 23 203 23 c 0
 225 23 246 23 250 22 c 0
 254 21 257 21 259 22 c 0
 261 23 282 24 314 24 c 0
 355 25 368 25 374 27 c 0
EndSplineSet
Validated: 33
EndChar

StartChar: uni0061
Encoding: 97 97 66
Width: 515
GlyphClass: 2
Flags: W
LayerCount: 2
Fore
SplineSet
297 252 m 0
 292 253 288.001 254 287.001 254 c 0
 286.001 254 281.001 252 275.001 249 c 0
 266.001 245 263.001 244 254.001 244 c 0
 247.001 244 240.001 243 236.001 241 c 1
 231.001 240 225.001 238 221.001 237 c 1
 218.001 237 211.001 235 207.001 233 c 0
 204.001 231 197.001 227 193.001 224 c 0
 189.001 221 184.001 217 182.001 216 c 1
 180.001 214 179.001 212 179.001 211 c 0
 179.001 210 176.001 207 173.001 203 c 0
 170.001 200 167.001 193 165.001 188 c 0
 163.001 183 161.001 174 160.001 167 c 0
 159.001 161 158.001 154 158.001 152 c 0
 158.001 150 158.001 144 159.001 139 c 0
 160.001 134 162.001 127 164.001 123 c 0
 166.001 119 170.001 112 174.001 108 c 1
 177.001 104 180.001 100 180.001 99 c 0
 180.001 98 183.001 95 187.001 91 c 0
 190.001 88 193.001 85 194.001 85 c 0
 195.001 85 197.001 84 200.001 82 c 0
 202.001 80 207.001 78 212.001 77 c 0
 216.001 77 223.001 75 228.001 73 c 0
 232.001 71.5 234.001 70.75 236.126 70.75 c 0
 238.251 70.75 240.501 71.5 245.001 73 c 0
 249.001 75 256.001 76 261.001 77 c 0
 265.001 77 273.001 79 278.001 81 c 0
 285.001 84 290.001 89 302.001 100 c 0
 310.001 109 318.001 118 320.001 122 c 0
 322.001 126 325.001 133 327.001 138 c 1
 328.001 143 330.001 154 331.001 162 c 0
 332.001 170 334.001 179 335.001 182 c 0
 335.501 184 335.751 186 335.751 188 c 0
 335.751 190 335.501 192 335.001 194 c 0
 334.001 198 334.001 206 335.001 218 c 0
 335.334 223.667 335.556 227.444 335.556 230.186 c 0
 335.556 235.667 334.667 237 332 241 c 0
 329 245 326 247 323 248 c 0
 320 249 315 250 312 250 c 0
 308 250 302 251 297 252 c 0
243.001 518 m 2
 267.001 518 l 2
 268.251 518.25 269.563 518.375 270.938 518.375 c 0
 275.063 518.375 279.751 517.25 285.001 515 c 0
 293.001 512 300.001 511 311.001 511 c 0
 320.001 510 328.001 509 335.001 507 c 0
 340.001 505 350.001 502 357.001 499 c 0
 364.001 496 373.001 493 376.001 491 c 2
 384.001 487 l 1
 385.001 486 390.001 484 393.001 482 c 1
 397.001 481 405.001 474 412.001 468 c 0
 419.001 461 426.001 454 428.001 451 c 0
 430.001 447 434.001 440 436.001 434 c 2
 439.001 429 443.001 417 445.001 407 c 0
 447.001 398 450.001 389 451.001 387 c 0
 452.001 385 452.956 373.996 454.001 362 c 0
 454.96 350.996 455.001 338 455.001 334 c 2
 455.001 297 l 1
 455.001 259 l 1
 455.001 208 l 1
 455.001 134 l 2
 455.001 106 455.001 101 458.001 93 c 2
 459.001 88 462.001 79 463.001 73 c 0
 465.001 63 465.001 62 462.001 54 c 0
 460.001 46 459.001 44 461.001 38 c 0
 462.001 34 463.001 30 464.001 30 c 1
 465.001 29 465.001 26 465.001 23 c 0
 465.001 19 464.001 15 463.001 13 c 1
 462.001 12 459.001 9 456.001 8 c 0
 454.001 7 446.001 5 438.001 4 c 0
 425.001 3 422.001 3 416.001 5 c 0
 410.001 7 407.001 7 400.001 5 c 0
 396.001 4 389.001 4 385.001 4 c 0
 380.001 4 375.001 5 370.001 8 c 2
 365.001 10 360.001 13 359.001 15 c 0
 358.001 17 355.001 21 353.001 24 c 0
 351.001 28 351.001 31 351.001 38 c 1
 352.001 45 352.001 50 350.001 56 c 0
 347.001 63 346.001 64 341.001 66 c 0
 336.001 68 334.001 68 329.001 66 c 0
 323.001 64 322.001 63 318.001 56 c 0
 316.001 52 313.001 46 311.001 44 c 0
 309.001 42 303.001 37 297.001 32 c 0
 291.001 28 284.001 21 280.001 18 c 0
 277.001 15 270.001 10 266.001 8 c 0
 261.001 6 253.001 3 248.001 3 c 1
 243.001 2 235.001 -1 229.001 -4 c 0
 222.091 -7.45508 219.001 -8.52246 215.441 -8.52246 c 0
 213.85 -8.52246 212.164 -8.30859 210.001 -8 c 0
 206.001 -8 199.001 -7 194.001 -6 c 1
 182.001 -6 l 1
 181.001 -7 171.001 -7 161.001 -6 c 0
 147.001 -5 141.001 -4 137.001 -2 c 0
 133.001 0 129.001 1 126.001 2 c 1
 124.001 2 120.001 4 117.001 5 c 1
 115.001 7 112.001 8 112.001 9 c 0
 112.001 10 109.001 12 106.001 14 c 0
 102.001 17 98.001 19 97.001 19 c 0
 96.001 19 93.001 20 90.001 22 c 2
 87.001 23 84.001 27 82.001 29 c 0
 80.001 32 79.001 34 79.001 35 c 1
 79.001 35 76.001 39 73.001 42 c 0
 70.001 45 66.001 50 64.001 52 c 0
 62.001 55 61.001 58 61.001 58 c 1
 61.001 59 59.001 62 56.001 66 c 0
 53.001 70 50.001 75 49.001 79 c 0
 48.001 82 46.001 89 43.001 93 c 1
 39.001 102 39.001 102 39.001 133 c 0
 39.001 158 39.001 165 41.001 168 c 1
 42.001 171 44.001 176 44.001 181 c 0
 44.001 185 47.001 194 49.001 200 c 1
 56.001 214 l 1
 58.001 215 61.001 220 63.001 224 c 0
 65.001 228 71.001 236 76.001 242 c 0
 81.001 247 86.001 253 87.001 255 c 1
 88.001 256 96.001 261 104.001 267 c 0
 111.001 272 120.001 277 123.001 278 c 0
 127.001 279 131.001 281 133.001 282 c 0
 135.001 283 140.001 286 145.001 289 c 0
 149.001 292 159.001 297 167.001 299 c 0
 176.001 302 187.001 306 193.001 307 c 2
 199.001 309 209.001 311 219.001 311 c 0
 228.001 311 238.001 312 243.001 313 c 0
 247.001 314 258.006 314.95 269.001 316 c 0
 279.005 316.955 296.001 317 306.001 317 c 0
 323.001 316 323.001 316 330.001 323 c 0
 336.001 330 337.001 331 337.001 336 c 0
 337.001 340 336.001 345 335.001 348 c 0
 333.001 353 333.001 357 333.001 365 c 0
 334.001 374 333.001 377 330.001 389 c 1
 327.001 396 326.001 403 326.001 404 c 0
 326.001 405 324.001 411 322.001 416 c 0
 320.001 421 317.001 427 315.001 429 c 0
 313.001 431 310.001 433 308.001 434 c 0
 305.001 436 302.001 436 299.001 436 c 0
 296.001 436 290.001 439 284.001 443 c 0
 274.001 449 274.001 449 263.001 448 c 0
 256.001 447 245.001 445 237.001 443 c 0
 229.001 441 219.001 438 215.001 437 c 0
 210.001 435 206.001 433 203.001 429 c 0
 200.001 425 198.001 422 198.001 421 c 1
 198.001 421 196.001 416 193.001 411 c 2
 191.001 406 186.001 397 183.001 391 c 0
 180.001 386 176.001 379 174.001 377 c 0
 171.001 373 170.001 373 153.001 373 c 0
 143.001 373 122.001 373 105.001 372 c 0
 95.7305 371.691 89.3242 371.478 84.7803 371.478 c 0
 74.6191 371.478 73.7646 372.545 71.001 376 c 0
 69.001 378 66.001 383 64.001 386 c 1
 62.001 392 62.001 393 64.001 399 c 1
 66.001 402 67.001 410 68.001 417 c 1
 68.001 423 69.001 430 70.001 431 c 1
 71.001 433 73.001 436 74.001 437 c 0
 76.001 439 80.001 446 83.001 453 c 0
 88.001 463 91.001 466 96.001 469 c 0
 99.001 471 107.001 475 113.001 479 c 0
 119.001 483 125.001 487 126.001 488 c 1
 127.001 490 132.001 492 137.001 494 c 1
 142.001 495 148.001 498 152.001 500 c 0
 156.001 502 161.001 505 164.001 507 c 0
 169.001 511 170.001 511 193.001 511 c 0
 212.001 512 219.001 513 223.001 515 c 0
 226.001 516 232.001 517 243.001 518 c 2
EndSplineSet
Validated: 33
EndChar

StartChar: uni0062
Encoding: 98 98 67
Width: 585
GlyphClass: 2
Flags: W
LayerCount: 2
Fore
SplineSet
342 421 m 0
 335 424 332 424.002 308 425.002 c 0
 301 425.502 294 425.752 288.625 425.752 c 0
 283.25 425.752 279.5 425.502 279 425.002 c 1
 277 425.002 273 424.002 271 423.002 c 0
 268 421.002 262 420.002 258 419.002 c 0
 253 418.002 248 416.002 246 414.002 c 1
 244 413.002 242 411.002 241 411.002 c 1
 240 412.002 235 408.002 230 403.002 c 0
 226 398.002 219 392.002 216 388.002 c 1
 211 384.002 209 380.002 207 374.002 c 0
 206 370.002 204 365.002 203 363.002 c 0
 202 361.002 200 358.002 198 357.002 c 1
 197 355.002 195 351.002 195 348.002 c 1
 194 344.002 193 338.002 191 333.002 c 0
 189 327.002 188 321.002 188 309.002 c 0
 188 296.002 188 290.002 185 283.002 c 0
 183.098 277.93 182.401 274.867 182.401 267.954 c 0
 182.401 263.963 182.634 258.688 183 251.001 c 0
 183 235.001 184 227.001 186 223.001 c 0
 187 220.001 189 210.001 190 201.001 c 0
 190 193.001 192 182.001 193 177.001 c 1
 195 172.001 197 165.001 199 162.001 c 2
 206 148.001 l 2
 208 144.001 210 139.001 210 137.001 c 1
 211 136.001 212 132.001 213 128.001 c 0
 214 124.001 218 119.001 231 106.001 c 0
 245 93.001 249 90.001 253 89.001 c 0
 257 88.001 262 86.001 266 83.001 c 0
 271 79.001 276 78.001 286 76.001 c 0
 292.443 74.8291 296.828 74.3438 301.365 74.3438 c 0
 304.573 74.3438 307.857 74.5859 312 75 c 0
 319 76 327 78 331 79 c 0
 334 80 341 82 344 82 c 1
 348 83 354 85 356 87 c 0
 359 89 363 93 365 96 c 0
 367 99 371 103 375 106 c 0
 379 109 385 115 388 120 c 0
 392 126 398 137 402 145 c 0
 407 154 411 165 412 170 c 0
 413 176 415 183 416 186 c 0
 417 190 418 198 419 209 c 0
 419 218 419 229 420 233 c 1
 420 237 419 243 418 247 c 0
 417 250 415 260 415 267 c 0
 414 276 413 283 411 286 c 1
 409 291 409 294 409 307 c 0
 410 320 410 325 408 332 c 0
 407 336 405 341 404 342 c 1
 402 348 l 1
 402 351 400 358 397 364 c 2
 394 373 392 376 383 386 c 0
 377 392 372 397 372 398 c 0
 372 399 370 401 369 403 c 1
 367 405 362 409 358 412 c 0
 354 415 347 419 342 421 c 0
87 725.002 m 2
 87.667 725.335 88.7793 725.447 90.2236 725.447 c 0
 93.1123 725.447 97.335 725.003 102.002 725.003 c 0
 108.002 724.003 126.002 724.003 143.002 724.003 c 0
 150.236 724.271 155.819 724.395 160.193 724.395 c 0
 172.145 724.395 175.072 723.467 178 722.003 c 0
 181 721.003 184 717.003 185 713.003 c 2
 188 707.003 188 703.003 188 661.003 c 0
 188 632.003 188 613.003 190 607.003 c 1
 191 600.003 191 596.003 190 588.003 c 0
 188.828 583.902 188.343 577.399 188.343 567.69 c 0
 188.343 560.825 188.585 552.357 188.999 542.002 c 0
 188.999 511.002 188.999 505.002 186.999 500.002 c 0
 185.999 496.002 184.999 491.002 185.999 478.002 c 0
 185.999 467.002 186.999 460.002 188.999 458.002 c 1
 189.999 456.002 193.999 453.002 196.999 451.002 c 1
 200.999 450.002 205.999 448.002 207.999 448.002 c 0
 209.999 448.002 213.999 450.002 216.999 452.002 c 0
 219.999 455.002 223.999 460.002 226.999 463.002 c 0
 229.999 467.002 233.999 471.002 235.999 474.002 c 1
 238.999 476.002 243.999 479.002 248.999 482.002 c 0
 252.999 484.002 258.999 488.002 262.999 490.002 c 1
 265.999 493.002 269.999 496.002 272.999 497.002 c 0
 274.999 498.002 281.999 500.002 286.999 500.002 c 1
 291.999 501.002 298.999 502.002 300.999 504.002 c 1
 303.999 505.002 311.999 506.002 320.999 506.002 c 0
 330.999 506.002 338.999 506.002 343.999 508.002 c 0
 347.999 509.002 353.999 510.002 355.999 509.002 c 1
 358.999 509.002 366.999 508.002 372.999 506.002 c 1
 379.999 505.002 390.999 503.002 396.999 502.002 c 0
 403.999 500.002 409.999 498.002 413.999 495.002 c 0
 416.999 493.002 420.999 490.002 423.999 489.002 c 0
 425.999 488.002 431.999 486.002 434.999 484.002 c 2
 438.999 483.002 446.999 476.002 453.999 468.002 c 0
 460.999 461.002 466.999 456.002 467.999 456.002 c 0
 468.999 456.002 472.999 453.002 477.999 450.002 c 0
 482.999 447.002 488.999 443.002 490.999 440.002 c 0
 491.999 438.002 494.999 433.002 495.999 430.002 c 0
 496.999 428.002 497.999 424.002 498.999 423.002 c 0
 499.999 422.002 502.999 417.002 504.999 412.002 c 1
 507.999 407.002 511.999 400.002 515.999 395.002 c 0
 519.999 389.002 522.999 384.002 523.999 378.002 c 0
 524.999 373.002 526.999 367.002 527.999 365.002 c 1
 529.999 364.002 530.999 359.002 532.999 355.002 c 1
 533.999 351.002 534.999 342.002 535.999 334.002 c 0
 536.999 327.002 537.999 318.002 538.999 314.002 c 0
 539.999 309.002 539.999 305.002 538.999 303.002 c 1
 538.999 296.002 l 1
 539.999 293.002 541.999 289.002 542.999 285.002 c 2
 545.999 279.002 546.999 275.002 546.999 267.002 c 0
 546.999 259.002 545.999 254.002 544.999 251.002 c 1
 542.999 248.002 541.999 244.002 541.999 241.002 c 0
 541.999 238.002 542.999 228.002 544.999 218.002 c 0
 546.999 200.002 546.999 200.002 543.999 192.002 c 0
 541.999 187.002 540.999 181.002 540.999 178.002 c 0
 540.999 175.002 538.999 166.002 535.999 158.002 c 0
 532.999 150.002 529.999 140.002 527.999 136.002 c 2
 526.999 132.002 523.999 124.002 522.999 119.002 c 1
 520.999 114.002 518.999 108.002 517.999 106.002 c 1
 517.999 99.002 l 2
 517.999 97.002 513.999 92.002 509.999 88.002 c 1
 506.999 84.002 501.999 77.002 499.999 73.002 c 0
 497.999 70.002 494.999 65.002 492.999 63.002 c 2
 491.999 61.002 487.999 59.002 483.999 57.002 c 0
 480.999 55.002 474.999 51.002 470.999 47.002 c 0
 465.999 43.002 461.999 39.002 460.999 38.002 c 1
 460.999 37.002 456.999 35.002 452.999 33.002 c 0
 448.999 31.002 442.999 27.002 439.999 24.002 c 0
 436.999 21.002 432.999 18.002 431.999 17.002 c 0
 430.999 16.002 426.999 13.002 422.999 12.002 c 2
 419.999 10.002 413.999 8.00195 409.999 7.00195 c 1
 406.999 7.00195 399.999 5.00195 394.999 4.00195 c 0
 389.999 3.00195 383.999 1.00195 381.999 0.00195312 c 0
 378.999 -0.998047 372.999 -2.99805 367.999 -4.99805 c 0
 361.999 -6.99805 351.999 -7.99805 343.999 -8.99805 c 0
 336.999 -8.99805 328.999 -8.99805 326.999 -7.99805 c 2
 324.999 -7.99805 321.999 -5.99805 317.999 -3.99805 c 0
 314.999 -1.99805 309.999 1.00195 306.999 2.00195 c 0
 302.999 3.00195 296.999 4.00195 291.999 5.00195 c 0
 285.999 6.00195 280.999 7.00195 278.999 9.00195 c 1
 276.999 10.002 271.999 12.002 268.999 13.002 c 0
 264.999 14.002 260.999 15.002 258.999 15.002 c 1
 256.999 16.002 252.999 17.002 251.999 19.002 c 1
 249.999 21.002 245.999 26.002 241.999 31.002 c 0
 238.999 36.002 234.999 41.002 232.999 43.002 c 0
 230.999 46.002 227.999 50.002 225.999 52.002 c 0
 223.999 55.002 219.999 59.002 216.999 62.002 c 0
 213.999 64.002 208.999 66.002 206.999 67.002 c 1
 203.999 67.002 199.999 67.002 198.999 66.002 c 1
 196.999 65.002 194.999 63.002 194.999 60.002 c 1
 193.999 58.002 192.999 54.002 191.999 52.002 c 0
 190.999 49.002 189.999 42.002 188.999 36.002 c 1
 188.999 29.002 186.999 22.002 185.999 19.002 c 0
 184.999 15.002 181.999 12.002 177.999 10.002 c 0
 171.999 6.00195 168.999 6.00195 156.999 6.00195 c 0
 148.999 5.00195 137.999 6.00195 131.999 6.00195 c 1
 124.999 7.00195 120.999 7.00195 116.999 6.00195 c 0
 113.999 5.00195 103.999 4.00195 95.999 4.00195 c 0
 87.999 4.00195 79.999 4.00195 76.999 5.00195 c 0
 74.999 6.00195 69.999 10.002 67.999 13.002 c 0
 64.999 16.002 61.999 21.002 59.999 24.002 c 1
 58.999 27.002 56.999 32.002 56.999 33.002 c 0
 56.999 35.002 57.999 38.002 58.999 40.002 c 0
 59.999 42.002 61.999 53.002 61.999 68.002 c 0
 62.999 82.002 62.999 95.002 62.999 98.002 c 0
 62.999 100.002 62.999 107.002 61.999 114.002 c 1
 61.999 123.002 61.999 127.002 63.999 130.002 c 1
 64.999 133.002 65.999 136.002 65.999 138.002 c 0
 65.999 140.002 64.999 144.002 63.999 146.002 c 0
 61.999 149.002 61.999 159.002 61.999 199.002 c 0
 61.999 226.002 60.999 253.002 60.999 260.002 c 0
 60.999 269.002 61.999 275.002 63.999 281.002 c 0
 65.999 289.002 65.999 290.002 63.999 295.002 c 0
 61.999 300.002 61.999 307.002 61.999 347.002 c 0
 61.999 375.002 62.999 396.002 63.999 400.002 c 0
 64.999 406.002 64.999 408.002 62.999 414.002 c 0
 60.999 418.002 59.999 425.002 59.999 429.002 c 0
 59.999 434.002 61.999 440.002 62.999 443.002 c 1
 64.999 446.002 65.999 451.002 65.999 454.002 c 0
 65.999 456.002 64.999 461.002 63.999 464.002 c 0
 61.999 469.002 61.999 486.002 61.999 567.002 c 0
 61.7314 590.313 61.6074 608.097 61.6074 621.718 c 0
 61.6074 658.931 62.5361 665.074 64 668.002 c 0
 65 670.002 66 674.002 66 675.002 c 0
 66 677.002 65 682.002 63 686.002 c 1
 62 690.002 60 696.002 60 700.002 c 0
 60 704.002 62 707.002 66 712.002 c 0
 69 715.002 74 720.002 77 721.002 c 0
 81 723.002 85 725.002 87 725.002 c 2
EndSplineSet
Validated: 33
EndChar

StartChar: uni0063
Encoding: 99 99 68
Width: 459
GlyphClass: 2
Flags: W
LayerCount: 2
Fore
SplineSet
253 514 m 0
 255 515 258 516 260 516 c 0
 261 516 266 515 271 513 c 0
 275 512 283 510 287 508 c 1
 292 507 299 506 303 506 c 0
 306 506 311 505 313 503 c 1
 315 502 320 501 323 500 c 1
 326 500 332 498 337 497 c 1
 342 495 347 493 352 487 c 1
 356 484 362 478 366 476 c 0
 369 474 373 472 373 472 c 1
 384 465 l 2
 390 461 396 456 397 455 c 1
 398 453 400 450 402 447 c 0
 404 444 408 439 410 435 c 0
 412 431 416 426 419 422 c 0
 422 419 426 415 427 412 c 0
 428 410 430 403 432 398 c 1
 433 392 434 385 435 382 c 2
 435 379 437 373 439 369 c 0
 440 366 441 360 441 356 c 0
 441 352 440 347 439 346 c 2
 438 344 435 341 432 339 c 0
 427 336 426 336 408 337 c 0
 398 338 385 339 380 340 c 1
 376 342 361 343 349 344 c 0
 334 344 325 345 322 347 c 0
 320 348 318 350 316 352 c 0
 315 353 313 359 311 364 c 0
 309 370 307 377 307 381 c 1
 306 384 304 391 302 395 c 0
 300 400 297 406 295 410 c 0
 294 413 290 418 286 420 c 2
 283 423 280 425 279 425 c 0
 278 425 274 426 271 428 c 0
 265 431 262 431 242 432 c 0
 229 432 218 432 215 431 c 0
 211 430 208 426 203 420 c 0
 198 415 193 408 190 404 c 0
 188 400 184 394 181 390 c 0
 178 386 176 381 175 375 c 1
 175 369 173 362 172 359 c 0
 170 354 169 347 169 337 c 0
 169 328 168 320 167 318 c 0
 166 316 165 310 164 304 c 0
 163 298 161 289 160 283 c 2
 158 277 157 270 157 267 c 2
 156 264 157 258 158 254 c 0
 160 249 161 244 160 238 c 0
 159 233 160 228 161 226 c 0
 162 223 163 214 163 206 c 0
 164 198 166 189 167 187 c 0
 168 184 170 177 170 172 c 0
 170 166 172 160 173 158 c 0
 174 155 175 150 176 146 c 1
 176 140 180 132 187 118 c 0
 194 102 198 97 204 92 c 2
 207 88 214 84 218 81 c 0
 225 77 225 77 247 77 c 0
 267 78 271 78 277 81 c 0
 280 83 288 89 294 94 c 0
 302 102 305 106 306 111 c 0
 307 114 309 119 310 122 c 0
 311 125 312 130 312 133 c 0
 312 135 313 140 315 143 c 0
 317 146 318 150 318 151 c 0
 318 152 319 156 321 160 c 0
 322 163 325 167 328 168 c 0
 331 169 340 170 359 171 c 0
 374 171 391 172 396 173 c 0
 401 174 409 175 414 176 c 1
 422 176 424 176 429 173 c 2
 433 172 437 169 438 167 c 0
 440 164 440 160 440 146 c 0
 440 134 439 128 438 125 c 1
 436 122 434 118 432 115 c 0
 430 112 428 108 428 104 c 0
 428 101 426 95 423 88 c 0
 420 83 418 77 418 76 c 0
 418 74 412 67 405 60 c 0
 398 53 389 46 385 43 c 0
 380 40 375 35 370 29 c 0
 366 24 361 19 359 17 c 1
 356 16 350 14 346 14 c 0
 341 13 336 12 333 10 c 0
 331 9 326 7 323 7 c 1
 320 6 313 4 307 1 c 0
 299 -3 293 -5 281 -6 c 0
 273 -7 260 -8 254 -9 c 1
 247 -9 239 -8 234 -7 c 0
 228 -6 226 -6 221 -7 c 1
 216 -9 214 -9 200 -4 c 0
 192 -2 182 1 178 1 c 1
 175 2 169 3 166 5 c 2
 163 6 159 8 158 9 c 2
 156 10 152 13 147 16 c 0
 142 19 137 22 136 23 c 1
 134 24 133 25 132 25 c 0
 131 25 129 26 128 27 c 1
 128 28 123 30 118 31 c 0
 111 33 108 35 101 43 c 0
 95 49 90 57 86 64 c 0
 83 71 78 79 76 82 c 0
 74 85 70 91 67 95 c 0
 64 99 60 104 60 107 c 1
 59 110 57 116 54 122 c 0
 52 127 48 135 46 140 c 0
 44 145 43 152 43 155 c 0
 43 158 42 162 41 165 c 0
 40 168 38 170 37 170 c 0
 36 170 35 173 34 177 c 0
 33 181 32 192 32 208 c 0
 33 222 33 236 33 240 c 0
 33 244 33 258 32 270 c 0
 32 289 32 295 34 304 c 0
 36 310 37 317 37 321 c 0
 37 324 38 332 40 339 c 0
 42 346 43 353 43 355 c 0
 43 357 44 360 45 363 c 1
 47 365 48 371 49 375 c 1
 49 380 52 386 55 391 c 0
 57 395 59 399 59 400 c 1
 59 400 60 402 61 403 c 0
 62 404 65 408 66 413 c 1
 68 418 71 425 74 429 c 0
 76 433 81 437 84 439 c 0
 87 441 92 446 95 449 c 0
 99 452 103 457 105 460 c 0
 107 463 110 466 111 468 c 1
 113 469 116 470 119 471 c 0
 122 472 128 475 133 480 c 0
 138 484 145 489 149 491 c 0
 152 492 157 494 159 494 c 0
 161 494 166 495 169 496 c 0
 172 497 178 500 183 502 c 0
 187 504 193 506 197 506 c 0
 200 506 205 507 208 508 c 0
 212 510 218 511 232 512 c 0
 242 512 251 513 253 514 c 0
EndSplineSet
Validated: 33
EndChar

StartChar: uni0064
Encoding: 100 100 69
Width: 578
GlyphClass: 2
Flags: W
LayerCount: 2
Fore
SplineSet
309 428 m 0
 303 430 296.999 431.001 286.999 432.001 c 0
 278.999 432.001 271.999 432.001 270.999 431.001 c 1
 269.999 431.001 266.999 429.001 263.999 428.001 c 0
 261.999 427.001 256.999 426.001 252.999 425.001 c 0
 248.999 424.001 242.999 422.001 239.999 421.001 c 0
 236.999 420.001 231.999 416.001 228.999 413.001 c 0
 225.999 410.001 219.999 406.001 215.999 404.001 c 0
 211.999 402.001 207.999 400.001 206.999 398.001 c 2
 205.999 397.001 200.999 391.001 195.999 386.001 c 0
 190.999 380.001 186.999 375.001 186.999 374.001 c 0
 186.999 373.001 185.999 371.001 184.999 369.001 c 0
 183.999 367.001 180.999 359.001 178.999 352.001 c 2
 175.999 346.001 171.999 334.001 169.999 327.001 c 0
 167.999 320.001 164.999 311.001 163.999 308.001 c 0
 162.999 305.001 161.999 299.001 161.999 296.001 c 0
 161.999 292.001 162.999 288.001 163.999 286.001 c 1
 163.999 284.001 164.999 277.001 165.999 271.001 c 0
 166.999 263.001 165.999 259.001 163.999 253.001 c 0
 161.999 246.001 160.999 240.001 160.999 224.001 c 0
 160.999 208.001 161.999 202.001 163.999 198.001 c 0
 164.999 195.001 165.999 190.001 166.999 186.001 c 1
 166.999 183.001 168.999 177.001 169.999 175.001 c 0
 170.999 172.001 172.999 164.001 173.999 158.001 c 0
 174.999 150.001 176.999 143.001 179.999 138.001 c 1
 181.999 133.001 184.999 127.001 185.999 123.001 c 0
 186.999 118.001 189.999 114.001 202.999 101.001 c 0
 214.999 90.001 220.999 85.001 224.999 84.001 c 0
 227.999 83.001 230.999 82.001 231.999 82.001 c 0
 232.999 82.001 236.999 81.001 241.999 79.001 c 0
 248.999 75.001 252.999 75.001 269.999 75.001 c 0
 273.898 74.7959 276.997 74.6328 279.72 74.6328 c 0
 290.263 74.6328 295.155 77.0791 318.999 89.001 c 0
 346.999 103.001 347.999 104.001 354.999 113.001 c 0
 358.999 118.001 363.999 123.001 364.999 124.001 c 0
 365.999 125.001 365.999 127.001 365.999 127.001 c 1
 365.999 128.001 367.999 130.001 368.999 132.001 c 0
 370.999 135.001 372.999 139.001 373.999 142.001 c 0
 374.999 145.001 376.999 150.001 379.999 153.001 c 0
 381.999 156.001 384.999 160.001 384.999 162.001 c 2
 385.999 164.001 386.999 173.001 386.999 182.001 c 0
 386.999 193.001 387.999 199.001 389.999 205.001 c 0
 391.999 211.001 392.999 220.001 392.999 234.001 c 0
 393.999 245.001 394.999 257.001 395.999 260.001 c 0
 397.171 262.344 397.656 264.687 397.656 267.23 c 0
 397.656 269.029 397.414 270.929 397 273 c 0
 396 278 395 284 394 287 c 1
 394 289 393 294 393 296 c 0
 393 299 392 304 391 309 c 1
 389 313 388 323 387 330 c 0
 386 340 384 346 380 354 c 1
 378 360 375 369 374 373 c 1
 374 379 373 383 370 385 c 0
 369 386 362 393 355 399 c 2
 348 407 342 411 339 412 c 0
 337 413 332 415 329 417 c 0
 326 420 322 422 320 423 c 0
 318 424 313 426 309 428 c 0
485.999 730.001 m 0
 488.999 731.001 495 732.001 498 732.001 c 0
 503 732.001 505 731.001 509 728.001 c 0
 511 726.001 515 721.001 517 718.001 c 0
 519.667 714.668 520.556 713.557 520.556 693.927 c 0
 520.556 684.112 520.333 669.668 520 648.001 c 0
 519 612.001 519 579.001 519 575.001 c 2
 519 498.001 l 2
 519 461.001 520 426.001 520 422.001 c 0
 521 417.001 521 410.001 520 406.001 c 2
 520 401.001 518 395.001 517 393.001 c 0
 516 391.001 515 387.001 515 384.001 c 0
 515 381.001 516 375.001 517 370.001 c 0
 519 363.001 519 357.001 519 343.001 c 0
 518 334.001 518 322.001 517 318.001 c 1
 517 314.001 518 302.001 518 290.001 c 0
 519 279.001 520 248.001 520 222.001 c 0
 521 196.001 521 169.001 521 162.001 c 0
 521 156.001 520 144.001 520 137.001 c 0
 521 129.001 521 118.001 521 112.001 c 1
 520 107.001 520 90.001 520 76.001 c 0
 520 62.001 521 48.001 522 44.001 c 0
 522.414 41.9297 522.656 40.2021 522.656 38.4619 c 0
 522.656 36.001 522.171 33.5156 520.999 30.001 c 0
 518.999 26.001 515.999 20.001 513.999 17.001 c 0
 511.999 14.001 507.999 11.001 505.999 10.001 c 0
 503.999 9.00098 498.999 6.00098 494.999 5.00098 c 0
 486.999 2.00098 486.999 2.00098 476.999 6.00098 c 1
 471.999 7.00098 464.999 9.00098 461.999 9.00098 c 0
 457.999 9.00098 451.999 7.00098 446.999 6.00098 c 1
 441.999 4.00098 434.999 3.00098 424.999 3.00098 c 0
 415.999 3.00098 409.999 4.00098 407.999 5.00098 c 0
 405.999 6.00098 401.999 9.00098 399.999 11.001 c 0
 397.999 13.001 395.999 17.001 394.999 20.001 c 0
 393.999 22.001 392.999 29.001 391.999 35.001 c 1
 391.999 41.001 390.999 48.001 389.999 50.001 c 0
 388.999 52.001 386.999 55.001 385.999 57.001 c 0
 384.999 59.001 382.999 62.001 380.999 63.001 c 2
 378.999 65.001 375.999 66.001 373.999 66.001 c 0
 372.999 66.001 369.999 66.001 368.999 65.001 c 2
 366.999 65.001 362.999 60.001 358.999 54.001 c 0
 354.999 49.001 345.999 39.001 338.999 33.001 c 0
 330.999 25.001 324.999 21.001 320.999 19.001 c 0
 317.999 18.001 312.999 15.001 310.999 13.001 c 0
 307.999 10.001 303.999 8.00098 301.999 6.00098 c 1
 299.999 5.00098 292.999 4.00098 285.999 3.00098 c 0
 279.999 2.00098 269.999 2.00098 262.999 2.00098 c 0
 254.999 2.00098 250.999 1.00098 245.999 -0.999023 c 0
 239.999 -3.99902 235.999 -4.99902 225.999 -4.99902 c 0
 218.999 -4.99902 210.999 -3.99902 207.999 -1.99902 c 1
 204.999 -0.999023 197.999 0.000976562 193.999 1.00098 c 1
 188.999 1.00098 182.999 3.00098 179.999 4.00098 c 1
 176.999 6.00098 172.999 7.00098 171.999 7.00098 c 0
 169.999 7.00098 167.999 8.00098 165.999 9.00098 c 0
 163.999 10.001 160.999 12.001 157.999 15.001 c 0
 153.999 19.001 151.999 19.001 143.999 20.001 c 0
 138.999 20.001 132.999 21.001 130.999 22.001 c 0
 128.999 23.001 118.999 32.001 108.999 42.001 c 2
 89.999 62.001 l 1
 89.999 63.001 88.999 65.001 86.999 68.001 c 0
 84.999 71.001 81.999 75.001 78.999 77.001 c 1
 76.999 80.001 71.999 86.001 68.999 91.001 c 0
 65.999 96.001 61.999 103.001 60.999 106.001 c 2
 58.999 109.001 55.999 116.001 54.999 120.001 c 0
 53.999 125.001 51.999 133.001 49.999 139.001 c 0
 48.999 144.001 46.999 152.001 45.999 157.001 c 0
 44.999 161.001 43.999 166.001 41.999 169.001 c 1
 40.999 172.001 39.999 178.001 39.999 184.001 c 1
 38.999 189.001 37.999 195.001 36.999 198.001 c 0
 34.999 202.001 33.999 210.001 32.999 223.001 c 0
 32.999 233.001 31.999 245.001 31.999 250.001 c 0
 31.999 256.001 32.999 259.001 35.999 263.001 c 0
 37.999 267.001 38.999 269.001 38.999 276.001 c 0
 38.999 281.001 37.999 287.001 36.999 291.001 c 0
 34.999 296.001 34.999 298.001 37.999 306.001 c 0
 38.999 310.001 39.999 316.001 39.999 319.001 c 0
 39.999 321.001 40.999 325.001 41.999 328.001 c 1
 43.999 331.001 45.999 334.001 46.999 335.001 c 0
 47.999 336.001 48.999 339.001 49.999 342.001 c 1
 49.999 344.001 50.999 349.001 51.999 353.001 c 2
 51.999 357.001 53.999 364.001 54.999 368.001 c 1
 56.999 372.001 59.999 380.001 62.999 386.001 c 0
 65.999 393.001 68.999 400.001 70.999 403.001 c 0
 71.999 405.001 74.999 411.001 75.999 415.001 c 0
 77.999 420.001 79.999 425.001 83.999 428.001 c 0
 86.999 431.001 91.999 434.001 94.999 436.001 c 0
 96.999 437.001 108.999 448.001 120.999 460.001 c 0
 132.999 472.001 144.999 484.001 147.999 485.001 c 2
 150.999 487.001 158.999 491.001 163.999 492.001 c 0
 169.999 494.001 178.999 498.001 184.999 501.001 c 0
 194.999 506.001 194.999 506.001 215.999 507.001 c 0
 226.999 507.001 239.999 508.001 244.999 509.001 c 0
 250.999 510.001 254.999 510.001 259.999 509.001 c 0
 263.999 508.001 271.999 506.001 276.999 506.001 c 1
 282.999 505.001 295.999 502.001 305.999 498.001 c 0
 316.999 494.001 324.999 490.001 327.999 488.001 c 0
 330.999 485.001 332.999 484.001 333.999 484.001 c 0
 334.999 484.001 341.999 477.001 349.999 469.001 c 0
 360.999 458.001 365.999 454.001 369.999 453.001 c 1
 371.999 453.001 375.999 453.001 378.999 454.001 c 0
 380.999 455.001 383.999 458.001 384.999 461.001 c 0
 385.999 464.001 386.999 473.001 386.999 498.001 c 0
 386.999 521.001 387.999 532.001 388.999 538.001 c 0
 390.999 546.001 390.999 548.001 388.999 554.001 c 0
 388.292 558.243 387.585 563.485 387.585 572.91 c 0
 387.585 576.814 387.706 581.436 387.999 587 c 0
 387.999 601 388.999 620 388.999 630 c 0
 387.999 639 387.999 661 387.999 678 c 0
 387.731 684.699 387.585 690.105 387.585 694.547 c 0
 387.585 706.68 388.535 711.608 389.999 716.001 c 0
 390.999 719.001 393.999 724.001 395.999 727.001 c 0
 398.999 731.001 398.999 731.001 418.999 730.001 c 0
 428.999 730.001 441.999 729.001 447.999 728.001 c 0
 453.999 727.001 460.999 726.001 464.999 726.001 c 0
 467.999 726.001 472.999 727.001 475.999 727.001 c 1
 477.999 728.001 482.999 729.001 485.999 730.001 c 0
EndSplineSet
Validated: 33
EndChar

StartChar: uni0065
Encoding: 101 101 70
Width: 524
GlyphClass: 2
Flags: W
LayerCount: 2
Fore
SplineSet
294 443 m 1
 290 443 279 443.001 269 444.001 c 0
 263 444.334 258.89 444.557 255.815 444.557 c 0
 249.667 444.557 247.667 443.668 243 441.001 c 0
 239 439.001 232 436.001 226 435.001 c 1
 216 431.001 l 1
 215 431.001 209 427.001 204 422.001 c 0
 198 416.001 192 409.001 190 405.001 c 0
 188 401.001 185 394.001 183 390.001 c 0
 181 385.001 178 376.001 176 371.001 c 0
 174 366.001 171 356.001 170 349.001 c 2
 168 343.001 167 334.001 168 330.001 c 2
 168 324.001 170 321.001 173 318.001 c 0
 175 315.001 179 314.001 185 312.001 c 0
 189 311.001 196 311.001 200 311.001 c 2
 226 311.001 l 2
 242 312.001 246 312.001 253 309.001 c 1
 257.944 307.765 260.597 306.91 263.554 306.91 c 0
 265.382 306.91 267.326 307.236 270 308 c 0
 275 309 282 309 287 309 c 1
 292 308 301 309 306 309 c 1
 314 311 319 311 329 309 c 0
 334.856 307.536 341.249 306.608 346.216 306.608 c 0
 348.034 306.608 349.661 306.732 351.001 307 c 0
 357.001 307 360.001 308 362.001 311 c 0
 363.001 312 365.001 318 366.001 324 c 0
 366.415 327.313 366.657 329.77 366.657 332.078 c 0
 366.657 335.343 366.172 338.313 365 343 c 0
 364 348 363 354 363 356 c 0
 363 358 362 365 360 371 c 0
 358 377 356 384 355 386 c 0
 353 389 351 394 350 398 c 0
 349 402 347 407 345 410 c 0
 343 413 339 418 335 420 c 0
 330 423 324 427 320 429 c 0
 316 432 311 436 307 438 c 0
 303 441 298 442 294 443 c 1
295 527.001 m 0
 296.5 527.501 298.25 527.751 299.75 527.751 c 0
 301.25 527.751 302.5 527.501 303 527.001 c 1
 305 527.001 309 526.001 312 526.001 c 1
 316 525.001 324 522.001 331 519.001 c 0
 339 516.001 347 513.001 350 511.001 c 0
 354 509.001 359 508.001 362 507.001 c 1
 364 507.001 370 505.001 374 504.001 c 0
 380 502.001 384 500.001 388 495.001 c 1
 392 492.001 398 488.001 402 486.001 c 0
 406 484.001 412 479.001 418 473.001 c 0
 423 468.001 432 459.001 438 452.001 c 0
 444 446.001 450 439.001 452 436.001 c 1
 453 433.001 456 429.001 457 427.001 c 1
 459 425.001 460 421.001 461 418.001 c 1
 461 415.001 464 409.001 466 404.001 c 0
 469 397.001 471 391.001 472 384.001 c 1
 472 378.001 474 371.001 478 364.001 c 0
 481 358.001 485 348.001 486 343.001 c 0
 488 336.001 490 326.001 490 317.001 c 0
 490 306.001 491 299.001 494 293.001 c 1
 495 288.001 497 282.001 497 278.001 c 0
 497 275.001 496 268.001 496 262.001 c 1
 495 257.001 492 249.001 490 244.001 c 0
 488 239.001 485 235.001 483 234.001 c 0
 480 233.001 477 233.001 471 235.001 c 1
 464 236.001 461 237.001 456 235.001 c 0
 453 234.001 447 233.001 444 233.001 c 0
 440 233.001 434 234.001 432 235.001 c 0
 429 236.001 424 237.001 420 237.001 c 0
 417 237.001 411 236.001 407 235.001 c 0
 402 233.001 397 233.001 391 234.001 c 2
 386 234.001 378 235.001 374 235.001 c 0
 370 235.001 363 236.001 359 237.001 c 0
 355 238.001 348 239.001 345 238.001 c 2
 342 238.001 338 237.001 335 235.001 c 1
 332 234.001 329 233.001 327 232.001 c 1
 325 232.001 305 232.001 281 233.001 c 0
 263.5 233.501 252.5 233.751 245.125 233.751 c 0
 237.75 233.751 234 233.501 231 233.001 c 0
 224 231.001 220 231.001 207 232.001 c 0
 199 233.001 190 235.001 187 236.001 c 0
 185 237.001 181 237.001 179 237.001 c 1
 177 236.001 172 233.001 169 230.001 c 0
 165 226.001 163 222.001 162 217.001 c 0
 160 211.001 160 207.001 162 201.001 c 0
 163 196.001 163 189.001 163 185.001 c 1
 162 181.001 163 174.001 164 168.001 c 0
 165 163.001 169 153.001 173 145.001 c 2
 183 124.001 l 2
 184 121.001 189 114.001 192 110.001 c 0
 195 105.001 200 100.001 202 97.001 c 1
 205 95.001 209 92.001 211 91.001 c 0
 214 90.001 216 88.001 217 87.001 c 1
 217 87.001 220 85.001 224 84.001 c 1
 227 84.001 232 82.001 235 80.001 c 0
 239 78.001 245 78.001 265 78.001 c 0
 287 78.001 289 78.001 295 81.001 c 0
 300 84.001 303 85.001 313 84.001 c 0
 324 84.001 325 84.001 330 88.001 c 0
 333 91.001 338 97.001 340 102.001 c 1
 343 107.001 347 113.001 350 116.001 c 0
 352 119.001 357 126.001 360 132.001 c 0
 363 137.001 368 143.001 371 145.001 c 0
 375 148.001 377 148.001 388 148.001 c 2
 409 148.001 l 1
 440 148.001 l 2
 464 148.001 464 148.001 468 145.001 c 0
 470 143.001 473 139.001 475 136.001 c 1
 476 133.001 478 128.001 478 126.001 c 0
 478 123.001 477 120.001 476 119.001 c 1
 475 117.001 473 112.001 470 107.001 c 1
 468 101.001 464 94.001 462 91.001 c 0
 460 88.001 457 82.001 455 77.001 c 1
 452 72.001 445 63.001 436 54.001 c 0
 428 46.001 420 38.001 418 37.001 c 0
 416 36.001 409 32.001 402 27.001 c 0
 396 23.001 382 15.001 373 10.001 c 0
 357 2.00098 354 2.00098 339 0.000976562 c 0
 330 -0.999023 317 -3.99902 310 -4.99902 c 0
 303 -6.99902 295 -7.99902 292 -7.99902 c 0
 290 -7.99902 284 -6.99902 279 -5.99902 c 0
 274.607 -4.53516 269.144 -3.60742 259.077 -3.60742 c 0
 255.393 -3.60742 251.091 -3.73145 246 -3.99902 c 0
 223 -3.99902 220 -2.99902 213 -0.999023 c 1
 210 1.00098 203 3.00098 198 3.00098 c 1
 193 4.00098 184 6.00098 179 8.00098 c 0
 173 10.001 166 13.001 163 16.001 c 0
 160 18.001 157 20.001 156 20.001 c 1
 156 20.001 152 21.001 149 23.001 c 2
 143 27.001 l 2
 142 28.001 138 31.001 134 33.001 c 0
 129 36.001 122 41.001 118 45.001 c 0
 114 49.001 108 55.001 104 57.001 c 1
 101 60.001 97 63.001 96 64.001 c 0
 95 65.001 91 70.001 88 76.001 c 2
 84 81.001 80 89.001 78 94.001 c 0
 76 99.001 75 105.001 74 109.001 c 0
 73 112.001 72 115.001 71 117.001 c 1
 69 118.001 67 121.001 65 124.001 c 0
 64 126.001 61 130.001 60 134.001 c 2
 58 137.001 57 145.001 56 152.001 c 1
 56 162.001 55 166.001 52 170.001 c 0
 49 175.001 48 176.001 49 185.001 c 0
 50 191.001 49 198.001 48 202.001 c 2
 48 206.001 46 215.001 46 222.001 c 1
 45 229.001 43 238.001 42 240.001 c 0
 41 243.001 40 248.001 40 251.001 c 0
 40 253.001 41 260.001 43 265.001 c 0
 45 272.001 46 276.001 46 293.001 c 0
 46 307.001 47 315.001 49 324.001 c 0
 50 331.001 55 347.001 60 359.001 c 0
 64 371.001 68 385.001 69 389.001 c 0
 70 393.001 71 399.001 73 402.001 c 2
 74 405.001 76 410.001 78 413.001 c 0
 80 416.001 84 423.001 87 428.001 c 0
 91 434.001 94 439.001 95 441.001 c 0
 96 443.001 102 449.001 108 455.001 c 0
 115 461.001 126 473.001 135 480.001 c 0
 147 492.001 151 495.001 156 495.001 c 1
 159 496.001 163 498.001 165 499.001 c 0
 168 501.001 171 502.001 178 502.001 c 0
 184 502.001 189 503.001 191 504.001 c 1
 193 506.001 198 509.001 202 512.001 c 0
 207 516.001 212 518.001 218 519.001 c 0
 223 520.001 227 521.001 228 522.001 c 1
 228 522.001 234 524.001 240 525.001 c 0
 250 527.001 254 527.001 263 525.001 c 0
 268 524.001 277 524.001 281 525.001 c 2
 285 525.001 291 526.001 295 527.001 c 0
EndSplineSet
Validated: 33
EndChar

StartChar: uni0066
Encoding: 102 102 71
Width: 314
GlyphClass: 2
Flags: W
LayerCount: 2
Fore
SplineSet
225 741 m 0
 229 741 235.224 741.446 241.001 741.446 c 0
 243.89 741.446 246.667 741.335 249 741.002 c 0
 257 741.002 265 740.002 268 739.002 c 1
 271 737.002 278 736.002 283 736.002 c 0
 291 735.002 294 734.002 298 731.002 c 0
 301 729.002 305 725.002 307 723.002 c 1
 310 718.002 310 717.002 311 694.002 c 0
 311 673.002 311 670.002 308 666.002 c 1
 307 663.002 303 659.002 301 658.002 c 0
 298 657.002 293 654.002 289 653.002 c 2
 283 650.002 279 650.002 275 651.002 c 1
 272 651.002 264 651.002 257 650.002 c 0
 249 649.002 243 646.002 238 644.002 c 1
 235 642.002 228 637.002 224 632.002 c 0
 220 628.002 214 621.002 212 618.002 c 0
 209 614.002 207 608.002 206 603.002 c 0
 205 598.002 205 577.002 205 556.002 c 0
 206 521.002 206 518.002 209 512.002 c 0
 211 508.002 214 504.002 217 502.002 c 0
 220 500.002 224 500.002 231 500.002 c 0
 236 500.002 243 501.002 246 502.002 c 0
 251 504.002 256 505.002 267 504.002 c 0
 276 504.002 283 503.002 284 502.002 c 1
 286 501.002 288 498.002 289 496.002 c 2
 290 495.002 292 488.002 295 481.002 c 0
 298 470.002 298 469.002 297 453.002 c 0
 296 444.002 295 434.002 294 429.002 c 0
 293 425.002 291 420.002 290 418.002 c 1
 287 415.002 285 415.002 270 414.002 c 0
 260 414.002 248 414.002 241 415.002 c 1
 235 415.002 227 415.002 222 414.002 c 0
 218 414.002 213 412.002 211 410.002 c 0
 209 408.002 207 403.002 206 399.002 c 0
 205 393.002 205 390.002 206 384.002 c 0
 208 377.002 208 374.002 207 367.002 c 0
 206 362.002 205 346.002 205 331.002 c 0
 204 316.002 204 301.002 204 298.002 c 0
 204 295.002 205 276.002 206 254.002 c 0
 206.5 239.502 206.75 229.502 206.75 222.502 c 0
 206.75 215.502 206.5 211.502 206 209.002 c 0
 205 204.002 205 180.002 205 127.002 c 0
 206 63.002 206 50.002 208 43.002 c 0
 210 39.002 211 32.002 211 29.002 c 0
 211 25.002 210 21.002 208 19.002 c 2
 207 17.002 202 13.002 198 11.002 c 0
 192 9.00195 188 8.00195 169 8.00195 c 0
 152 8.00195 147 7.00195 141 5.00195 c 0
 137.292 3.76562 135.111 2.91113 132.807 2.91113 c 0
 131.382 2.91113 129.91 3.2373 128 4.00098 c 0
 124 5.00098 119 7.00098 116 7.00098 c 2
 113 8.00098 106 9.00098 100 9.00098 c 0
 92 9.00098 89 9.00098 86 12.001 c 2
 83 13.001 81 17.001 80 20.001 c 0
 79.293 22.8291 78.5859 30.6572 78.5859 44.8994 c 0
 78.5859 50.7988 78.707 57.7988 79 66 c 0
 79 97 80 108 81 110 c 0
 83 113 83 120 83 136 c 0
 83 153 82 159 80 163 c 0
 79 166 78 171 78 180 c 0
 78 187 79 195 81 199 c 0
 83 206 83 207 80 214 c 0
 78 220 78 225 79 244 c 0
 79 256 80 269 80 271 c 0
 80 274 79 300 79 329 c 0
 78 359 78 389 77 396 c 2
 77 403 76 409 75 410 c 0
 74 411 70 412 62 412 c 0
 56 412 43 413 33 414 c 0
 24 414 14 416 11 417 c 0
 9 418 5 421 3 423 c 0
 1 426 0 430 0 434 c 0
 0 437 0 450 1 461 c 0
 1 474 3 485 4 489 c 0
 6 494 8 496 13 498 c 1
 18 501 22 502 29 502 c 0
 34 502 41 501 45 501 c 0
 49 501 55 501 58 502 c 2
 61 502 66 505 69 508 c 0
 72 511 76 515 77 518 c 1
 77 520 78 525 78 530 c 0
 78 534 79 540 81 543 c 1
 82 546 83 554 83 560 c 0
 83 567 83 573 81 578 c 0
 79 582 78 590 78 595 c 0
 78 601 79 608 80 611 c 0
 82 615 83 621 83 624 c 0
 83 628 84 635 86 641 c 0
 87 646 90 653 91 657 c 0
 92 661 94 668 96 673 c 0
 99 680 101 684 106 689 c 2
 120 703 l 2
 124 707 132 713 138 716 c 2
 143 720 151 724 155 725 c 0
 159 726 166 729 170 730 c 0
 175 731 180 733 181 733 c 2
 183 734 187 735 191 735 c 0
 195 735 202 736 206 737 c 1
 210 739 219 740 225 741 c 0
EndSplineSet
Validated: 33
EndChar

StartChar: uni0068
Encoding: 104 104 73
Width: 584
GlyphClass: 2
Flags: W
LayerCount: 2
Fore
SplineSet
159 726 m 0
 161 727 165.001 726.997 168.001 726.997 c 0
 170.001 726.997 175.001 726.997 177.001 725.997 c 0
 180.001 724.997 185.001 722.997 187.001 720.997 c 0
 190.001 718.997 194.001 715.997 196.001 713.997 c 0
 198.001 711.997 200.001 706.997 201.001 703.997 c 0
 202.001 699.997 202.001 696.997 201.001 692.997 c 1
 200.001 690.997 198.001 681.997 197.001 673.997 c 0
 196.001 665.997 196.001 650.997 196.001 639.997 c 0
 196.001 626.997 197.001 617.997 199.001 612.997 c 0
 201.001 604.997 201.001 603.997 199.001 596.997 c 0
 197.001 590.997 197.001 588.997 199.001 582.997 c 0
 200.001 577.997 200.001 570.997 199.001 560.997 c 0
 199.001 553.997 198.001 543.997 199.001 539.997 c 2
 199.001 535.997 200.001 531.997 200.001 530.997 c 0
 200.001 528.997 199.001 525.997 199.001 521.997 c 1
 198.001 518.997 197.001 503.997 197.001 487.997 c 0
 196.668 482.664 196.557 477.331 196.557 472.479 c 0
 196.557 462.775 197.001 454.998 197.001 452.998 c 1
 198.001 448.998 200.001 444.998 203.001 441.998 c 2
 205.001 437.998 208.001 435.998 211.001 435.998 c 0
 213.001 435.998 216.001 437.998 218.001 439.998 c 0
 220.001 441.998 223.001 445.998 225.001 447.998 c 0
 228.001 450.998 231.001 453.998 234.001 454.998 c 0
 236.001 455.998 238.001 457.998 238.001 457.998 c 1
 238.001 458.998 242.001 463.998 248.001 469.998 c 0
 254.001 476.998 260.001 481.998 264.001 482.998 c 1
 268.001 484.998 271.001 486.998 272.001 487.998 c 2
 272.001 487.998 276.001 490.998 279.001 491.998 c 0
 283.001 493.998 288.001 495.998 292.001 497.998 c 1
 296.001 498.998 305.001 499.998 313.001 499.998 c 0
 321.001 500.998 329.001 501.998 331.001 502.998 c 1
 333.001 502.998 341.001 502.998 349.001 501.998 c 0
 358.001 500.998 371.001 499.998 378.001 499.998 c 0
 389.001 499.998 394.001 498.998 404.001 494.998 c 0
 411.001 492.998 419.001 489.998 422.001 487.998 c 2
 434.001 479.998 l 1
 437.001 478.998 441.001 475.998 442.001 474.998 c 2
 444.001 473.998 450.001 469.998 456.001 466.998 c 0
 463.001 462.998 468.001 458.998 469.001 457.998 c 1
 470.001 455.998 472.001 452.998 473.001 449.998 c 1
 475.001 447.998 480.001 441.998 484.001 437.998 c 0
 488.001 432.998 492.001 425.998 494.001 422.998 c 1
 495.001 418.998 497.001 412.998 498.001 408.998 c 2
 500.001 404.998 502.001 398.998 503.001 394.998 c 0
 504.001 390.998 506.001 385.998 506.001 383.998 c 1
 507.001 382.998 509.001 376.998 511.001 372.998 c 0
 513.001 365.998 514.001 359.998 514.001 350.998 c 0
 514.001 343.998 513.001 335.998 513.001 331.998 c 1
 512.001 328.998 512.001 323.998 513.001 320.998 c 1
 513.001 317.998 514.001 282.998 514.001 242.998 c 0
 514.001 184.998 514.001 168.998 513.001 162.998 c 0
 511.001 154.998 511.001 151.998 512.001 139.998 c 1
 514.001 132.998 515.001 117.998 515.001 105.998 c 0
 515.001 93.998 516.001 82.998 517.001 78.998 c 0
 517.9 76.3008 518.396 74.4121 518.396 72.333 c 0
 518.396 69.7861 517.653 66.9531 516.002 61.999 c 1
 515.002 54.999 514.002 45.999 514.002 35.999 c 0
 514.002 20.999 514.002 18.999 510.002 11.999 c 0
 508.002 7.99902 504.002 1.99902 501.002 -0.000976562 c 0
 498.002 -2.00098 495.002 -3.00098 492.002 -3.00098 c 1
 490.002 -2.00098 486.002 -1.00098 482.002 -0.000976562 c 1
 479.002 -0.000976562 472.002 1.99902 467.002 2.99902 c 0
 460.002 3.99902 454.002 3.99902 440.002 1.99902 c 0
 430.002 0.999023 418.002 -1.00098 413.002 -2.00098 c 0
 405.002 -3.00098 403.002 -3.00098 399.002 -0.000976562 c 2
 396.002 0.999023 393.002 4.99902 391.002 7.99902 c 1
 390.002 10.999 388.002 14.999 387.002 17.999 c 1
 387.002 19.999 387.002 25.999 388.002 31.999 c 0
 390.002 39.999 390.002 44.999 389.002 49.999 c 0
 388.002 53.999 388.002 106.999 388.002 184.999 c 0
 389.002 255.999 389.002 314.999 389.002 315.999 c 0
 389.002 316.999 389.002 325.999 388.002 334.999 c 0
 387.002 344.999 386.002 353.999 384.002 355.999 c 1
 383.002 358.999 381.002 363.999 381.002 367.999 c 1
 380.002 371.999 378.002 378.999 376.002 383.999 c 0
 373.002 389.999 370.002 393.999 364.002 398.999 c 0
 360.002 401.999 354.002 405.999 352.002 405.999 c 1
 349.002 406.999 345.002 409.999 341.002 411.999 c 0
 337.002 414.999 332.002 417.999 329.002 419.999 c 1
 324.002 421.999 320.002 421.999 311.002 420.999 c 0
 305.002 419.999 292.002 419.999 282.002 419.999 c 0
 269.002 419.999 263.002 418.999 260.002 416.999 c 1
 257.002 415.999 252.002 413.999 248.002 412.999 c 0
 245.002 411.999 241.002 409.999 239.002 407.999 c 2
 237.002 406.999 231.002 400.999 226.002 395.999 c 0
 221.002 391.999 217.002 386.999 217.002 385.999 c 0
 217.002 384.999 216.002 382.999 215.002 381.999 c 1
 213.002 380.999 211.002 377.999 210.002 374.999 c 2
 208.002 371.999 205.002 362.999 203.002 354.999 c 0
 201.002 347.999 200.002 338.999 200.002 336.999 c 1
 201.002 333.999 200.002 329.999 199.002 326.999 c 0
 198.002 323.999 197.002 289.999 197.002 164.999 c 0
 197.002 7.99902 197.002 7.99902 192.002 3.99902 c 0
 187.002 -0.000976562 187.002 -0.000976562 179.002 0.999023 c 0
 174.002 0.999023 153.002 1.99902 131.002 1.99902 c 0
 117.093 1.63281 108.007 1.40039 101.782 1.40039 c 0
 91.001 1.40039 88.8047 2.09668 85.001 3.99902 c 0
 80.001 5.99902 78.001 8.99902 75.001 15.999 c 0
 72.001 23.999 71.001 26.999 70.001 45.999 c 0
 70.001 53.332 69.5566 65.1094 69.5566 75.998 c 0
 69.5566 81.4424 69.668 86.665 70.001 90.998 c 0
 70.001 111.998 70.001 116.998 72.001 121.998 c 1
 74.001 124.998 75.001 129.998 76.001 134.998 c 1
 76.001 140.998 75.001 143.998 72.001 149.998 c 0
 70.0986 155.07 69.4023 156.927 69.4023 170.347 c 0
 69.4023 178.095 69.6348 189.697 70.001 207.999 c 0
 70.3447 225.203 70.5986 236.377 70.5986 243.926 c 0
 70.5986 257 69.9023 259.196 68 263 c 0
 66 267 66 270 66 275 c 1
 67 278 68 285 68 289 c 0
 69 294 70 318 70 343 c 0
 70 381 70 390 72 395 c 0
 75 401 75 402 72 407 c 1
 70 413 70 422 70 477 c 0
 70 531 70 541 72 547 c 0
 74 553 74 555 72 561 c 0
 70 567 70 571 71 577 c 2
 71 582 72 589 72 593 c 0
 72 597 71 622 70 649 c 0
 69 676 68 702 68 707 c 0
 68 715 68 716 72 720 c 0
 76 724 76 724 115 724 c 0
 137 724 156 725 159 726 c 0
EndSplineSet
Validated: 33
EndChar

StartChar: uni006C
Encoding: 108 108 77
Width: 250
GlyphClass: 2
Flags: W
LayerCount: 2
Fore
SplineSet
68 723 m 0
 75 730 74.999 729.999 83.999 729.999 c 0
 88.999 729.999 95.999 728.999 98.999 727.999 c 0
 101.999 726.999 106.999 724.999 110.999 724.999 c 0
 113.999 724.999 119.999 724.999 123.999 726.999 c 1
 127.999 727.999 134.999 728.999 139.999 728.999 c 0
 145.999 728.999 150.999 727.999 153.999 725.999 c 1
 156.999 724.999 163.999 723.999 170.999 722.999 c 1
 179.999 722.999 183.999 721.999 185.999 719.999 c 0
 187.999 717.999 189.999 714.999 190.999 711.999 c 0
 191.499 709.999 191.749 706.999 191.749 702.124 c 0
 191.749 697.249 191.499 690.499 190.999 680.999 c 0
 189.999 665.999 189.999 651.999 189.999 648.999 c 0
 189.999 645.999 188.999 638.999 186.999 633.999 c 0
 184.999 625.999 184.999 624.999 186.999 617.999 c 0
 188.999 610.999 188.999 607.999 187.999 597.999 c 0
 186.999 590.999 185.999 583.999 185.999 581.999 c 1
 184.999 579.999 185.999 575.999 186.999 572.999 c 0
 187.999 567.999 187.999 564.999 186.999 557.999 c 0
 184.999 550.999 184.999 547.999 186.999 540.999 c 0
 187.999 536.999 188.999 527.999 188.999 522.999 c 2
 188.999 504.999 l 1
 188.999 438.999 l 1
 188.999 372.999 l 2
 188.999 367.999 188.999 346.999 189.999 327.999 c 0
 190.365 315.188 190.598 306.799 190.598 300.819 c 0
 190.598 290.463 189.901 287.339 187.999 280.999 c 0
 184.999 271.999 184.999 269.999 185.999 257.999 c 0
 186.999 249.999 187.999 242.999 188.999 240.999 c 0
 189.999 238.999 190.999 227.999 190.999 213.999 c 0
 190.999 195.999 189.999 187.999 187.999 180.999 c 0
 185.999 174.999 185.999 166.999 185.999 147.999 c 0
 185.999 129.999 186.999 122.999 187.999 118.999 c 1
 189.999 115.999 190.999 110.999 190.999 107.999 c 0
 190.999 105.999 188.999 99.999 187.999 94.999 c 1
 185.999 89.999 184.999 84.999 184.999 80.999 c 1
 185.999 76.999 186.999 71.999 187.999 68.999 c 1
 189.999 65.999 190.999 56.999 190.999 46.999 c 0
 191.273 42.0615 191.473 38.4785 191.473 35.6104 c 0
 191.473 28.0215 190.079 25.4336 184.999 15.999 c 0
 178.999 2.99902 178.999 2.99902 160.999 1.99902 c 2
 108.999 1.99902 l 2
 73.999 2.99902 73.999 2.99902 68.999 7.99902 c 0
 65.999 10.999 62.999 15.999 60.999 19.999 c 0
 59.999 22.999 58.999 28.999 58.999 34.999 c 0
 58.999 39.999 58.999 46.999 60.999 50.999 c 0
 61.999 53.999 62.999 59.999 62.999 63.999 c 0
 62.999 67.999 61.999 74.999 60.999 78.999 c 0
 60.7061 80.7568 60.585 82.9434 60.585 85.6338 c 0
 60.585 92.1299 61.3271 101.563 61.999 115 c 0
 62.499 125 62.749 132.5 62.749 139 c 0
 62.749 145.5 62.499 151 61.999 157 c 0
 60.999 166 60.999 176 60.999 179 c 0
 60.999 183 61.999 189 61.999 192 c 2
 62.999 196 62.999 208 63.999 218 c 0
 63.999 228 63.999 239 62.999 241 c 0
 62.499 242.5 62.249 247.75 62.249 255.5 c 0
 62.249 263.25 62.499 273.5 62.999 285 c 0
 63.8447 297.68 64.1543 307.322 64.1543 315.514 c 0
 64.1543 326.703 63.5771 335.185 63 345 c 0
 62.4229 354.814 61.8457 361.963 61.8457 368.369 c 0
 61.8457 373.059 62.1553 377.351 63.001 382 c 0
 63.501 387.5 63.751 392.75 63.751 398.375 c 0
 63.751 404 63.501 410 63.001 417 c 0
 62.001 428 61.001 441 60.001 447 c 1
 60.001 453 60.001 460 62.001 467 c 0
 63.6523 471.954 64.3945 475.696 64.3945 484.566 c 0
 64.3945 491.809 63.8994 502.47 63 520 c 0
 62.5 535.5 62.25 547.25 62.25 556 c 0
 62.25 564.75 62.5 570.5 63 574 c 0
 64 580 65 590 64 598 c 0
 64 606 63 614 62 618 c 0
 61 621 59 627 59 630 c 2
 58 634 59 639 61 645 c 0
 63 650 64 656 64 659 c 0
 64 663 63 669 62 673 c 0
 61 677 60 688 60 698 c 0
 60 715 60 715 68 723 c 0
EndSplineSet
Validated: 33
EndChar

StartChar: uni006D
Encoding: 109 109 78
Width: 905
GlyphClass: 2
Flags: W
LayerCount: 2
Fore
SplineSet
322 515 m 0
 327 516 334 517 337 517 c 0
 340 517 346 516 350 515 c 0
 355 513 363 513 374 513 c 0
 386 513 391 512 394 511 c 1
 395 509 402 507 408 505 c 0
 415 503 425 498 431 495 c 0
 437 492 442 489 443 488 c 1
 443 487 447 485 451 482 c 0
 456 479 463 473 468 468 c 0
 473 462 477 456 480 450 c 1
 482 444 485 439 487 437 c 0
 489 435 492 432 495 431 c 0
 498 430 503 429 506 429 c 0
 511 429 513 430 517 435 c 0
 520 438 528 447 535 454 c 0
 542 461 550 470 553 475 c 0
 556 479 560 484 562 486 c 1
 563 488 572 493 580 498 c 0
 593 504 598 506 605 506 c 0
 610 506 616 508 619 509 c 0
 623 511 633 512 655 512 c 0
 665.614 512.366 672.611 512.599 677.659 512.599 c 0
 686.401 512.599 689.294 511.902 695 510 c 0
 699 508 706 507 710 507 c 0
 713 507 720 505 725 503 c 0
 731 501 737 500 739 500 c 0
 742 500 745 499 748 498 c 1
 775 472 l 2
 792 455 798 447 800 443 c 0
 801 440 803 436 804 434 c 0
 805 431 808 428 809 425 c 0
 810 422 812 417 813 414 c 0
 815 410 816 404 817 400 c 1
 817 395 819 390 820 387 c 0
 821 385 823 376 824 368 c 0
 826 360 827 341 828 325 c 0
 828 304 829 293 831 286 c 0
 832.5 281.5 833.25 279 833.25 276.75 c 0
 833.25 274.5 832.5 272.5 831 269 c 0
 829 263 829 257 829 218 c 2
 829 163 l 2
 829 158 829 134 828 110 c 0
 828 77 828 64 829 59 c 0
 830 55 831 47 832 40 c 1
 832 32 832 26 831 23 c 0
 830 21 826 17 823 14 c 0
 818 9 816 9 809 9 c 0
 805 9 795 7 788 6 c 0
 777 3 771 3 751 3 c 0
 738 4 724 5 720 6 c 0
 716 7 710 9 706 10 c 1
 703 12 699 15 698 17 c 0
 697 19 695 22 695 25 c 0
 695 28 696 40 697 53 c 0
 697 65 699 79 700 84 c 0
 701 88 701 95 701 99 c 1
 700 102 699 108 698 110 c 0
 696 114 695 117 696 126 c 0
 697 132 697 141 697 146 c 0
 697 151 697 164 696 176 c 0
 695 194 695 197 698 203 c 1
 700 209 700 211 698 224 c 0
 697 232 697 242 696 245 c 1
 696 249 697 256 698 262 c 0
 699 269 699 273 697 281 c 0
 695 290 695 291 697 296 c 1
 700 301 700 305 699 325 c 0
 699 338 698 351 697 353 c 0
 696 356 695 361 695 365 c 0
 694 370 692 374 688 379 c 0
 685 383 680 390 678 395 c 0
 676 401 671 407 667 411 c 0
 664 414 659 418 658 419 c 1
 656 420 652 421 649 421 c 0
 646 421 640 423 637 424 c 0
 633 425 625 428 620 429 c 0
 614 431 608 432 607 431 c 1
 605 431 601 429 598 428 c 0
 594 426 588 424 583 423 c 1
 578 421 568 417 559 413 c 0
 551 409 543 404 541 402 c 0
 539 400 536 395 534 391 c 0
 532 387 529 382 527 380 c 0
 525 377 523 374 522 373 c 1
 521 371 519 367 518 364 c 1
 516 361 516 357 517 352 c 1
 517 346 517 342 515 335 c 0
 513 330 511 320 511 312 c 2
 510 305 510 288 509 275 c 0
 509 261 508 248 507 244 c 0
 506 240 507 236 508 230 c 1
 510 224 510 222 508 214 c 0
 507 209 505 202 505 197 c 2
 504 192 505 187 507 181 c 0
 508 176 509 170 508 167 c 2
 508 164 507 159 506 155 c 0
 505 149 505 146 507 141 c 0
 510 134 510 128 510 80 c 0
 510 30 510 26 507 21 c 2
 506 17 503 13 501 11 c 0
 499 9 495 7 493 6 c 0
 490 5 478 4 466 3 c 0
 449 3 444 3 439 5 c 0
 433 7 432 7 426 5 c 0
 423 4 417 3 413 3 c 0
 409 3 406 3 405 4 c 1
 405 4 400 6 396 8 c 0
 390 10 387 12 384 16 c 0
 382 18 381 24 380 28 c 1
 380 33 380 40 381 47 c 1
 383 53 384 62 384 68 c 0
 384 76 383 81 381 86 c 0
 379 91 378 96 378 105 c 0
 378 113 379 119 380 121 c 0
 381 124 383 128 383 132 c 2
 384 136 383 142 382 148 c 1
 380 154 379 160 380 162 c 0
 381 164 382 170 382 175 c 2
 383 182 383 187 381 195 c 0
 380 203 379 207 381 210 c 1
 382 213 382 217 382 220 c 0
 382 223 381 228 380 231 c 0
 379 234 378 239 378 241 c 0
 378 244 379 249 380 253 c 0
 382 258 382 265 383 283 c 0
 383 297 382 309 381 313 c 0
 380 317 379 331 378 344 c 0
 377 368 377 368 372 380 c 0
 367 389 364 394 353 404 c 0
 344 413 338 418 331 421 c 0
 326 424 319 427 315 429 c 1
 311 430 306 431 298 431 c 0
 287 431 285 431 276 426 c 0
 270 423 262 420 259 420 c 1
 255 419 248 417 242 414 c 0
 237 412 231 408 230 406 c 0
 229 404 222 397 215 391 c 0
 208 384 201 376 200 373 c 2
 197 368 196 364 196 356 c 0
 196 348 195 344 192 338 c 0
 190 333 188 327 188 324 c 0
 188 320 189 315 191 312 c 1
 192 308 193 303 192 290 c 0
 192 281 191 268 191 261 c 0
 191 254 191 243 192 237 c 0
 194 228 193 226 191 218 c 0
 188 209 188 208 190 201 c 0
 192 196 193 188 193 180 c 0
 193 171 192 164 190 160 c 0
 188 153 188 152 190 146 c 1
 193 140 193 136 192 120 c 0
 191 109 191 98 191 95 c 1
 192 93 192 74 192 53 c 0
 192 16 192 16 188 12 c 0
 185 9 181 6 178 5 c 0
 174 3 167 3 132 3 c 0
 106 4 88 5 85 6 c 0
 81 7 77 9 74 11 c 0
 72 13 69 16 68 19 c 0
 67 21 66 27 65 33 c 0
 63 41 63 45 65 53 c 0
 65.5 56.5 65.75 60.25 65.75 65.5 c 0
 65.75 70.75 65.5 77.5 65 87 c 0
 64 100 64 111 64 112 c 1
 65 113 65 138 66 167 c 2
 66 263 l 2
 66 288 66 310 65 314 c 0
 64 319 63 330 63 339 c 0
 62 349 63 361 64 367 c 2
 64 372 65 384 65 392 c 0
 64 400 64 408 64 409 c 0
 64 411 65 425 65 442 c 0
 65 467 65 472 63 476 c 0
 62 479 60 484 60 487 c 0
 60 491 62 494 63 496 c 1
 65 498 70 501 75 503 c 0
 82 505 88 505 98 505 c 0
 105 505 114 503 117 502 c 0
 123 500 124 500 134 503 c 0
 140 505 149 506 157 506 c 0
 170 506 170 505 176 500 c 0
 180 497 183 493 184 488 c 2
 186 485 187 477 187 472 c 0
 187 466 187 460 188 458 c 0
 189 456 191 453 193 451 c 1
 195 450 198 448 200 448 c 0
 201 448 206 451 210 454 c 1
 214 458 220 462 222 464 c 0
 225 466 230 472 234 476 c 0
 238 480 247 487 254 492 c 0
 265 499 268 500 276 501 c 0
 282 502 287 503 289 503 c 1
 295 506 l 1
 296 506 301 508 305 510 c 2
 309 511 317 514 322 515 c 0
EndSplineSet
Validated: 33
EndChar

StartChar: uni006E
Encoding: 110 110 79
Width: 576
GlyphClass: 2
Flags: W
LayerCount: 2
Fore
SplineSet
344 521 m 0
 347 522 350.001 522.999 351.001 522.999 c 1
 353.001 521.999 358.001 520.999 363.001 518.999 c 0
 368.001 516.999 375.001 514.999 379.001 513.999 c 1
 382.001 511.999 390.001 511.999 398.001 510.999 c 0
 411.001 510.999 413.001 510.999 421.001 506.999 c 0
 426.001 503.999 434.001 498.999 438.001 495.999 c 0
 443.001 492.999 449.001 488.999 451.001 486.999 c 1
 454.001 485.999 458.001 481.999 460.001 478.999 c 0
 462.001 475.999 464.001 472.999 465.001 470.999 c 0
 466.001 468.999 472.001 462.999 478.001 456.999 c 0
 485.001 449.999 490.001 443.999 493.001 436.999 c 0
 495.001 431.999 498.001 424.999 498.001 420.999 c 1
 499.001 416.999 501.001 409.999 503.001 404.999 c 0
 505.001 396.999 506.001 390.999 506.001 369.999 c 0
 506.001 350.999 505.001 342.999 504.001 337.999 c 1
 502.001 332.999 502.001 330.999 503.001 325.999 c 1
 505.001 321.999 506.001 310.999 506.001 299.999 c 0
 507.001 287.999 508.001 279.999 509.001 275.999 c 1
 511.001 271.999 511.001 265.999 511.001 244.999 c 0
 511.001 229.999 510.001 217.999 509.001 214.999 c 0
 508.001 211.999 507.001 204.999 508.001 192.999 c 0
 508.001 181.999 509.001 171.999 510.001 168.999 c 0
 511.001 165.999 511.001 145.999 511.001 124.999 c 0
 511.001 102.999 510.001 82.999 510.001 79.999 c 1
 509.001 76.999 509.001 68.999 508.001 63.999 c 0
 507.001 55.999 508.001 51.999 509.001 46.999 c 1
 511.001 42.999 512.001 36.999 512.001 32.999 c 0
 512.001 25.999 511.001 23.999 506.001 15.999 c 0
 502.001 10.999 498.001 5.99902 496.001 4.99902 c 0
 494.001 3.99902 480.001 3.99902 455.001 2.99902 c 0
 417.001 2.99902 417.001 2.99902 410.001 6.99902 c 1
 404.001 8.99902 401.001 9.99902 397.001 8.99902 c 1
 393.001 8.99902 390.001 8.99902 388.001 10.999 c 1
 386.001 11.999 382.001 15.999 381.001 17.999 c 0
 378.001 22.999 378.001 24.999 379.001 43.999 c 0
 379.001 55.999 380.001 75.999 380.001 87.999 c 0
 381.001 100.999 381.001 112.999 381.001 114.999 c 0
 381.001 117.999 380.001 125.999 380.001 134.999 c 1
 379.001 139.999 378.501 146.499 378.501 155.124 c 0
 378.501 163.749 379.001 174.499 380.001 187.999 c 0
 380.001 209.999 381.001 228.999 381.001 230.999 c 0
 381.001 233.999 381.001 242.999 380.001 251.999 c 0
 378.829 259.028 378.344 265.715 378.344 273.063 c 0
 378.344 278.26 378.586 283.787 379 290 c 0
 380 301 381 314 380 317 c 0
 379 322 380 326 381 329 c 1
 383 332 384 337 384 339 c 0
 384 342 382 348 379 354 c 0
 376 359 373 367 373 371 c 0
 372 377 370 379 362 389 c 0
 357 394 349 402 344 406 c 0
 340 410 334 414 331 416 c 0
 329 417 326 419 325 420 c 0
 324 421 319 424 313 426 c 2
 305 431 303 431 294 430 c 0
 289 430 281 428 277 427 c 0
 273 426 267 424 262 423 c 0
 258 422 252 421 247 420 c 0
 241 419 239 417 233 411 c 1
 230 407 223 401 218 397 c 0
 211 391 208 387 205 382 c 1
 203 377 201 372 201 371 c 0
 201 369 200 364 199 360 c 1
 197 357 196 350 195 346 c 1
 195 342 193 336 192 333 c 1
 189 329 189 324 189 294 c 0
 189 269 190 257 192 250 c 0
 193 245 194 234 194 223 c 0
 194 207 194 203 192 198 c 0
 190 194 189 190 189 176 c 0
 190 167 189 156 188 152 c 0
 187 146 187 143 188 139 c 1
 189 137 191 129 193 122 c 0
 194 116 195 109 195 107 c 1
 194 105 193 101 192 98 c 1
 190 96 189 89 189 85 c 0
 188 80 189 71 189 65 c 1
 190 58 190 45 190 36 c 0
 189 21 188 17 186 14 c 0
 184 11 180 9 173 7 c 0
 166 4 157 4 125 3 c 0
 90 3 85 3 80 5 c 1
 77 7 73 9 71 11 c 0
 69 13 66 18 65 22 c 0
 62 29 62 34 62 50 c 0
 62 63 63 72 64 76 c 1
 66 80 66 84 65 91 c 0
 64 97 64 104 65 110 c 0
 66 118 66 121 64 126 c 0
 63 130 62 136 62 145 c 1
 63 152 64 160 65 163 c 1
 65 166 66 174 66 183 c 0
 66 191 65 201 64 206 c 0
 63 213 62 226 62 252 c 0
 62 272 62 291 63 294 c 0
 64 298 64 303 62 308 c 1
 61 313 60 320 60 325 c 0
 60 329 62 337 63 342 c 1
 66 350 66 352 64 358 c 0
 63 362 62 368 62 371 c 0
 62 374 63 379 64 382 c 0
 65 384 66 389 66 391 c 0
 66 393 65 397 64 399 c 0
 62 403 61 409 61 448 c 0
 61 485 61 494 63 497 c 0
 65 500 68 503 71 504 c 2
 73 506 79 508 83 508 c 0
 87 508 95 508 101 506 c 0
 111 504 114 504 126 506 c 0
 133 507 144 508 150 508 c 0
 160 509 163 508 167 506 c 1
 169 504 173 501 175 499 c 0
 177 496 180 492 181 489 c 0
 182 486 182 482 181 473 c 0
 179 461 179 461 185 452 c 0
 188 447 191 442 193 441 c 2
 194 440 196 439 198 439 c 0
 199 439 203 441 206 442 c 1
 208 444 212 448 215 452 c 0
 217 456 223 462 228 466 c 0
 232 469 238 475 241 478 c 0
 243 481 249 487 254 491 c 0
 258 495 266 499 270 501 c 1
 274 502 278 504 279 505 c 1
 281 506 287 508 293 510 c 0
 300 512 307 514 309 515 c 0
 311 516 318 517 326 518 c 0
 333 518 341 520 344 521 c 0
EndSplineSet
Validated: 33
EndChar
